<mxfile modified="2023-05-19T08:23:04.443Z" host="app.diagrams.net" agent="Mozilla/5.0 (Windows NT 10.0; Win64; x64) AppleWebKit/537.36 (KHTML, like Gecko) Chrome/113.0.0.0 Safari/537.36" etag="Aa8tFZ7qnRClTeQ2eSGu" version="21.3.2" type="github">
  <diagram id="Ht1M8jgEwFfnCIfOTk4-" name="Page-1">
    <mxGraphModel dx="794" dy="1567" grid="1" gridSize="10" guides="1" tooltips="1" connect="1" arrows="1" fold="1" page="1" pageScale="1" pageWidth="1169" pageHeight="827" math="0" shadow="0">
      <root>
        <object label="" id="0">
          <mxCell />
        </object>
        <mxCell id="1" parent="0" />
        <mxCell id="JiVCPCvDYgoVMj1UgqHU-2" value="&lt;font style=&quot;font-size: 18px;&quot;&gt;&lt;b&gt;&lt;i&gt;Observability &lt;/i&gt;&lt;/b&gt;is gaining insight into the workings of the environment as a whole. &lt;b&gt;&lt;i&gt;Monitoring &lt;/i&gt;&lt;/b&gt;is observing individual metrics or data points, such as cpu_time_active or memory available.&lt;/font&gt;" style="text;strokeColor=none;align=left;fillColor=none;html=1;verticalAlign=middle;whiteSpace=wrap;rounded=0;" vertex="1" parent="1">
          <mxGeometry x="230.5" y="-700" width="380" height="170" as="geometry" />
        </mxCell>
        <mxCell id="JiVCPCvDYgoVMj1UgqHU-3" value="&lt;font style=&quot;font-size: 24px;&quot;&gt;&lt;b&gt;&lt;u&gt;Observability and Monitoring&lt;/u&gt;&lt;/b&gt;&lt;/font&gt;" style="text;strokeColor=none;align=center;fillColor=none;html=1;verticalAlign=middle;whiteSpace=wrap;rounded=0;" vertex="1" parent="1">
          <mxGeometry x="200" y="-720" width="390" height="30" as="geometry" />
        </mxCell>
        <mxCell id="JiVCPCvDYgoVMj1UgqHU-5" value="" style="shape=image;verticalLabelPosition=bottom;labelBackgroundColor=default;verticalAlign=top;aspect=fixed;imageAspect=0;image=data:image/png,iVBORw0KGgoAAAANSUhEUgAABBkAAAL1CAIAAAANS6tmAAAACXBIWXMAAA7EAAAOxAGVKw4bAAAgAElEQVR4nOzd6ZMc93kn+MzKo+486j76wH2DJEDwNEmJokTRkizLtqTVjHdn1uHw7EY4Yl9sbEzE7h8wsTFvNmJjYvzKO/Z4POORJUuWKFEHKZESIRECiftuAH3VfeVVV977IolSC91VaBS7utGN7+dVR3d2VwJdXZVP/r6/5yFd1yUAAAAAAAAekm+rTwAAAAAAALYl1BIAAAAAADAO1BIAAAAAADAO1BIAAAAAADAO1BIAAAAAADAO1BIAAAAAADAO1BIAAAAAADAO1BIAAAAAADAO1BIAAAAAADAO1BIAAAAAADAO1BIAAAAAADAO1BIAAAAAADAO1BIAAAAAADAO1BIAAAAAADAO1BIAAAAAADAO1BIAAAAAADAO1BIAAAAAADAO1BIAAAAAADAO1BIAAAAAADAO1BIAAAAAADAO1BIAAAAAADAO1BIAAAAAADAO1BIAAAAAADAO1BIAAAAAADAO1BIAAAAAADAO1BIAAAAAADAO1BIAAAAAADAO1BIAAAAAADAO1BIAAAAAADAO1BIAAAAAADAO1BIAAAAAADAO1BIAAAAAADAO1BIAAAAAADAO1BIAAAAAADAO1BIAAAAAADAO1BIAAAAAADAO1BIAAAAAADAO1BIAAAAAADAO1BIAAAAAADAO1BIAAAAAADAO1BIAAAAAADAO1BIAAAAAADAO1BIAAAAAADAO1BIAAAAAADAO1BIAAAAAADAO1BIAAAAAADAO1BIAAAAAADAO1BIAAAAAADAO1BIAAAAAADAO1BIAAAAAADAO1BIAAAAAADAO1BIAAAAAADAO1BIAAAAAADAO1BIAAAAAADAO1BIAAAAAADAO1BIAAAAAADAO1BIAAAAAADAO1BIAAAAAADAO1BIAAAAAADAO1BIAAAAAADAO1BIAAAAAADAO1BIAAAAAADAO1BIAAAAAADAO1BIAAAAAADAO1BIAAAAAADAO1BIAAAAAADAO1BIAAAAAADAO1BIAAAAAADAO1BIAAAAAADAO1BIAAAAAADAO1BIAAAAAADAOeqtPAAAAtg2t3ZY0rdvrcZGIyHHBQGCrzwgAALYSagkAAHgA13VLtVqxUlHabd0wHMehKcrPsnGen8rlEqK41ScIAABbg3Rdd6vPAQAAHjmO41i23en1ipXKcrlsmOawI8PB4EwuN53N0jRN0zS5mWcJAABbCrUEAAD8jm6vJ6lqS5ZbiqK2247jrOe7fBQV47iYIMR4XuQ4lmUnfZ4AALDlUEsAAABBEITrug1JKlYqDUkyTNO0rDF+CEkQDMMEAoGkKE5lMgLHbfh5AgDAowO1BADA48t1XcuyerpeqdeXy+V2tzvsSJIkaZpmaXo6m+Wi0XqrVa3XDdO0bHvEzxc5bjqXyyaTNEVRFEWSCEABAOwoqCUAAB5HhmFIqtqQJElR1HZ7xCqEn2VjPC/yfEwQRI7z+T5uJm6aZktVW5IkqaqkKCOKCpamRUGI8XyM53mOY2i0/QAA2CFQSwAAPF4UTSuUy9VmUzcM07JGvAuIPJ9Pp5OxWMDvZ2h6zVUF13UN0+z2+7VGo1CpjFjZ8Pl8DEWFgsFMMplPp8Oh0Mb8ewAAYOuglgAA2Pksy9JNs9ZsLpfLkqIMO4wkSYqiGJrOJpPTuZwQjT7UoziO05TlQqVSbTRs2x4df0rGYtPZbDIWY2iaoqiHeiAAAHhEoJYAANixbNuWVLUpSS1FUTRNN4xhR7IMw0ejIs/HBUHk+U8YQ+rruve4kqIommYP7wQV8PtFjosLgigIXCRCo6gAANhWUEsAAOxAvX5/uVIpViq6YRimOeKlPhwKTaXT6UQiFAwyND3YDvHJOa5rGEa7263U66VardfvDzvS5/OxDBMKBvPpdD6d9qOfLADANoFaAgBgh7Bt27SspiwvlUr1ZnPYiztJED6KYmg6Loqz+XxyU6ZWW7ZdazaXymVZUSzbtkfGnzKp1K5cTuA4r/vTJpweAACMB7UEAMD25rquomktWW7KsqxpvX5/2As7RVF8JDLoyBQMBDb5VAmCaHe7kqK0FEVSFK3TGTEILxwMeqca43kuEkE/WQCARxBqCQCA7Uo3jFKtVqxUuv2+ruvO8NdzlmHy6fRUNhsKBFiG2cAg03hs29ZNU2u3S9VqtdHQTXPYkZTPx7JsOBiczmanMpktP3MAAFgJtQQAwHbiOI5pWYqmLZdKlUZjRK8kn8/HMAwXiczm8/lUajNP8qGYllWqVpdKpXa3a9n2iJUKgiBmcrnZfD4SClEURaGuAADYaqglAAC2B7XdlhSlKcuSqna63WGv3iRJRsPhGM/HBUHg+cj2GeOgdTotWfbiT+3h/0CCILhwOCYIXlIrEg5v5kkCAMBKqCUAAB5ppmVVG41Ctappmm4YI/qr+ny+XCo1lclwkQjLMNt017Jl24ZhSIpSqtWqzeaIXdo0TfsZhotGpzKZ3CO88AIAsIOhlgAAeOQ4jmPZdrvTKdZqXl/XYUf6fD6aosLB4EwuN53NbkL94BKEZVm2bZMkOek+S4ZpLpVKy+VyX9dHj+hmWXY6k8lnMuFgkKZpHzZqAwBsCtQSAACPkE6vJ98LMqnt9ug2R16PI1EQoqHQJmxKNkxTVtVBFyaGYT4eM8fz0XB4okWFrKpNWW7Jsqxp3V5v2GGUz8cNGlXxfGgrGlUBADxWUEsAAGw9x3EaklSoVFqKYhiGaVkjDs4kEvlMJsbzXpBpE5qlyqparFbrrVav33dcN8bzU5lMX9eL1arW6fhZNhQIZFOpXDod9PsndxqmZRmG0ZTlQqVSazZH/MMZmmZZNiYI0+l0Mh6f3CkBADzmUEsAAGwN13Ut2+73+4VqtVCpjLjd7qWJQsFgLpWazmY3YS6EF2QyTbPSaCyVSmq7zdB0KBDIpdP5TGbl/f6WoiyXy/VWyzAM13UTsdh0NhsXhEnHn7r9/mKhsFypWJZl2faI97JQIDCTy+VSqYDfT9M05lQAAGwg1BIAAJtNNwxJVZuSJKmqrKojthf7WdYLMsUEgQuHaZqe9LmNF2Ra87u8055o/Ml2HFlVm5LUUhRF0/q6PuxIhqb5aFTkee+sWIaZ0CkBADxWUEsAAGwS13VlVS1UKvVWSzcMY/iANoIgRJ6fymRS8bifYTbnbvoaQaZs1ktSMeurYRzXNU3TMM1Kvb6Z8SfXdU3L6ut6o9VaqlQUVR1xMMMwAZZNxeO5dDrG8xM6JQCAxwRqCQCACXJd13Yc0zTL9boXFhoxF4KmqADLJuPxmVyOj0Ynfm4EYdu2YRgPDDKNR9a0xWJx8+NPiqYtl8ulatWy7dHxJ4HjprPZVDzuZ1l6U3aeAADsMKglAAAmwptO7QWZJEUZsQpB07TI83GeFwVBiEY3IX6jG4aiad7kO1lVJ9qRaaviT6ZpSqrqDb+TVXXEdnaWYfhoNC4IMUEQOG6dizAAAECglgAA2HBap1OqVquNRq/f101zxMtsOBTy5qz5WZZlmE0LMtWazb6uO64bF4RBS6iJXkOPiD9lU6nJNW91XdcwzW6/X2s0vMcddiRJkizDsAyTS6enMpltNC8cAGALoZYAANgAlm1bltWQpKVSqSlJzvCXVpqmGYpKxGIzuVxCFCd9YiuDTIvFotbpbGyQaTxrxp9iPM/Q9ETjT94vqN5qmZY1Yss7QRCJWGwmm40LAsswm7DlHQBgm0ItAQAwPtu2FU3z0juSqvb6/WFHkiQp8rzIcXFRFDkuMMk5DJ4RQSYuEtmE2XYPdF/8iaYor2mVwPN8JDK5oqKv696DtmRZabdHFBUBv1/kuJggxARB5DhsqAAAuA9qCQCAcfR1vVSrlWu1drdrmOaIAdUBvz+XSuUzmWAg4GdZ39YFmbwdxpN+9IflxZAM06w2GoVKRet0WIYJB4OTjj85jmOYZqfXq9TrhUplRD9ZH0myLBtg2alsdiqT8bPshE4JAGDbQS0BALBetuNYlqVo2lKpVK7XR9QPFEXRFCVy3HQul4rHJ30F/2gGmcYja9pyqVRtNjc5/lSq1ZZLJUlVLdsesVLh8/lS8fhsPi9yHE3T1COwvAMAsIVQSwAAPIDjulq7LSlKS1UlWW53u8OOJEmSi0QGUaJQMDjpVMyjH2Qaz1bFnzq93uBB1XZ7WLlIEkQoGBQ4zuv+xEUiiD8BwOMJtQQAwFCWZVUajWKlorTbhmmOuF3N0HQmmZzKZCLhsJ9lN+F29WDs3bYIMo1nC+NPumm2O51itVqoVu3h/WQpivJOaSqTyaZSGKcNAI8b1BIAAL/DcV3Lsjq93nKptFwuWyPjLgxNR8PhqUwmk0xOOkbvjb0zDMMbe7etg0zjGRZ/oml6cuWT67rL5fJyuax1OpZl2cODbQzDZJPJqXSa5ziaorbvohAAwPqhlgAAIAiCcF232+tJqvpxex9NG3YkSZKhYDDG8zGe96JEmxNkGoxd2zFBpvGsjj+JPB8XBIHnuUhkQkWF67rtbtf7FUiKMnpORSQUEnnea9gVDYcncT4AAI8I1BIAAESt2VwslRRNMwxjxIBkmqKSsVg+kxE4bnOiRI9DkGk8K+NPxWpVbbdZhvFWaSYaf7JtWzcMWdNK1WqpVhvxHkpTFMuyfCSSS6czyeRj/vsCgJ0KtQQAPI5c1zUtyzTNpVJpqVwe0Q+UJEmGpgOBwNSmRIlGBJmmMpngYxBkGo8Xf6o1m7phuK4bF8WZXG7S8SfTsrz4U7fftyxrdF/gfDqdS6Ui4TDiTwCwk6CWAIDHS0/XFUVpKoqkKLKmjZ5TNggyCRw36es/BJk+uUH8yUtAbU78ybZtrdORVLUpSZKidIfPK/T5fB+3+RJFkeOCgQC6PwHAdodaAgAeFy1FKVQqjVZLNwzTsoa9+pEkGReEXCqVjMf9LMvQ9KRPTFKUYrWKINNG8RaddMPYzPiTSxCWZRmGIanqcrlcbzZHvLnSNB1g2RjP5zOZuChiSAUAbF+oJQBgx3Jd17Jt07JK1epSuay128OOJEmSpiiapvPp9EwuN+n9sl6QSTeMSr2+VCq1Ox0aQaaJ2ZL4U7fXW65UStVqr9+3bHvEW20oEJjOZnPpdDAQoGka6xQAsL2glgCAHcgwzUFeSFJV0zSHHckyjMBxAsclRFHk+UmvA+iGIamqrCgIMm2yLYk/Wbb92+ehouiGMexIiqL4aFTkuIQoCjwfmHB/YQCAjYJaAgB2lHa3u1wuVxuNvq4bpjniJY6PRrPJZCaZDPj9LMNMOrm+Osg0nc1uWj8o8AyLP2VTqVw6Pan4k+ualmWYZr3ZXK5UJEUZcTDLMCzDpBKJfDotchw2VADAIw61BABse7Zt66bZaLWWK5VGqzXiSJqiGJpOxmKz+bzA875JXqgNCzJNZbO5VApBpkfBb+NPpuk6TlwUp3O5+ITjT4qmLVcqlXrdMIzR8adoJLIrl8umUgxN05PftwMAMAbUEgCwXdmOszK1MqKvK03TfCQyCDJNekA1gkzbyyARJymKpKqUzyd6/bsEYXLxp9/G8GS5parWyKkmIs972SeR4zahGQAAwPqhlgCA7advGMVKpVStdvt9wzRH9PUPBQK5VCqbSoWCQZZhJn0djyDT9rVV8SfDNA3DKDcaxXJZHTlOm2GYoN+fjsfzmQwXiUzifAAAHhZqCQDYHhzHMSxLVtWlcrlcrY44kvL5aJoWeX42l0vF4xOtH7xWUYZpIsi0wyjt9lKxuMnxp6YkLZbLjVbLtKwRKxU+n0+MRqdzuXQiMdHzAQB4INQSAPCoUzTNSzG1FKXT7Q47zOfzRcNhgeOSoijwfDgYnOhZIcj0ONiS+JP31PLiT5KiOMPfpv0sG+P5mCCIPM9HoygqAGDzoZYAgEeUZdvlWq1YqaidjmGaIwZUMwyTT6Wy6XQ0FGJZdtKTv+4LMqVisVw6jSDTDjYi/pRNpSZUtXrxp26/X6pWi5VKb/h2IJ/PxzJMKBjMJpOTi2MBAKwJtQQAPEIcxzEtq93tFsrlYrVqDo95UD4fRVFcJDKVyeQzmYlexK8MMi0Wi51ul6bpUDA4lckgyPQYWhl/cmw7EYtNOv7kum6l0Vgul1uybFmWPXyDkM/nS8XjU5lMQhQpikJxCwCThloCAB4J7W53EGRqdzrDtlOTJBkOBmOCEON5L0000bNaHWSKCUKM40Se56LRibaUhUecF3+SFKUly5sTf3Jdt6frkqI0ZVlSFFXTRsSfQsGgdz4xhO4AYJJQSwDAVrJtuyFJy+WypKqGYdiOM+JFKZdK5TMZPhLxs+yk2+0jyATr4RKEaZq6YdSazUKlsjnxJ8dxdMPo9HrFSqVcq+nDx7pTPh/LspFwOJtM5lMpFuO0AWCjoZYAgM3muq5lWd1+v1itLpfLI+ZCkCRJU1TA75/J5aaz2YnOhUCQCT45pd1eLpWqjcamxZ9My6o1m0vFotJuj44/0RSVTSZn8vloOMzQNFYqAGBDoJYAgM3T13VJURqSJGuaomkjtlMH/X6vO43I80I0OtHrHi/I5M28Q5AJPrktiT91ul1JVZuSJKmq1umMGqcdDn98PjwfDYdJPMMB4BNALQEAE+e6rqQohUql1moZhmHZ9ohXnoQoTmUycVH0MwzDMBM9Me+sGpLU13XXdZMIMsHG2ZL4k7e2pmpaoVKpNZsjuhfQFMWyLBeJ5NPpTDKJJzwAjAe1BABMhOu6tm33DaNSry+XSqMH+nqXNblUajqbjYbDEz0r72KrXKstlUorg0z5TCaANDlMzLD4E0PT1GSu4/u6XqnXl8rlTrdrWtaIt3uKomZyuZlMJhQK0TSNtTgAWD/UEgCwwUzL+m2QSVWN4RtDWYb5uNWMIAjR6ES3U98XZPKzrMDzMY6LCUI0EsHFE2yO1fEngefjk4w/OY6jttuypjUlSVKUTq834mA+Gv14+B3HhUOhDT8ZANh5UEsAwIZR2+1CpVJpNHRdH1FCEAThzYVIJxIBlmUYZqKJ7TWDTCLHsQgywRZZGX8qVquKpm1G/MmyvIp6uVxuStKIXdoMTbMME+P5fCaTTiQmcTIAsGOglgCAT8SyLNOy6s3mUrnclOURR3pBpqQozuTzMZ6f3CkhyATby33xp5ggzE5NTTT+1O31CuVysVbr6/ro+JPf79+Vy01lMizLMjSNjdoAcB/UEgAwDttxJEVRNK0pSS1F0Q1j2JEURYnRqCgIcUHwtjVP7qwQZILty7Qs2Xv2qmpLljcn/iSpqqyqTVluyfKov2Kfj+e4uCCIHCfyfMDv3/CTAYBtCrUEADycbr9fqlZLtVq31zNMc8RrSDAQmEqnc5lMgGVZhploX9emLJeqVQSZYLvbkviTYZqGadZbrVK12pTlYX/Ug3kv3t9XXBAmcTIAsL2glgCAB7Nt27LtliQtV6vVRsMZnrSmKIqhaZHjZvP5iSatvSCTruuVRmOpVOr0ejRFIcgEO8zmx5+0TmepVCpVq4Zl2SPbN0fD4elcLpdKsQxDUxTiTwCPJ9QSADDUyg4wLUXpDu8AQ5Lkyg4wocncPfXohuHlQFYGmbz0BYJMsCOtGX+KcVxMFCcUf7Jtu6UoTUmSNa2lKObwVgoMwwjRaIzn44LAcxw74ZkwAPCoQS0BAGswDKNcr5dqNa3T0Q1jxEIETVHT2Ww+nQ4Fg36W3eQgUz6TEaJRBJngcXBf/ElttxmaDgUCmWQyl05PIv7kuq5pWd1+v34vcDXsSJIkWYbx4k/T2SwXiWz4yQDAowm1BAB8zHEcy7a1dnu5UinXaiOauvp8Poam+UhkKpvNp9OTqx+GBZmms9lcOo0gEzzO1HZ7yYs/GYbjODFBmMnlEqI4ofiTN71+qVyuNhqWZVm2PeLguCBMZ7PJeJxlGMrnQ/wJYAdDLQHwuHMcp9vrSaralCRJVbVOZ8TLQiQcjvF8jOdFno+Gw5O7RECQCWA9TMtSNa0py94fi48kJx1/8v42m7Isq6qsaZZlDTvS7/eL0ajI83FR5KNRLB4C7EioJQAeX7Zt15rNYqUia5puGCNuNFIUlUkkcun0JgSKEGQCeFhe/MkwjOpmxZ8cxzFMs9fvl2u1Ur3e6XaHHekjSYZhgoFALpmcymaDgcCGnwwAbCHUEgCPFy8A3ev3lyuVYqXS1/VhR/pIkqbpSCiUS6fz6fTkOsq7rutN5EWQCWBDbHL8yXGchiQtFoveLu0RE7UJgkjF4zPZbFwUGZr2If4EsP2hlgB4LLiu29f1QZBJVtXRcyG8FFOM57lIZEKtJwmC6BuGfK81jaJpCDIBbKDNjz91+30v/iQpSrvTGbHUGQoGvbF3Is8L0ehEezYAwEShlgDY4VzXbcpyoVJpSpJuGObwcLPP54sLwlQmExcEL1A0uVuGXpCp3mrphuG6bioe35wAFcDjZvPjT7Ztm5bV7nZLtVqpVtNHLH76fH6WDQUC+XQ6n82yNL3hJwMAk4ZaAmAH8tofWbZdqFSWisX28CgzQRAMwwT9/mwyOZXJRMLhCZ7SvSDTQqHQ03WaosLB4BSCTACb6HfiT64b4/mJxp9sx6nUaoulktpuW5Y1Iv5EEkQ+k5nJ5bw1k8kthwLAxkItAbCjGKbpRYZaiiIpij08Y8AyjDdXzpswNbnVgNVBJvHeSDsuEkFaGmDzefGnlqJ4LxQEQcQEIcZxIs9P6NWg3elIqtqUZUmWtW532LUHSZLhUEjkuLgoei8RG34mALCxUEsA7BCKphUqlUar1dN13TCGHUaSJB+J5DOZTDLJMsxEh9QOCzL5WRY3HQG2nNeJwTCMWqtVqFQ2If5k2bZhGFqnU6xUSvX6iJsdFEWxDMOFw1PZbDaVorChAuBRhVoCYBuzbNuyrEqjsVwqtRRlxJE0TTM0nUkkZnI5geMmdD6O69oIMgFsT2q7XahUyrXa5sSfvBDmcrns7dJ2hsefGIaZymTy6XQkFPK6P234yQDA2FBLAGw/lm0rmuYFmVqyPGJANUVR4r3OLSLHTW4VwgsyeXkJBJkAtq/Njz8pmiYpitcAqtPrDTvMR5LRSOTj+BPPT2LZBADGgFoCYDvp9vulSqXcaHR7PS84NOzIUDCYT6dzqVQwEGAZZqIdmQZNogjXTSLIBLD9bUH8ybJ005QUpVSrlWu1YYeRJEn5fH6/X4hGp7PZhCjidQZga6GWAHikua7ruK5lWU1ZXi6VKo3GiIMpimJoejCXakIJ40GQqVSrLZVKPV33LjKmstl8Ou1HkAlgxxkWf6JpehIrFbphLJVKy+Vy3zAsyxpxoRLw+734UzgUmmgbawAYBrUEwCPKcRy105HuBZm6/f6wI30+Hx+JiDwfF0WB40KBwIROCUEmgMfZ6viTyPNxnp9Q/Ml2HC/+5A2/6w+fU0FRFBeJxHg+LggCzwf9/o09EwAYAbUEwCPHsu1CuVyq1drdrm4YI7YkBvz+XCqVTSYj4TDLMJPbkrh2kInj/AyDgAHAY2Vl/KlUrcqaNtH4kzctp6/rTUkqVqsNSRp2JEmSDE2zDBMXxelsVuQ47NIG2ASoJQAeCY7jeJNiFwuFYrXqDP/DpCiKpiguEpnO5TKJBDOZSbEIMgHAenjxp2qj0ev3HdcVOW42n59c/Elrt5crlVKtZhiGZdsjrmGi4fB0NptNpfwsS9M0lk0BJgS1BMBWcgmi0+22ZNlbxNc6nWFHkiQZCYW8IJPIcdGJDahGkAkAHpZl24qqblr8ybIsWdO8yXeSqo7oZccwzCACOtFedgCPLdQSAFumVK0WKhVF0wzLsixr2GEMw6Tj8VwqJXAcO8lMUUOSitUqgkwAMJ7Njz8ZpqkbRrXR8B5uxMEsw7Asm0kkpjIZ3BYB2ECoJQA2j9eRqa/ri6XSUqk0on7w+XwURYUCgdl8PptMBiazldALMvUNo+wFmfp9hmEQZAKADTEi/kRR1IZfy0uqulQq1ZtN3TTtkfEnkeens9lUPO5nGHoyMVGAxwdqCYDN0Ov3B91IlHZ7xHbqUCAw6MgkRKMTunnWNwwvG7AyyBQXBAFBJgDYUGvGn2I8H5tM/Ek3DFlVvRdbWVUt2x52pNdBezCJD6uvAONBLQEwWfVWa7lcbimKYZrm8FAvSZLJWGwqnY4JgrdTcELnMwgy9XWdJAgEmQBgEwyLP6Xi8alsdsPjT47rmqbZ0/VStVqsVEb01CZJkmWYgN+fTSbz6XRkYlvRAHYq1BIAG8zrYKgbRrFaXSqVur3esCNJkqQpiqHp6Wx2Np8PTmYuxLAg00w+n00mEWQCgM3X7naXSqVqo9HTdcdxRI6byeWSsdiE4k/1VmuxWGwpimmatuMMu/LxkWQiFpvO5RKCwNA0bq8ArAdqCYANY5jmb4NMmmYO3w4R8Pv5aDR2r7XIhJqgI8gEAI+yTY4/9fp9L/7UUhRZVYdd/5AkGWBZURA+7kMVjWJOBcAIqCUANoCsqoVqtdZo6IZhWtboPX/5dDoZiwX9fmZi3QkRZAKA7eLj+JNp1prNTYg/2Y5jGEZf14vV6nK5PKKfrM/nYxkmHAzmM5lMMolx2gBrQi0BMA7XdR3H6et6rdVaLpe9O2rDeEGmTCo1m8tNaEHAcV3btvu6jiATAGxrmxx/8ioKWVVNyxrRFYOiqEwiMZ3NChxHUxRuygAMoJYAeDi2bUuq2pRlWVFaqmoYxrAjBzOSEqIoctyEViH6ui4piqSqLUVREWQCgB1hk+NPnW63pSjeC7vSbg87jCTJj1vtCYLI89FwGPEnANQSAOvV7fWK1WqxWu3rumGaI/52Vq6J+1l2Qhf0XpCpIUm6rpMEkUoksqkUgkwAsGOMiD/lM5lIKLSxD2fbtmGa7U6nUK0WKxV7xDKFz+f3+7lwOJtKpRMJrP3C4wy1BMAotm0bltWS5eVyudpojDjSW/VOeT1ARHHSQabFUqnf7zMMEw4Gp3M5BJkAYMdbGU4SUssAACAASURBVH+ybTvG85OLP5mWVapWl8vldrdrmqYz/GKJZZhsKjWTzUZCIZphfFgNhscMagmAtcne8rostxSlN7w3OUVR0XA4LggxQRA5bkJ9XVcHmWKCEON5geP4aHQSjwgA8Gjy4k+SojQnH39yXVdttwfD79rd7rAjSZKMhsMixyViMSEaDYdCiJjCYwK1BMDvMEyzVK0uVyrdXs8wzRFb8RiGmc5ksqlUOBj0s+yEUrPDgkwsTU9unh3AOrU7nV+dOze/vKy12wRBxGOx2VzuMy++uNXnBTufSxCmaRqm2ZSk5XJZ1jSaosLB4ITiT5ZtG4YhqWqxWq01GiPiTzRNswwjcNxUJpOKxZA4hR0PtQTAx28SsqYVK5Xq6DcJimIZxuvrmkkmJxRkMgyj2+9XG43lUsmwLD/LRkOhXDqdSSbZibWRJQhCN4xvv/XWh5cvE677R2+88fIzz0zusbYF3TBkVbUsKxQMruwx/5uLF7/55pu24yRjsf/rL/9y5bd850c/+sXZswRBHDt48M+//vUtOOlNVKnX//ubby4UCis/GfT7/92//bcP9XN0w+j0epZlWfdGslAUxTJMNBweUTDfvHv3//vHfzQMYzqb/dd/8idxURzjn7DzfHD+/Dd/8APXdQ/u2fO//umfrvO7XNfVOp12p0OSpMjzgRXNT//D3/7tnaUlgiC+8Oqrn3vppZXf1e50tE6HIAguEglv9LX7w+r0eqVqtVKvd/t907KEaDSXTqdiMZZlGZre2NdqbxRpuVZrd7ujbzn5WTaXTue8W05+P+JPsCPhviY81rROpyXLTVmWVLXT7Y4YXRQJhQZBpkg4PImT8YJMLUWRVNULMiXj8TGCTDfv3FkoFh/qoXPp9JF9+/q6Ppjf5A5/d9x2TMs6f+WKpKprfpVlGD4a3TMzI3Dcys+7rnvx2rXvv/NOt9ebymb/7GtfGxygqKpXcNq2fd9PUzTN+2D1l3YY23HOXb26XC4TBMFFIgf37ImLYrfXGzHofbW+rs/Nz1+5eXOpXO50u96FKUEQ4VBI5Ljd09OH9+3bOzu7ZgltmqbXRc12nBH1/+OmUq97f8IP9Qzs9vvffuutK7duMTT96gsvvPbii4MqTr33S7FWzWH41ltvXZubI0nyiUOHvv7FL05uYM56hIPB/bt27Z6eHsSfbs3P35qfn0T8yc+ye6anZ3O5j99BFEUaEoXVDWN+eXmhUBA5TuD5hCAIE4vCAmwV1BLwOLJsu1qvL1ermqbppjniTZckyXw6PZXNRkMhP8tOaLW6IUmFSqUpy4Mg057p6bGDTKc/+ujyzZsP9S1PHTlyYPfuh32g7cIwjF+ePVuoVNb8KuXzMQwT4/nPvfzy8YMHB79i0zRvzc978ejlcrnb691XbDzmbMu6fOOGbds+n++VZ5996Zln/Cxr2bY5fPLXfVqy/P233741P9/T9fvK+E632+l2C5XK+atXTx0//oevvz6BfwH8VrfXmy8UHMfRDePG7dsvnTq1nleeK7dueS+ed5aW6q1WLp2e/Jk+AE1RcVGMieLMivjTzfn5ScSfKIrybvRMZ7OGaXov4y1FWb1M4bqu19x2uVRiWTYuCFPpdCIWw4YK2BlQS8Djwpt16jX7qzYa+vC5EF6+IhIK5dPpfCaz4Y3MiRVBpkq9XiiXB0Gm/bOz2VSK+WQbIfZMT7dk+b5PyprW6XYJgmAZJhmL3ffVVDy+g7ukuwThvbuTJMlHoyvH6HobKzu9XqlW+4c33+zr+vMnTnhfomk6m0rRFGXZNj+x8SDbl+04tWaTIAiaovbv3u21EaMpap1/L51e7+//+Z/vLi0RBBEMBA7s3n1o7959s7OJWExSlOu3b1+8fn2hUGh3u++eOdPt9//wc58LbfT8YxhgGUaIRr2MUzIeX+ctjEwqVa5WCdcVeV7k+ZVfOn/16n/57ncdx/mLb3zjyP79kznroUiCYBnGexmfzecH8aeFYnFucXFj408kSTIMwzBM+N5jFSqVar3e03XdMO4rkk3LMi2r0+0ulUrhUCiXSuXT6YDfzzIM6grYvlBLwM7X7fclRWlKkqSqWrs9Ig4RDga9N8W4IExo0Nt9QaaA3+8FmWKCEN2g6NSnX3jh0y+8cN8nv/uTn7x35gxBEDO53F/+q3+1IQ+07fh8vs+99NKLTz89+Ixl27cXFk5/+OGVW7d0Xf/+O++kE4nd09PewU8fP+5n2W6vl0mlsChxH5IkvQqN8vlmcrmH+t6+rv/D9743KCS+/NnPnjx2bBBkEnn+xaefPnns2IVr195691213f7NxYuhYPD3P/3pie4XepxFw+Evf/az84UCTVHHDh5cZ4Ppr77xxp3FRZIk987O3pfbKddq3tNjxDTPTfPA+BMXjX7COzgrH+vg7t17pqdVTWvKcktRZFVd89ZVp9udW1i4u7wsclxcEASeFzkOrb1hO0ItATuW7TgtSVquVFqybJimeW9b55rS8fhUJiPyPMuyNEVNoopYM8gkchyDjkxbh6aoQ3v3Tmezf/X3f1+sVLq93tunT//FN77hfVXguJce+w3ok3D24sWrc3MEQVAU9T/90R8d3LNn9bJYwO9//sQJiqK++YMfWJZ17sqVp44cmc3nt+J8dz6fz7dv1659u3Y91HftmpraNTW15pe8Vq2PlNXxp0Kl4sWfgoFAJpHYwPgTQ9NxUYyLomGahmlWG43lSkXVtNVb8mzbbkhSU5YZmg74/al4PJdK3bfIA/CIwxUM7CiD7FC5VivX653hvcB9Ph/LMKFAIJtKTWUyK/uWbPjJTCLItDlc1+10u33DMO/N+fazbDQS+SS3h03Lanc6xr1tKt4vQuC4ESGrXr/f7feNe4EBiqKCgUAkFNqoXFY4FHry0KFipUIQRKFcllV1QqsQjuP0+v2+rluWNVgfoygq4PdHQqGxd+N0ut1ur2euaIIU8PvDweBD1aiO46jttm4YlmWRJEmSJMswoWBww/eJap3OxevXvV/lM8ePH963b8TBB3bvnspkFgoFtd3+zYULo2sJRdP6um7btuu6NE0H/X5ueNMCSVEMw/B+Cz6fj6KoUDAYCgTWvI/Q7nT6uq6bpvc1b0bkpmWubMfpdLve2Q42dzEM47UNGP29lm23Ox3dMCzbJgmCpulQMLjh/VJXG/Hau7VGx5+4SMRr5LpR3Z8+fqyZmb0zM4qmFSqVeqvV6/eN391W5LquV3Wo7fadpSUuHM5ns5lEgmUYrFTAo28bXM0ArIdhmh93ZFIUWdNGbKf2s6y3tB0XRW5k08mxbUKQaRPIqnr11q0rt27VGg2t0zEty0eSMUF46siRz730ErviHe7O4uKdxUWKpp84dCgZi+mGcePOnXqrZdt2OpFYuaG50Wr96ty5m3fvyqrqNfwJ+P0Cx504cuTk8eOJtdp63rhz58yFC8VKRVJV7zI3FAxmU6mnDh8+9cQTG/VGe2T//h+++y5BEJZtS4ri1RKVev3yzZuO43hnyH6yx5IU5dzVq7cXFlqy3O50vA3HJEkGA4G4IBw7cODFU6dWXuQpmnbx+vVur5dNpY7s309R1FKxWKxW250OyzBPHz/ORSKmZd24c+fX586VazUvv0f5fMFAIC6KB3bvfuW559Z51SgpyoeXLl2+ebMhSf1+3yUIhqb5aHQ6l3v62LH9u3cPqkfbti9ev97X9da9G8+mZf34F78Y/CiR55998skRj1WqVr0R8kG//8TRo6NPjI9GD+7Z47WdvTo397Uhh7Vk+erNm5du3my0Wu1ulySIUDCYTiReevbZI/v23fck8f5jz1682JLlbr9PEATLMMFAIJ9Onzh69OSxYytrVMMwzl29evH69Wq9Lmua67o0RYXD4d35/HMnThzcs2fl5ebNu3cXCgWGpp86ciQmCN1e7+bdu01Jsh1nOpst1+te09uDe/YMu51/6caNcq1GEEQ+kzl24ABBEHcWF+fm528vLrZkWTdN76+G8vkikYjIcS+eOnVk795h/VirjcaHly7dvHu33mr1dd0bppZNpV559tn9u3evvJ1hWtblGzfqrRZJkkf3789nMqN/L54L169X63WCIGbz+UN79xIEcXdpqdpsdrvdcr3uHXPx+vVqs+l9HA4Gn33qqTMXLnj/iv27du2ZmVnzJ1+/fXupVCIIYiqbPTrJ7Rb3xZ9aqjq5+BMfjfLRqGlZLVmWVLUly5KiWKveqlzXVdptZW7u9sLCx6chCNwnu4MDMFGoJWDbk1S1UC7Xmk3vvs6II0Wen0qnU4kEyzAMw0xip1u91SpWqzsgyHRtbu7MxYuNVmvlf6njug1JevfMGcMw/uiNNwafvzo39/Nf/9q7+jQt6zs//nGxUtENw3GcowcOHN63z6sl7iwufvMHP/AurQbf29f1Sr3+41/84vbi4te/9KWV5YRt278+f/7t998fNFol7i2V3F5YWC6VZFX94mc+syH/3jXvMRer1bfff98wzWwqdXDPnk9YS1y6ceNH775736WD67peH9Vyraa021/7whcGX6rW6++cPq2223tnZ3dNTf363LkPzp/31h8i4fC+Xbui4fBHly+/9d576or/H9tx2t1uu9ttSNIThw6tp5aoNRr/8OabS6XSygrctKyGJDUkaW5h4bUXX/z0888PPv+PP/yhbduDZRDLtn/03nuDb0zGYqNriUq93un1CIIQeZ5fx/rP1L3rWrXdvnHnjnfNupKqad/9yU8ardbgeeUSRKfXu7u8XGk0Xn/55U8999zgYK3TefOddy5cu7byF+G9dCiaZpjmk4cPD2oJrdP5wc9+duHatZV5d2/o8kVNu7u8/NUvfOH4wYODL124du2D8+dZhknG491e77s//WmpWu3ruuu6zz75ZEuWby8uEgQxv7y85uSHbq/3nR//WFZVgiD+9Ctf8T759unTt+bn72sNZDuOoqqKqtYaDf1Tn3rx1KnVa3SVRuPvvvOdwb4F4l6nAbXdLtfrf/LGG08cOvTb/wHD+ODChbn5ea+4XWct8dGlS1du3SII4unjx73fy/ffeadYrVqWNQjzXLh+nbh+3fuYj0afOHTo6q1bN+/eJQiiWC4PqyX+6Uc/akgSQRB/8NprE60lPIP406xl6YYx6fhTOpFIJxJ9XdcNo1KvL1cqay7jeOGoWrPprRCmY7FcJrON7kbB42M7XdwADBiG0TeMaqNRqFTUdnvYYV5OwwuhTmcy0Uhkw8/k4yBTr1dpNArlsmlZ7HYLMq1pbnExEg4fOXDgwK5dTx8/Tvl8V+fm3nr33Uq9blnW6XPn3vj0pwfpF+9ixbSsi9euff/tt03LCvj9Is+TBBHjee/GbUuW//6735VUlaHpQ/v2nTp27ODevcFA4L0zZ85evFiq1e4sLZ29ePHzr7wyuCpaLBbfevfdbq8XDgafOHTo5LFj+3btakjSB+fO/ercuV6///bp03tnZ1dfXI6heK9jrI8kf9uJyHUH0zY++VhPlmHymUw+k9mVz8/k8+lEwnGcu0tL737wwbW5Ocu2z5w//8KJE1PZ7IoHdwmCkFX17/7pnxaKxVAwGBdFyucLBoMMTRum+YszZ1RN8/l8Tx0+/OoLL0xls4Zh3F1aWiqXm7K8nuRep9v9T9/6VqVeJwiCj0ZffuaZZ596KhwM3rx79zcXLly+davd6bz5s5/x0ai3huD1+XFs23Fd7w46SZK5VGrwAx+4D3upVPL+XQLPc+v4kzx28CDl89mO47rurbt3V/+6O72ej6KeO3HiwO7de2dnI6HQby5ePP3hh0ulUrfX+/Evf3niyJFB2GmhULhy65Zl2yLHPX/y5Osvv0wQRFOWC6XS3OJiKBBYeVF+5vz5sxcvOq6bisefPn785NGjiVjs7tLS6Y8+unTjhtpu/8P3vrfnL/9ysCzw8W5j0zx/9er127dJkgz6/TFBIFyX57jDe/feXV52HOfm3buVej2TTN73D5lbWGh3OgRBxEVxUKKEg8G9MzNT2ex0JrNv1y7vReyjy5d/cfbscqnU7fd/ff78U0ePrh560+31/Azz4smTR/fv3z097ff7f/7rX5+9dKlSr6ua9uY77+TT6d8O+CNJwnuqu+76Z8sM/igGVWg2mfSaAlebTW8RJsbzgxeKuCjSNP3q88/fWVy0bHuhWJxbWNi/apPGxevXvUIi6PefOn58nSfzyZEEwdA0Q9MPjj9txK2ogN8f8Pv5aPTA7t0tRSlWq/W17oi5rqsbhm4YkqLcXFgQOW46m02Iot/vn9DWPoCHtV0vdODxZFmWrKotRWnJcktRRmynpilK5PmYIMQFgY9GJ7E6vGaQKS4IIs/vgFtHxw4c+NRzz628a/jEoUPRcPg//Of/7DiObdvnr15d2RDJc2thYd/s7KknnkjF45lkkrp3WWbZ9tlLl9R2m/L5Th479sdvvDH4jXzquedyqdR/+ta3ev3+pRs3nnvqqZggeF/6/ttvd3s9n8/3pddee/rYMa8ra0IUv/TaawLPf/fHP7Yd5/RHH21ILXH+6lXvg2gkkl51kbchnj9x4unjx1c+Fb0Nr6lE4v/9m7/xlmsu3bgxqCUGWrJMEsSXPvOZfCYznc0OKoRSteqlR2KC8MdvvOFd0bIse2jfvkMjNyGs9M7p014hEROEf/nlL++dnfU+f3jfvt3T06Gf/exXH35o2/YPf/7zmVwuLop+lv3f//zPCYLo6/r/+e//PUEQAZb9P/7Nv1n//4N2r/iPhELr3Iwh8rx3cdmUpNVfFTjujz//+WMr1geeffLJmVzu7/7pn0q1Wq/X+2/f+97/cm8d4NqtW31dJwji5LFjXiFBEERcEOKC8OSRIyt/rKQovzx71nHdSDj8L7/85dl7qaQ9MzN7Zmb+5tvfvnjtWrffP/3hh6+/8sp9p3T99u39u3Y9ffx4OpFIJRKDacdvnz5drFYJgrh0/fp9tYTjOMvlsu04JEke3rt3sIz5x2+8sXrR7Onjx6ORyN9861u9fr8uSatzMgRBpOLx//ErX8ml04PLzVdfeGHv7Ox//ed/rjYa9Vbr/Q8//MPPfW71N34SX//Sl7wP/t1//I/1ZpMgiD947bWnfjfJlkkm85nMYrHY6/cL5fLemZn7FlUu37jhfXB4374RO14mbUT8yeu8tFHxJ5IkvWdgT9dlRfG6P6matrrl4GBOhXezJiYIcZ6PRiKTaFwOsH6oJWB7aHe7xUqlUq/3dN24tw94TZFQaDqbzaZS3qa3Sdy2WR1k2jc7y0ci2y7INMLemZnV8YPd09MCx3nDK9ZcDtozPf3V3//91U1I2p3O1Vu3bMeJhEInjh69r7TbPTOTjMeXisWmJA3CJJdv3FgqlwmCmM5mn3niifv2JR/eu/c9nm9IUrVeb0jSmhst1u/clStX5ua8j48dODChXLK3Srb681wkkk0mvavk7lpRh4Df/4evv+6l51cqVqvejXAuEhmWmB+t3mxev3PH+/iFEycGhcTgcd945ZVbd+40JElS1et37rx06tQYj3If694tgPXPjx+ky1prDS8PBgKpROK+T2aSyddfeeVvvvUtgiDmFhYKlYqXlRo8bx+4JPLumTPewSePHp1dtb3h6WPHrs/NGabpPUvvs3/Xrq994QurF0KfP3Hi2z/6EUEQc4uLnzaMlak5RdPml5dd1w0Fg/t37x7U4cN2eO+dmQn4/b1+3xzyehgJhVZHlWZyuScPH/7JL39JEMRvLl7c8FpiPaKRyKE9e5bLZcu2b969e+qJJ1befClUKvOFAkEQDE3/3kY83z6hNeNPtxYWvPhTKh6fzmY3Kv4U9PuDqVQ6kTBMs9Ptluv1UrXa0/XVR/Z1vVyrVRsNP8N4+8emMhns0oatskOue2BHMk1Tv9e5b81hogMMTfv9/kQsNp1OD+5qb6BhQaYDu3ZlksntG2Qaw+Cafs0ghJ9l17zT3Nf1WqtFEIQoCAf37Lnvq95IWoIgzBUx67mFBe83fnT//tUNjrzuTwRBGN5u1PXVEq7ryqpaqlYHn9EN4/2zZ6/cumWYps/n2zMz84VXX13Pj9pY1MiGVJTPx6914XvswAFvlN5yqXTpxo0j+/c/7O1JSVW9y+VoOHxfIeEJBQIz+XxDkhzHKVWrjuNs4EzDMX7UiBeB1Z48fFjgeVlRbMeZm5/3aol0Mnnt9m2CIK7NzR3aty8Vjw/79ht37ngn+canPrX6qwG/n6ZpwzT1tS71An5/cK0aYN+uXSLPS4pSbzbL9frKtlSKptUaDYIgUvG4N+FkNIqixrtN8uLJk2+fPu04TrfX+/Dy5c0MEXl8Pt/BvXs/uHBB0bTlclnRtEEt4brucqnkbR6YzecTq6ZqbpVh8aelUunO0hIXieTT6XQ8viHxJ5/P58Wf4qJ4aO/ehiQVKxVJUbxmXCuPdBynp+s9XW/K8tW5uVQ8PpXNihzHMgziT7CZHqNrINgubNtW221volBLlvtrvVV7SJIUOC4uCDGeFzhuw5tXEjs9yLRpWoriXXL1+/2VPX8GGq3WfZ9p3hvd7e3Mvu+rvX5f63Qe9jQcx/np++//9P33V3+JoqhjBw5sSSExNpqmd09P315cNC3r22+9tVQs7p6e3r9r1/r3iPd13Uu3h0OhNTdXkD7fVCZz7soV13XrzabW6TywCen69fv9h/2Wh10yinGcrCgEQQyeLccOHvzo8mW13b69tPRfvvvdU8eP75udzaXT931jp9tVVJUgCJqifvarX61eb2xKkjmy08OaBI6bnZqSVbXT6xXK5elcbhB/un77drvbJQji4J49E31t4TmOi0a9/5bWWpmxTTCVyUxlMoqmdXu9jy5fHmyv7+v6rfl5wzQpijq4Z88m9K4dzyD+pLbbLUlqqeqdxcW5hYUNjz/RFJVJJNLxeKfXk1W1KUmypqnt9uqi2nXdaqNRbTTCoZB3Dt6b1AYW/wDDoJaAR0hP18u1WrlWa3e7hmE4w4NMfpb13o0Cfj/LMJN4uXwcgkybZrlU8j6ot1ore/6MMEjVn7u3k2FCQsFgNpl8/uTJw/v2hSZQjt7n0o0bl65f9+Ynkj4fFw6nEgl5RSOm9aMp6jMvvOC1Qlbb7Z9/8MEHFy5kk8mTx469cPLken6CruvenU4/y655me4jycH1nGlZ1siBj+vkv1e0jO66ttIg+hV7yBleg1eGwbXXTC738jPP/ODnP7dte7lUKlerfDS6a3r6xaef3rNiNaDaaHivP4Zpvn369EM96AgBv//Ivn1XbtywLOva7dvPPvWU796LyeWbNwmCoCnq5VXjEfu6fv7q1bmFBW/hgiCITCol8vya6Zf1oO/9t4zonT1RDMO89Mwz3rzCi1evDqJW3V5vuVx2XTcUCMzkco/4dTBNUTGeF3l+0vEnkiQjoVAkFMqlUn3D0DqdSq1WrtX0tf6COt1up9st12osy0ZCoalMJpdOY0MFTBQuiWCLWZalm6a32O1NJBh2JE1RLMvGOC6fyaTi8Q1/m1kZZFoulSzbfmyDTBtu8Gv9uK3NEKEVm3EHF3/JeJwd/p+fSiSS6w5CUBT1x5///Oot45ujJcvff/vtSzdv3ndP0YvcjIEkyUP79v3Fv/gX737wwa35ea3d7nS7txcXby8u/vLs2c+//PLRgwcfeA3xyftTPaxB76CGJK1nLKCu64Naa0QkaZ1oivrsSy8lRPGDCxeK1Wqn223KclOWP7p8+Zknnvjs7/1eMh4nSXLwjKUoKh2Pj4iLPOys6CP79nHRaEuW5wuFXr/PRCIEQVydm/OaYp04duy+rS+NVutvv/3twr0+Y57iipzeNnVo7958JlOsVCRNu3Dt2lNHjhAEcXdpyds4NJ3NHlgVhnw0bXL8KRQIhAKBdDx+ZP/+ar1erNVUTdPvjf4csB2n1+/3+v16q3Xxxo1cKjWVyUTDYT/Ljj0TE2AYXB7B1nAcp93pSKralKSWqo4ekspFIiLPJwRB5Pnx9piO5nXP8PpjaO12wO9PJRIIMm2gwbvX7pmZv/jGN9bzLYNa8Suvv35k3V2JHll9Xf/vb755a36eIAg/y+6dmcmm0wxNd7rderNZqFTa484JTicSX//iF+ut1tz8/M35+fmlpXa3W67Vvv2jHzmuO3oYnM/nI0nSdd0NaHm7bnumpz84f9627Xan0+31HlhLeBMMCIIgSfKJw4c35ByeOnr0yIEDi4XCQqFw+datSq1mWtaHly7Vm81//dWvChxHUZTXIzXo9/9vf/ZnG7irNRwKPfvkkz96771er/fR5cuvvvACQRBnLlwgCMLPsoM5Hp5StfrX3/ym1+2Aj0b3zMykEwmCIGRFqUvSYqGwZgen7eKlU6e+9cMf2o7z0ZUrXi1x+tw570sb9YvefJsWf2JoeiqbncpmtU7HW5yUVbXd7a7+U3Ycp1CpFCqVaCQS47iYIMQE4ZHNj8F2hFoCNptpWdVGo1itKppmGMbqtncDDE1nk8l8JhMNh1mGmcTdFC/I1JAkwzBIgkgnk/t37eIjEYZhsCi8gfbt2kW89x6xIrn0QDzHLZfLBEEsl0o7oJa4Njc3Nz9PEATl833tC184tG9f0O/3+XyWZfV1/b9973tjr04QBEGSZCoeT8XjJ44dq9br3//Zz+aXlrRO570zZ0bXEn6W9eZU9Pv9NfcQO47TuLdxJeD3b8gltcDz0XDYa+6saNrqvQr3mV9a8j5IxmLZFYMs1mPQFiy8aic0yzD7d+/ev3v3s089dePOne/++Md9w1gsld7/8MMvfeYzU9ksRVGmZXV6vYfa8L0erzz77C/Pnu10u7+5dOnVF16QFOXO4iJBEPl0Ovm7XQSu3rrlbWxIxmL/81e/GhMEb1uLYZp9Xf9//vqv5bUaWz3QYKfKFnZcJQjiwO7dCVGsNpuFcnmxWPSzbKFcJghChdxsGwAAIABJREFU5PkHDkR/xD0w/jS1cVPnouFwNBzOp9OGaUqqWqxW663WmnFErd3W2u1CtepnWT4anUqnH/jXB7AeqCVgMziOoxtGp9dbKpUqjcaIPYsURbEMw0UiuVQqk0xueHfOYUGm/O7dCDJNTjQcjoTD7U5HVtU1p1Otlk0mr9y8SRDEjTt3Pr+qf/+2s1QqeXcLd09PP72icw5N0xGa3qgnXigQ2D09/T988Yv/91/9FUEQhbXala7kbbk2TLPT6625l912HO+HkASRS6XW38V1hKl0ejqblVXVsqx3P/hg/65dIzYglWu1ucVFgiBIkjx57NhDPZBuGIMd/CPCUXw0+txTT6nt9g9//nNvHB7xmc+wDJNOJhcLBdd1f/KLX/zh668/1EOPFgwEnjx06FfnzlVqtTtLS16LHoqinnnySWbFK563ecDbtnHy2LFsKjWIWnkNr31jNeoplMvtXo8gCB9Jrtm8a2ON2PYWCYf379lTa7U63e5isdiSJNu2SZJ84tChCfVl3mQj4k+3Fxf5aDSfTqficf9GxJ9omqZpOhQM5tNp3TBKtVqpWu30erph3D803ba7vV631yvXauyNG/l0OpdKhb0bdo/2BhV4ZOHKCSbIdd1ur+cFmSRVVUZuMA0HgyLPx0UxxvORUGjDt0MgyLSFAn5/OpFodzq9fn9ufn7P9PQDV5meOHz4nV/9ynGcYqVyd2lp9bCLLTTi2nfY83Zwg3wT1rvS94YtPDC2lEkmk7GY2m53e72rt26tnvrXaLWWikWCICiKWj1Ebzwsy75w8uS1uTnbceYWFn56+vSrzz8/bET3+2fPej2+kvH4fbPkHui9M2e6vR5BEALH7XnQRTN370VgcO17dP/+xUKBIIhLN2++8txzq6emfBJPHjly/urVnq5fuHbNdV3HceKCcN//sGlZgy52oUBgo1p8vnfmjPfBTC63evb2auNVLAOrW7QNsAxzdP/+C1evtrvdyzdvSrJMEEQoGNzuixLDrIw/SbLcVJQ7i4u35udjgiBynMjzAsdtyG0FP8vunpralc8rmtZSFO/9t7dW2zTDNOcLhYVikY9GYzwfE4SVc8oB1gm1BEyE67q1ZrMwpCv2ShRFJURxKpOJ8TzLMJNokYQg05aLhEJH9u2bX162bPtX585lkskH3mOeymT2TE3dXloyLesff/jDb/zBH6xsxr+1BiMyev3+9du3D6+IYCXv3f8u12rFSmUwLEy4FybxhkyvdOnGjbv3Yjwb4qMrV7wP0qsmuN0nGAgcPXDgztISQRBnL13KplIrN6a3O51/fOstbyNHJpk8umpY3tgO7tnz2osv/uT9913X/dnp071+//c/9an7rmDanc733nnn4rVr3sX9iydPpoZsspdV9fLNm6+9+OLKT968e/fnv/619/GLJ08+8H7Bjbt3vQ+m713Qv3Tq1PsffqhqWkuWv/fTn37l85/fwH643jzsxWLx8o0bAb/fdd09MzPZ372yj4bDiVhsbmGBIIg7S0u/d+rUoALv6/qZCxe85YVhqs3m+atXnzx8eGV9e/HaNa97EuXzeVs1HkjkuGqjQRDEQqGgdTrrvPOSjMW8udcXrl+fzef3795dbzbrknRwz56Vl8t7Z2dTsVi7211YXvbyro/UWIlJ8OJPMZ6fsSzdMFqyvFwuTyL+5PVMFzhuOpv1clbFSqUhy6s3VHiDd2RVXS6X/Swb43mvwcknPwd4TKCWgA3jxYd0w1gul4vV6oi5EN6gsUgolE0ms+l0cMgtyfHPxHG8EWYIMj0ifD7f08ePX7l1a2F5udPt/t13vnPmwoUnDh2ayecpn69Sr1/9/9m77/g47jp//J+Z2d53pZVWvVmWJVmucYlb4sRxeoEUQggkgQAX4LjjjnLH775Hjju444DQjuMglBAgCZCQXnDc4t4tWcWSrF5Xu9red8rn98faimIV22NJq/J6PvRIrNnR7mdVduc18/68P+fO9Q0OqpXKxx54YOQE8EfuvPMXL7ww7PU63e5fPP98dXl5RWlpqmK+vqWld2Cgd2CgtKjokXvvneGnYzQYcrKyBl2uWCLxi+efJ4Rs27Tp9q1bCSEbVq/ef/x4LB73B4Pfe/ppQsinHnhgaUVFZXn57iNHksmkPxT60W9+s3nNGofd3tDa2nTuXO/goLwI/fzrr9c1NRXk5BTn52fb7blZWYIonm5oOF5fTwhRcNzlnN/deu213f39Da2tiWTypXfeaevqWrtihV6na2lvP9XQMOh2E0LMRuNH7rhjCucfsyx769atwUjkVENDkuf3HzvW0t5eUVpaVlRkt9m8fn9ze3t9S0tqHT2NWn3r9ddvWbt2ontLJBJv7dlzqqGhurx8UXGxQac7Vld3sqEhnkgwDLOkrOymzZtHdv72T3/KC0JxQUFuVlZRXp5Bp/OHQgdPnDjb1kYIMer1161bl9pTq9HcvHnzG7t3x+Lx2rNn+5zOZZWVi4uLU6tZH62t7XM6+wYHt2/adOOmTVf6HTAbjdWLF6dWaguEQhzLLq+svOhiHcuyhbm5x+rqRFFsbG194fXXr6mpYTmusbW1paPD5fFMfsUgGov94ZVXdh86tKKqqqSgQKNW7z50qKmtLRaPsyy7aunSijGXocZVs2TJue5uURRbu7r+9amnOI773te/fsmvWrNsWUdPT2p55v977rnURqNe/4+f/vToSKZUKFYtW9Z5YRK5QqGoXrx47OSWeWmk/KkwNzcSi6X6oU9H+dPoOqtYPN7ndKbeoJNjVkznBYEXhHA02jM4qFOr83JyHJmZOq12mhqvw7yBgyqYAolk0hsIeP1+XyDgCwYnmaqoUalGCplMRuOUV2emCpk8fr8vGEQh02gjV2AmiVJKhUKn1RJCGIYhExymjBy+jF7WV6lUsgwjUcqx7ESVGGaj8aN33vnm3r3NbW2JZLK1szPV1GgEwzDF+fmj37FsFss9N920Y//+7v7+aCx2/MyZ42fOXHS3l3PYwTJM6mCdmfTpjzXyfVAoFKMHptNorlu3bvehQ8Ner0SpTqsdWZdap9XeuGHD4VOnPH4/wzB6nS4VlQtzc2+49tr9x45FYrGuvr6uvr7U/iqlsiQ/v6ai4rVduyRJYkcdTSov9BtgGIYZ7y/FbrWKophqAnvRTQqOW7t8+WWuMvHhW26xmEzH6+qi8fjppqbTTU2jvwP5Dsf2LVvGFjhRSs//0OVe3LvjxhuzMzOP19UNut0uj8fl8ew/fvyifYry8jasXr12+fKxX84pFAqFQhCEJYsWKRWK+ubmgaGhixYiXFJWNrJ2QYrZaGzv6altbKwds25JhsWyffPm0adjV9fUJHl+79GjgWBw2OfbfejQ7kOHPjAGllWPOhWiUipTfbEu58CrpqLi4MmTqRXx8rOzq8rLx+5TVV6+rLOz7uxZUZJO1NefqK9Pbdeo1Surq2PxeNO5cyzLjj4iNBuNqTGsrKqKRKOtnZ0X9ZNlGWb5kiU3bd48OhwyF8rzWJblPvg3sqKqqqe/v+HcuUg0quC40bVeIz/6sSVqlYsW3bxly9HaWo/PxwsCIUSv0+VkZY2Nzauqq3cdPOgLBAghRr2+eNZcfpxJeq12UVFRcX7+dJc/aTWa8uLissJCXyDgDQa9Pp8vGBypwBwtmkic6+rq7OuzmExWkyk1lXwKTyjAfMLMfHNxmE98gUDv4KDH54slEoIoTvTrxLKs1WTKTZ1oUSqV0zCvzu319jmdHr9/pJApNzsbhUwjguFwOBIhhGgmXuGBUhoIhSKxGCHEbDSO2zTQNTycOoNoMZl0F47jQ+FwMBxmGEar0ZhNpklOl0ZjsfaeniOnTzvdbn8wKEkSy7Img8GRmVlcUHBNTY3FbB6dMCVJCkUipxsb61ta3MPDoWiUEKLguEybLSsjo6aiYnFpqenCcfxEJEk6vzYcw1zR+uipywuUUpVSabVYRg9MEIRAKJR6D+Y4zmw0akYtwRYMhVILsSk4zma1pn4Dkzzf2tHx3tGjnX19oijqdbocu33dypWLS0r0Wm2qjESv042ctU3yvC8QSM1GzbRax/7VxBOJ9p6e2oaG7oGBwIVH1Gm1RXl5m6+5pqSwcKJJCGMlksm+wcH9x4939fUFw2FKqUatdtjtyysrl1dWmo3GsQfHlNLUkggsy15O2f24JEkKhEJn29rONDd7A4FUVQwhxGa15mVlrV2+vCA3d6K1e89PrabUaDBwLNvZ27v/+PHewcFoLKZQKOw22+qlS9euWHHRSQRfINDY2nqmudnt9QZDoVQAtprNJQUF2zdvtpjNF71cCILgCwYPnzzZ2tXlGh5OHRbrNBqbxZKXnb3hmmsyrdaRP4RgOByKRBhCdFpt6ph+8qfv8nhS/XYm+auMxmK1TU2HTp4ccLkIIQa9vrSgYOPq1XkOhyAIqQq07MzMkcP6WDyeOi63mEyiJDW3tx85dWrQ7Y7F40qlssDhWF5VtXrMKhaSJKXqUQkhZpPpoogei8eD4bAoioRh1CpVxoWhegOBVEuo0b+373/rRDEYDicSidT7AsdxGpXKNN635afPPpvKw9fU1Hz0rrtwCpwfVf7kCwano/tTSqoh2LDX2zs4OMmKmQzDKBUKtUplz8jIdzisl+rjDAsNsgRcGUppkucTyaTT7e4fGgpO3OKTYRiVUqlVq7MyM6f8FZCMKmQadLv7BgffL2RyOHKyspAfAABmvyTPP/mDH8QSCZZlH7333polS9I9otllpPwpGo8ned5kMOQ7HFNV/jSCUhqKRAaGhgZcriTPjy1/Gs1gMBQ6HHabTafRKJXKqeoKAHMXsgRcriTPB0Ihr9/vDQR8gQA/XvvqFAXHpdpB2CwW65jzfFfvokImrUZjMZlQyAQAMOecbmx89i9/IYTkZWV9+bOfTfdwZqnURR7fhfdfUZKsJlPqHdZsNE5hC11eEHyBQOqNfuRq57hUSqXFZDr/Rm8yTUffFJgr8LOHS4tEoz2Dg26PJ3VeZJL8aTQYChyOrIwMjVqtmobTFWMLmdCRCQBg7jp9oe3Y6vFmxUDK2O5P07T4nVKhyMrIyLTZeJ6PxeMur7d3YCBVSneRJM+7PJ5hr1epVKqUytzs7LysLOOlKk5hXsJ1CRgHpVQQxUQiMXyhi9wkO6dWTcrKyMhzOKwm09Tmh5FCpgGXq9/pRCETAMCcRikVRZHjuCTP1zY1vfruu7F43J6R8dmHHsqYYNIIjGvGyp+8gUC/0+n2+RKTTowkhNjM5oKcnNQC7fNjwUG4HMgS8AGiKAbCYa/f7/H7/YFAfLz2DikKjjMbjRaTKdNqtZjNmqlu7xCNxwPBIAqZAADmk1Aksv/YMUJIKBw+294eCIUUCsX169dv37wZDbtlmLHyp1g8HgiFPH6/LxAIhEKTLBulUaksZnOG2Wy1WGxmMyZUzHvIEnBeIplMtZ2OxeNJnp+kr6tOq83Nysqx26ep7fTQ8PCAy4WOTAAA84/b4/mfZ58d3bdjZVXV/bffjuWWrxI/qvzJGwiMlD/lZWdfstnd5ZMkKbUGxaDLNTA0FJtkISmGUalUaqWyIDc3z+GY8hOOMHsgSyxogigmkslAMNg7OOgcHp5kT6VCoVIqrWZzvsORabXK7ig/rlQhUzgadbrd/U6nIEkqpRKFTAAA808sHt937FhTW5soCDqdbnFx8bYrX+wPJjdZ+ZNCMYUXCoY8nj6n0+f3J3hemLgjC2GY7IyMvOxsm9msVqkwUXueQZZYiFLd3zx+v9fv9weD406rSmFZ1qjXW02mDKvVajZP+XKk0XjcFwikVrhDIRMAAMBUGbf8yWo22yyWqS1/Sr2Vp8qfguHw5HUN1gvv8hasUzFfIEssLBKl/U5n7+BgJBpNJJPixH/wKqUyx27PycoyGQxqlWoGCplS12FRyAQAADCFRpc/+YJBjmW1Go3dZst3OKa2/CmRTIaj0YGhob6hoUkuU7Asq1YqdVptvsORl509HcvXwkxClpj/RFFM8nwoEukbHOx3uSY5YcBxnFqpNBoMednZU15cNFEhU35OjsNuR34AAACYbtF4fGBoaHT5U152dnZm5pSXP/U6nQNOZzASSSaTk0zUVnBcqg+kxWRS4WTi3IQsMZ+Fo9FAMDjs9/v8/mAkMtHPmmEYvU5nMRozrVabxTLlxUWjC5kCwWDqYkjqQicKmQAAAGZYqvzJ6/enjvJVSuU0lT+FIpHzS9wGg+FJj0OMen2qyNlmsRh0uqkaAMwAZIl5iFI6NDzcPzTkCwSSPD9JN2iOYeyZmfkOh9Vsno7zAfFEoq2nx+l2J5PJSdbJBgAAgPRiGEalVOo0msLc3OL8/Cm8Z1EUEzwfDIV6nc6BoaFJ9lRwnEqlSl0tcWRmYpb2nIAsMU+IksTz/Pk2bS5XfJI2bSyrVio1Gk2Bw5Gfk4N+3gAAADAzBEHoHxrqczoj0WhSEMSJy5/UanWO3Z5jtxv1epVSObUNJGEKIUvMefFEwhcIeAMBr98fDIcnqUpMdUmyms2ZVqvFaMTyMQAAADDzJEkKhsO+YDC1MG4kFptoT5ZlTQbDSI/HKe8nCVcPWWIO8/h8fUNDw15vkud5QZjkR5lpteZmZ2darRq1WqFQIEMAAABAelFCBEFIJpPeQKDP6XR5PJPsrFAoVEplpsWSOp7BZYrZA1liLqGUJnk+Go+7hocHXK7R64ZehGVZlUKRuj6Yn5ODHA8AAACzWTyR6B8aGhgaisbjyWRSmvgAVavV5tntDrtdr9OpVSrUWaQXssTcwAvCSCGTPxTieX6iPVOrU9vMZpvFYjEaMW8JAAAA5gpeEILhsC8QSDWASiSTE+3JcZzZYLBZLDaLxWoyadTqmRwnjECWmO1C4XCf0znodid5Psnzk/y8TAZDfk5Ols2m1Wimtks0AAAAwIyhlPKCkOR5t9fbNzjoDQQm2VmlVKqUyqzMzLzsbKvJhOOfGYYsMRsleT6eSHh8vh6n0z/x3w/DMEqFQq1SZdlseTk5VixHDwAAAPNOOBLpdTrdHk8kFpt8gqhRr893OLIzMzVqtUqpRK6YAcgSlzbs83l8vhl7OEpIIBj0h0KT9HVNYVnWpNdbcF0PAAAA5rskz/tDoWA4LFxqxSqlQmE1m6fpGoXDbjcbjVN+t3MXssSlNbe3t3R2pnsUAAAAAJBmy5csmdq1/OY6Nt0DAAAAAACAOQlZAgAAAAAA5ECWAAAAAAAAObD4wBW7e9u2dA8BAAAAAGbIqzt3pnsIsxeuSwAAAAAAgBzIEgAAAAAAIAeyBAAAAAAAyIEsAQAAAAAAciBLAAAAAACAHMgSAAAAAAAgB7IEAAAAAADIgSwBAAAAAAByIEsAAAAAAIAcyBIAAAAAACAHsgQAAAAAAMiBLAEAAAAAAHIgSwAAAAAAgBzIEgAAAAAAIAeyBAAAAAAAyIEsAQAAAAAAciBLAAAAAACAHIp0D2DuCYbD6R4CAAAAAED6IUtcsT1HjqR7CAAAAAAA6YcsMbs0dPiONLjTPYr55vG7Fqd7CACX672mlleOnUr3KOaVHzz60XQPAeBy8Qnh3f87ke5RzCvLbirLr7KnexTzGbLE7BKNCy5fPN2jAIC0CUZjne7hdI8CANKDStQ/iFLqqZSM8ekewjyHudcAAAAAACAHrktcWklBQW529sw8li9Sv/P44Mw81sKxdf36dA8B4HKdHfYRsj/do5hX8AoAc0g0HH+RvJfuUcwrS8rKNq5fPoV3qNVopvDe5gFkiUtTq1RqlWpmHkujUY/8+3+/fv/qyoKZedz5Z93Hnxr5t8lgSONIAK6IVv3+u9Se//6P65fXpHEwc9ej3/vRb9/dnfo3XgFgDlGMOjC79aMbH/3HO9M4mLnr+N7G7335d6l/6zQavAhMK9Q4AQAAAACAHMgSAAAAAAAgB7IEAAAAAADIgSwBAAAAAAByYO717PXtX76r1SjTPQoASJvHf/g/Bo023aOYk3rcWPQT5rwDb9c2nexI9yjmpGgYS3XNHGSJ2avP5U/3EAAgndoHnOkeAgCkTcgfCfkj6R4FwCWgxgkAAAAAAORAlgAAAAAAAFkozDXPv3Ny7cPfT32cPNs7yZ6hSPzffv7O5Pc2k/tQSqdkn5Gnv/bh71/y3gDmnx/+5TWy/a7Ux966+kn29IfDj373h5Pf21TtQymdqn3uefJbk+8w8vTJ9rsueW8A80wkFHtg9ddSHz/9xp8m2fPJz/z8kvf23X/87ZTsQyl9YPXXZmCfY3saR57+3tdPXM7AYFrhugQAAAAAAMiBLAEAAAAAAHIgSwAAAAAAgBzIEgAAAAAAIAeyBAAAAAAAyIEsAQAAAAAAciBLAAAAAACAHMgSAAAAAAAgB7IEAAAAAADIgSwBAAAAAAByIEsAAAAAAIAcyBIAAAAAACAHsgQAAAAAAMiBLAEAAAAAAHIgSwAAAAAAgBzIEgAAAAAAIAeyBAAAAAAAyIEsAQAAAAAAciBLAAAAAACAHMgSAAAAAAAgB7IEAAAAAADIgSwBAAAAAAByIEsAAAAAAIAcyBIAAAAAACAHsgQAAAAAAMiBLAEAAAAAAHIgSwAAAAAAgBzIEgAAAAAAIAeyBAAAAAAAyIEsAQAAAAAAciBLAAAAAACAHMgSAAAAAAAgB7IEAAAAAADIgSwBAAAAAAByIEsAAAAAAIAcyBIAAAAAACAHsgQAAAAAAMiBLAEAAAAAAHIgSwAAAAAAgBzIEgAAAAAAIAeyBAAAAAAAyIEsAQAAAAAAciBLAAAAAACAHMgSAAAAAAAgB7IEAAAAAADIgSwBAAAAAAByIEsAAAAAAIAcyBIAAAAAACAHsgQAAAAAAMiBLAEAAAAAAHIgSwAAAAAAgBzIEgAAAAAAIAeyBAAAAAAAyIEsAQAAAAAAciBLAAAAAACAHMgSAAAAAAAgB7IEAAAAAADIgSwBAAAAAAByIEsAAAAAAIAcyBIAAAAAACAHsgQAAAAAAMiBLAEAAAAAAHIgSwAAAAAAgBzIEgAAAAAAIAeyBAAAAAAAyIEsAQAAAAAAciBLAAAAAACAHMgSAAAAAAAgB7IEAAAAAADIgSwBAAAAAAByIEsAAAAAAIAcyBIAAAAAACAHsgQAAAAAAMiBLAEAAAAAAHIgSwAAAAAAgBzIEgAAAAAAIAeyBAAAAAAAyIEsAQAAAAAAciBLAAAAAACAHMgSAAAAAAAgB7IEAAAAAADIgSwBAAAAAAByIEsAAAAAAIAcyBIAAAAAACAHsgQAAAAAAMiBLAEAAAAAAHIgSwAAAAAAgBzIEgAAAAAAIAeyBAAAAAAAyIEsAQAAAAAAciBLAAAAAACAHMgSAAAAAAAgB7IEAAAAAADIgSwBAAAAAAByIEsAAAAAAIAcyBIAAAAAACAHsgQAAAAAAMiBLAEAAAAAAHIgSwAAAAAAgBzIEgAAAAAAIAeyBAAAAAAAyIEsAQAAAAAAciBLAAAAAACAHMgSAAAAAAAgB7IEAAAAAADIgSwBAAAAAAByIEsAAAAAAIAcyBIAAAAAACAHsgQAAAAAAMiBLAEAAAAAAHIgSwAAAAAAgBzIEgAAAAAAIAeyBAAAAAAAyIEsAQAAAAAAciBLAAAAAACAHMgSAAAAAAAgB7IEAAAAAADIgSwBAAAAAAByIEsAAAAAAIAcyBIAAAAAACAHsgQAAAAAAMiBLAEAAAAAAHIgSwAAAAAAgBzIEgAAAAAAIAeyBAAAAAAAyIEsAQAAAAAAciBLAAAAAACAHMgSAAAAAAAgB0MpTfcY5oxZ871iRv37kkNi5uM+V/QdAAAAAJgCDMNceqcFBlkCAAAAAADkQI0TAAAAAADIgSwBAAAAAAByIEsAAAAAAIAcyBIAAAAAACAHsgQAAAAAAMiBLAEAAAAAAHIgSwAAAAAAgBzIEgAAAAAAIAeyBAAAAAAAyIEsAQAAAAAAciBLAAAAAACAHIp0DwDSjxJCKB317wn2Y0b+QxiGmf5xAQAAAMCshiwBhOeFflcgEIoP+0MuXzgcTYajCUmiqbxAKaGUGvUaq0lr0qtsJkN2hikv26xUcOkeOABcMUqp0+tv7e93+QOhWIwQEoxE48lknj1zcX5ueW6OzWhM9xgBAGDOQJZYoARRDITivmDUH44PeYKtna5hf3Rg2Nfv8vvDCV5kGOb9+jeGYThGsJm1NqPWkWEudNhKCzLysiwmg9qs15qNWrUKv0gAsxGlNCkIbn+g0+k61nqusav7QGNTr3s4nuQn+aq1FeXrl1TcsX7Notwck05n0es5DgWxAAAwDobSiSpaYB4SRSkUjfuC0SFvsLnddeJs37ked0KgPC9IkiSIoihKkiRdKGX6AJZlWJZRcByn4BScQqfmSnMtS8tyl1XkFebazHqNQadiWRxwAMwKgigOeLxHm1t3nq472txytqcvKQhXeieLch3FjuyVZaV3XbtuU3XldIwTAADmNGSJhWXAFdh38tzu460d/d5EQkjwQoIXGcJMPEliIgzDECXHqFRKvU5dXmjfvm7JptWlNpNuWsYNAFfCHQh+67k/vXr4qCcYCsdiV/kqzzKMxWBYtaj0yY9/dCMSBQAAjIIsMf9RSiQq+YKRo/Xdh2o7z3YM9Ti9EqOkkkSpRKhECCGEYViGEIZhzlc3MQxDRiZYSxIlhBAqUYlQSik9P1ebYRiGI4SolWxxrq28yL6muvDamuJMq55gfjbAjKOUeoKhvfUN//yrZ9sGBqfjIR696YbP3H7LitISrVo1HfcPAABzC7LE/BcKx892OQ+d6TxW393a5RYpS6WRUgeGYTlCKMtINqPWoNOYDFqLUcswxGzU6TVKSokkSZ5ANMkLSV7w+KOBcMwTjIqUYQihlF6IIoSwnIJlyvJsW1aVXbu8uLwwy2jQpOkZAyxEiST/6uGjv/rrzn07zFHNAAAgAElEQVT1jfFkcpI9OZYtcWTlZWRwHGvQaFmWFSXRGwoPer1DPn8knpj8gWxGw8M3Xv9399xZmuOY0mcAALMFpTQeTYqCmEzwhBCBFymlZptRo8NJBLgYssR8Rin1haIn6nve3N94uKlXFKgojEy4ZBiGqFUKo05tMWozbdrSnMwsmynXbi5wWBiGcdhNapUiVfo05AlFYslwLNHROzzg8ncMegfdoVAkFoklIzGeMCMtZRlOoVApyDVV+bdtrF5TXWSz6DCDAmAG+MORf3nm98/u3DNJRVNZjuOGFcu2rVqxrLjIYtCrlApCGI5lGUIooYIoJQWBFwRJkt46fuqlAwf31TcJojjuXSk4Njcj48ef+/Td166bvicFADMpEeeH+j39Ha7Gkx0ttV2RUIxSSqWRvvGUU3Amq6G0MteSaSpa5KhZt1hnUKd71JB+yBLzliBKvmD0lT21bx9o7h70iaI0chPHKTQqpV7HVhQ5rl1esmZpgc2kVyk4lmU4luU4lmEIx7IjRUqiKKVeTwRBFCVJotTpDp4+23vmXP/h+p6EQOLxuCTRkUkXKiWXnWH68PU1W9cuznNY0D0WYPqIktTrHv72C3/+9Ts7RUm66FaDVpObYVu9qOzhG7duXV5zRYVJbQOD+xuafvXOu20Dg0M+/9gdFBz3uTtve/LhB61Gw1U9BwBIB0ppIs4HPKHW+p4jO+tb67qD/sgV3UP1mrJl68pXXLvYaNWbrQaFEm/3CxGyxPxEKW3ucv3+zeOnm/ucwyGJklQxEsMwHMeU5Fq3rFi0sjrfkWG2mfUWk4ZlruzqAaXUH4z6w7Fup/fYme5DtZ3dQ0EqSRfiBMOwjMNmXFWZe9vm6o0ryqbhKQIAEUTxtcPHnvz98/Wd3RfdxLHsxurKz9528/rKJcXZdtlXCCPx+JmOrj/tO/jq4aOdzqGxO9y5fs1/P/7okoJ8efcPADNPFCX/cOjAO6d724aaazvdg+OcLLgiRYtzlq0rX7+tZlF1wZSMEOYQZIl5iFLa1OF8cWfdOweb4knp/CE+wzIsl5dpWF9TuG5ZUWWRIzfLzF5dz3hKqSTRHqf3TMvA8caew2c6PcEYIcz53MIqdBr22mVF9920cnVloVLBUUowHxtgqlBK3zx64m//9xddQ66Lbso0m77zqUfuWLcm02SckjrDRJIf8vt/+PJrP/jLaxfdxBBy/fKap//+82W5OVf/QAAw3URR2v3KsTefO+Dq94mieMV9HCfAcqzeqClenPuxL95WsiR3au4U5gJkiflGkqTeocDv3zr+1r7GSIw/f6GAYZQcV5pn27a+4uYNlYU51ql9UEppd7/n5T11h+q6ugZ8vCiliisZltNpFKsrcx//8MbKEgeKnQCmiihJJ1rOPfzfP7ioX5Naqdy+esX3P/PJ8rxpeS//1Ts7v/3Cn3vdbl74wFSKshzHO996clEe4gTALEUpTcSSbY29f/75u821F1/JnFqbblnxwBPbM7LNCrzvLwDck08+me4xwJQRRKnfHfjVy4d3HW2Jxnh64WyDwaBdVVnw+fs3XXdNeYZFz7BTfHmAYRijXlNVlptlM4YiiWA4zotSqnUsL0hDnrAvEMmyGTItBqyeC3D1UqVNn/nRTzs+WHRk0mm/+sCH/uORhwuy7NP00CvLSu7ZsE7JKQ42nh293RcOv3zw8Iaqinx75jQ9NABcjb5O1x9+9Parv9070DU83Y/V0+Y8ua9JEqWK5cXT/ViQdsgS88qQN/jnv57cc/ycLxS/cMWJ0ai5bevKP/+RzYuLs3QaFcsyZNx1ra8OyzJqlaLQYS10WJIJodcdHllkVxAlly/iDURsFl1+9hRfEgFYgA40NH3hp7+4aPZCUZb991/7h4e2XmfW66fvoRmGsRj0G5dWluQ4Xjt8bPRNwWisb9izdUWNSYc1KwFmlyO76n/+7y+dre1MxvlL7z0VIqF48+muw++eKavKt9lNM/OgkBbIEvNHJJY4eLr95b0NA65gKiwwDGM0qO7YXH3f9lWLC7O4C2XT0zFngRJCGEbBsXab0WzQxGLxrkEvJVxq7gQvUJcvpGDZsrwMvVadyjMAIIMvFP7CT39+sq199MayXMcLX//qlppqBTcTFQVKjlteWlxgtx9raY3E4yPb2wecSUHYtmIZNyPDAIBLikcTu145/tvvv+4fDl3mlyiUnEanNlr0JqvBYNKZrHqzVa8zaDValUqjJIQQcr5X7OQkUQp4w7WHWux5trzirKt4EjCrKdI9AJgCqRXlmtqdbxxoGhwOE4ZNHcEbdMrt6yvu376yvHDa/4ZHwoGCY5eW5yoVnCCIxxr7fGFKqEipFI2LB0535mSY795aY7MYMAkbQIZEkn/y98/vPdMwemNpTvaPP/eZVYtKZ3IkHMt+4qateZm2h/7r+/7w+30k/++Ndyx6/b8/8rGZHAwAjKu/0/XKM3sPv3uGTwqX3NmSYSxZkltamW/PsZhthkyHRW/SEYYolRzHcfFYIhpOxKMJjysQDkTPNfS0N/X1to3T2+0inqHAz//9JWfP8K0PblSqcNg5D2Hu9XwgSdKAK/DSrrrnd9TG40lCKWEYvVZ5TVX+Ew9sKS+0czO7YFyqv1PDuYE/vHXyvZNtCf78SxjLKRYXZjxx34Zrl5eq8IICcOWe2bHrMz/66eh5z3az6e1vfWNFWekM/5mnSBLdVVu3/Z+/MXqjSqH44d88/sSdt878eABgRNAX/tm/vXj6YMslj/QKFzk237Zy9ZZKS4ZRrVVx3PsLTI2LUpqM8/FY0tk7vP/t2ndfPHLJwSgU3A33rHnob2/R6jVX9jRg1kON05xHKU3y4l+PNL32Xr03EEs1UOIUimWLcj/zoQ2LCu0q5UwftTMMw7JMls1g0mtC0XiPM5SaBU4JicWT0URyRUW+Qaee/KUKAEajlNZ1dH3xZ0+7A8GRjRa9/gd/8/ita1ZPdT+Fy8UwTFGW3aTTHmw8y19YJFuUpG6Xe2P1EocV86MA0iMajr/wv389/O6ZSYIEx7GlVXmf/vqHHvnHOyuWF5ssepVaybKXCBKEEIZhFEpOo1VlOiyrNi3ZePOyeCwZC8cjofhEXyJJtLNlgFJasayIQ3On+QVZYs6jlDR3OF97r6GxwyWJEiGEVSgrCzPvvr5mw8pSjVqZxrFlWvQKlmnrGQpHExKlhFBBlMLRhNmgzsk06zQqxAmAyySI4vdfemXHydPShSMDlmU+e/vNT9x+q1qVzj9zlmWXFhcNeLyn2zpGNg4HggzD3L72mjQODGDBCvoiv33qjX1vnJImmNXAskx5TeEdD2+59/Ebrn51OaNFv+b66tVbKhVKztnrSUwwvZtSeq6+xzccWn7tYjR1nE+QJeY8QZT+svvMgdMdkbiYmiahUylu21h525ZqkyGdVxIZhlEqOItRp1Urm7qGY0meUEoIE0+Kbl+4tCCjINs2OkskkkKf09/cNdjYPtjc5WztdrV2u3qHfIFQnGMYLYIHLGxOr+/vfvZ0IBod2ZJjs/3hn75sMxrSOKoUtVK5ZvGiP753IBiNpbZQQuo7ux+96QaTHj2dAGZUIpZ8+tsvH/pr3URBgmGZDTcte/TLdy2/drHBpJ2qxzWYdFWrS8trClvre8KB6Lj7UEq7Wge1ejV6xc4nqFmf20RRcvvCx5t6XP4IoZQwLMuQlUty1y8vtppnxVt4ptVw25alB890HauP8JSlVBJFsaXXe6Z1cNmiPLNRK4qSPxQd9ke6BnzNHc5zfS63N5RICgzDEEKNek2u3VpRmL2kLCsnw5Rp1eu1KI6CBYcXhCd/9/yg1zeyRatSPf2lL9jNs6XTYk6G7eVvfP2Gr/5LKHY+TsR5/hPf/cE73/q3kTLLWDLZM+Ru7u3b39j0xpFj0URy0OsVRGlxXu7S4sJb11yzvrKiwJ5pRvwAkEuSpCO76uuOtE5U2qQzajbevOITX7pdNQ1lCwqlonp12Xf+8He/+e5rh3bUJmLjXKCglL7xh/0lS3Jr1pZP+QAgLXBdYm5zeYOvv1d/rKH3/BLXDDHqNJ+4e+26ZcVKBTdLjrmVHGvSqboHfC5/LHXlhGVYhlCrSefINLb1ut862Pjb14/vONJW3z7Y5wx4AtFAOBkMJwLhpCcQ6x0KnGkbOljb0dozRAk16NQalVKBy6OwkOyrb/zK08+IkjSy5bHtN/7DvXencUhj5WbYEnzyUFPzyNnQriFXTXFRdXEhIWRX7Znv/vnlr/3qmWd37jnYeNYTDAWj0VS9licUOtvb9/qRY799d3ddR2c0kSjPy1Ur01m4BTBHtTX2PvPdCdu/5hbZP/bFW29/aPN0BIkRCgV3zXVVCqWis7k/mRgnTiRiye5zzpq1iwyz46QnXCVkibmtrdfzm9eODbgDVKKEMAadau3Sols2VmVnmGZJkCCEMAwx6TV9Q76OPjcvSIQQSqg/HBNFiVDym9eP7j/VPuAKRON8MskLoihJlFIqUUoplSRJEMREko9EE87hUEO70+0N2836TKueTUfXGoC0+OYf/njy3PsLShRm2b/z+CN5GRlpHNK4siyWPXUNLn9gZEskHt9YVfUfz/3x679+9vDZlkg8IU08E5QXxZa+/p2na/fVN25eWmUzGmdk1ADzRNAb/s8v/sbV7x33VqVa8Tf/cu8111crlDMx9bm0Ms9g0p460DzurQFPuO5w68abl6s1qhkYDEwrZIm5KtW+6XRz32vvNQgiJYQynCI3y/LQrauqyxzK2dQkgWEYjmMZQpzDoX5PONXSKSmI/lCsq9/X1OmOxAWaihiEMAzLsCzDXPggDGHOH3mIlETiossTHBwOClR0ZJo0aZ1yCjAzGrt6vv/SK57g+RONDMM8ctPWj16/RamYdUWqdou51+0+0Hh2ZEvXkOv3u/buPF0XT17uaru8KHYNud48duKa8kVZVsvMrL4HMNcJvPDCz/5ad/jcuLcaLbq//8+HVm5aMmNrxXIcW1aVX7mq5NjuRoEXx+4QDkS97tDqzZUsCg3mOPz85rDeQV9j2wB/YfUGBUuKss015Tm62ZfyFQpuxZKCNUsLtUrmfGYgxOOPNnY4k8kkkURCCMMqGJazGjSF2abSXGtprrUkx5Jt1SlYluGU5xfgkwRfKLHvdMcLb586eqYrHE2k+5kBTC9K6dGW1r7h4ZEtaqXijnVrdBp1Gkc1iS/ec2dehm3kU0EU3YHAuHtyLDvJ1Ij2QecNX/uXn7/5jihKE+0DACO6WgeP7Wkc9yazzfCpf7pnxYaKGR4SIWTpNWUf/tQNWv34r1cNx9o6W/pneEgw5WbdaS24TJSS7kFPY9tg6hOG5TLN2pUVuTr1rAsShBCWYYx6dXWpozTX1trr5YVU/qEXJocxLMMYtEqbWbd6SW6Bw6ZWKijDUEpdnmBTh7Nj0BeJxONJiRCGUFEiTHu//9W9DTqN+trlxWgtB/NYUhDePVUbib8fm0uys6+rWZrGIU0ux2b9j0cffuz7P55oByXH3bF+zeO3bC91ZOu1GlEUXYHAn9478PTbO0baQKUkeOGbf/jjirLSLTXV0z9wgDlMFMSjuxp87nGmSTAsc+1Ny1Zvrpz5UaXc+uAGnzv49gsHx97k94R2v3ysfGnhRduj4UTjybbB7mFn7zAhxGjWm22GqtWlxRW5MzFiuELIEnMVJbR/ONQ+kOrrQhmWzbKZllXka9Sz9GfKMExpfua6muK+4UggLJKRmmmGUas1Dqv29s3VW1aXZdkMSo4jDEMYSigjSlI4Fj/b4Xxnf9Ph+p6EQEWBJ5QmksmjDT1Wg8Zu0ZUV2hWzqaYLYArxgjB63QZCyN996K6ZX4Dyijy6/cZ/ffa5XvfwRdtNOu1Nq1Z8+7FPlDiyR9dhFjuy11Ys/t5nPvmN3z3/v6+9ORx8/3jIEwx98vs/PvaT72HuBMAketqH9r15ctzeTSWLc+957PppnWw9OZVa+dEv3NLZ0t98umvsrQfeqbvhnrXlNYXJBO91BY7vbTq+t7Glrnvcu8ottlevKt1028rCRQ5dWrvew2iYLzEnUUqjseTeE22NncOiIBBCKGGWLc65Z+synUY5e2ZdX0SrUQmidKyxKxR+f2lMrVZ9/eqSh25ZvWX1ogKHRa9Vq1UKtUqhVirUKoVGrTTptTmZ5uLcDKtB6/aFA5FkKodQwgz7wpyCq16Ug4kTMF+1Dw59508vjXRwyjQZn/7SF2Z/j6M+t+fw2ZbRW6qKCv7zk5/4fw99JNtq4SZonLClpnrtksWnzrWNnr3tC4ebe/vuWLdm9j9rgLTgk8LPvvnnnnPOsTdl5Vm/+O2POgoyZ35UoykU3LJ15Ud3N0TDFy+MLYpSy5nu0sq813+37/n/eefo7gbP0PhVkYSQkD/acbb/2O6GrpYBpUqRV5I1zQOHy4IsMSdJlPYMeg+cau8a8ImiyDCMXqNYX1O0aWXZRG/SswHLMoIotXYPdQ/6WE7FKBSU0k3LS+6/acW1K0qNOvVErZkUCs5uNRTl2BJJYcDlD8cFQgmhUlyQeF5YVJCVZTPM5icOINvvdu556/jJkU+3rVz+6PYb0ziey6RUcDtP1Y2sNUEI+d+/feK+zRsmv6LCMkyJI/vezRt2nqpz+vwj28/1Dzhs1nVLFk/jiAHmrM6z/X/82Y5xG6Td+fEt67ctm/ERjUNn0OiN2rrDrdKYGVAhf+TY3saW2q5o+LLmQPJJYaDbXXuoJRyMlVXnp/GSC6Tg8GtOohLtHvAMeUOSJBFCOJYtyDIXZlvIxM0WZwmbSbdlVfniIrtBw5q1XHVJ1r03LFu2OFfBsZNcTmEIYVkmK9N4y6bKjStKFAw5vysl/U7/eyfOxeKX2yIGYG5589jx0Z9uWjo3Zg6sX1KxffUKlULBMkymyfTfjz9y3+YNl9mRKcti+cHfPJ5js45skSh9Ye/+0RcrACBFkqQD75wed4nr0sq8TbeunPkhTWTVpiWLl108NSIlHIhOtEr3RGKRxOu/2/ezb74Y9IWnYnQg36wuuoWJUEp6nb5hXziVJViOy3dYC3JszEz1epPNbNTetL5CreL6hwIZZn1VaXZJfqbmsk8qFOXYNq8sbWobaOvzJgWJSmIgmjh+tvfBcMyE0kmYd4LR6PGWtpFP9RrNykWlaRzP5dNp1N/9zGOba6pjiWRVUcHW5TVX9OUbq5d85LpNP3z59ZEtjd09te0d21fPogMjgNlg2OmvP9o2djvHsRu2L7dlmWd+SBMxWfW3fGRD44mOS+962Y7vaQwHop/9l3tzCtNcx7WQ4brEnEQJicSS8QSf6q/KsazdasjOMI6cr5+1WJYxGTRb15Q/cPOqWzZVVpQ4dFrV5U/w4Dh2SYnjlk3VBr2WMAwhhFLiD8YaWgeCodglvxxgbnH7g6PLhPIzM3Jttkn2n1UyTaZP3rzt83fddqVBghCiVCi+9sC9o7cEItHXDh+butEBzBPdrYPuQd/Y7Uq1csP25bOtz+HqzZXL1i+a2vs8e6rz2afewNWJNJpdv2Rw+ZKCJIysH8sQBcfNlV5GDMMYdBqbWWfUaxSKK/4NtNuM65cV52boWSIRhiGExuLJ02d7ncPB6RgtQBp5wx/o8KjXqNWzu4PTFHLYrP/5yY+P3vLcnn1JHtWMAO8TRbGtsTcxXpXvdXeszMieRRclUjgF98S/PqBUXdbrmELJaQ1qg1mn0V2i2f2pA80v/XLXVAwQ5Fgob0vzDCXUH45H4zyVUmtFMyaDxqzXzNYGTlOJZZkcu3npIkevKxCM8lSSEkmhucc1HIhgYibMMwMe7+hPjTqdWjUbF5CZJl/60N3feu7P4fj5xi++cHhfQ9O2lcvTOyqA2UPgpbaG3rHbFUpu+30bZn48l8OWZVqxoeL43vGX1UvJzs+oXl26eFmhyapXaVTRcNzj9B/d3dDW2DvuEtqEkF0vH99826pF1QXTM2qYDLLEnEQp9QaiIuUIEQkhLMs5Mo163SxdB3fKKRRsRUnOwTPdwahACBVEsc8dDEWT6R4XwBQLRKKjPzVoNAvnugQhRK1SbqhasuNU7ciWI2dbkCUARkii2Ns+NHZ7zdry3GL7zI/nMq3fVlN7qIVPCmNv4jj2pvvWf+ixrVq9WvXBHvebb19Ve6j5f/7fn8a9Tz4p/Ojrz3/7t583WvTTNW6YAGqc5qSL5kUwI/9ZGJScojQvw6BVMyxHCJEk4gsl/KEoL4hX2ggCYDYb8HhGf2o3mwyahdVjYEP1Bxbrfe9MfbpGAjALtdR1B7zjzBOoWl3CzuJeLGVV+dl540z9UqkVj37lrk986XZLplE9Zi6l0azbfOuqH7z0D46CjHHv1tXv3fHSEUm6uOcsTDdkiTmJ49jZ/DIx3TiOcWSatB84Y8GcaOw+Ut/p9oXHXfgTYB6IJpJJYfzr+/NVTXHR6Ne6/Q1N3UOuNI4HYFY5fbBl7EaVRllSkTvzg7l82fm2bfeuu2ijwaR99Ct33XDPGm7SyZ+5RVmfe/L+/NLxV6k7tb/Z68LkyZm2gC6Xzw8JXujs83T0DzuHg5SeD9+USrHEAqrwYRhGpVJYjFpRSD1rSiXhVHNfMJIozc/Mz7bkZpnKcjNy7Balcm7MRwcYyxMMdQ+5R28RJWmhReVMs8mi13tD58+8Jnjh2r//6roli+9cv/bB6zbrNAulsBNgXN3nBsdutGQYrFmmmR/M5WNZdtuH13W1DO59/URqi96ofeyrd2/YvvxyzpOW1xTe+uCmp7/9l7E39bQ52xp7Mx2WKR4xTApZYm6glAbCcU8g0t47fKi281Rz74A7QC9cyJMoCUXisURSo1Jefn/VOY1lmUyrXqtmYwlKKCWUevwxb6DvWGM/x9HywowNNSWrKwuL8qxWk16jUi7kyzgwh1BKQ7HYuf7Bd0/VPvXSq+7AB1ZnC0aj8WSSkAVUDWw16K0Gw0iWIIQMen2vHDr6yqGjX/vlM5+/6/YHtmwsyLIbtdo0DhIgXZy9nrEbbXazwaSb+cFcEaVK8cQ37rvujlV1h1uTSX7LbasKFzku852aZdktt6/c+dKRzpaBi25Kxvnu1sH1N15xH2q4GsgSs50k0Vgi6faFdx9p3XW81eVPxGLxWCIpvr8KPUMIFQUq8hJZMC1eOJbNthisRl0sEU51hiWUUCoRSgRK2nq8A67IjiPnygtt29YtWVqem2UzaFSXuyIeQFokkvzxc20/fvn1nafrfGH0SieEEI1KpZmgddVwMPRvv3/hB3959c71ax+4btNd69fO8NgA0i7kj4zdqDNo1Jq58X5Xtbq0arWc9TdVauXHv3T7t//212PbOu1/6/RHntg+FaODy4UsMdtFovH9p9r/tKuud8DnD0UlylIqpZaoI4QQlmMIUSlJdqZBt2D6OBFCNCrFtctLOwY8Q4ebKVFSSgmVKJUIpYQSnhcCghgMR93eYGP70Oqq/Ns3V29cUZbuUQNMaNDr+7ffP//nfYd8odBEZUzFjiyTbrafbpxa+fbMaysrGrt7JtohGI09t2ff60eOb6yu/NZjD68smxvrggNcPfegd9wGqUqVYvIpB/ND5arS0qr81rrui7a7nb5oOKEzLKAjorTjnnzyyXSPAcZHKW3uGnpzf+Nb+8/WnRuI85JEKUnNkWBYRqHUqbh8u2lJsX3zqpKNK8syLIYFUuBECGEYxmzQZFoNhTmWklxrQZbJoFYkeCEhEIZhCGEIpYQQUSLRJOkf8rp84ViCt1sMWvVCKQODuUKUpKbuns//5P9e3H8omkiM3UGlVNiMhmsWL/rmJx7Kyxy/gcl8peS4m1YtN+t1gWhMo1SqlYp4MimNmTSS4Pm2gcG/njhdlGUvy3Fw3Pw/kAJw9np2vTzOYvCLlxWuu2H+F/kwDOMdCjSd7Bh7U9XKEkdh5swPacHCdYlZh1LCMCTJC12D3j/tOPXeyXZ/MEkopaJACMOwHMcy2TZ9gcNWkmsty8vId1jLCjOts744cmoxDKNWK1dVFi6vyA9H4x5ftKvf09rj6hjwOd2B/iG/JxBhOAWVJCokIiJz+Ex3R79n2Bu+/ppFZYV25QI4ZwNzgiCKrx0+9rVf/bZt4OI5lBzL5mbYrlu2dEtN9eK83JWLShfaRYkUrVr9lfs//Pcfusvp8/cPew41NR9qOruntt47pgysa8j1yHd/9PFtW796/4eKssdv8wIwb4QC4xQ4EYaoNQul3LmkMk+lUSbHLPu98+WjGp2qaHGOVr+wmminC7PQuoLMfpQSQmhH//Bzb5/Yebg1GOWpdP4iJseyWo2qIMd6/eqym9Yvyck0cizLsgzHsYS5eNGJhYNSSikVJSqKkihJ9c39u4+3njzbO+gJx5P8yIoTLMuZTYatK4s+cvOq8mI7y6IhMqSZJEm/27X3K08/c9Eca0IIx7JfuOv2L9x1u8Nm1WnULC6mXSBKUiQeD0aiP3vjnZ+98fbYiSUsw9ywYtnTX/pCMeIEzF9BX/ivfz7y4i92jr1p+33rP/VP98z8kGZeV+vAD//pucGe4Yu2sxyr06uNFv2mW1fefP96rF433ZAlZpHUT4JKtK3H/ezrRw/WdfmC7696q9ZoSnMsN66r2Lyq1G41mA0ajpszR8OpY31JkiSJUkLO/+8ChmEYhrAswzIsyzIcy1xNGVI8wYei8QFX8EBt+7uHzw56oklePJ/HGFavUd68vuK+m1aUF2WhYyyk1776xk899ZOLrkgYtdptK5d/5/FHyvNmdYf4SxIlSRTFpCCKksixrEalUkx16VHbwOB//fHFlw8eGd3oKeXR7Tf+5HOfNqC/E8wjlFI+KQx0ufe+cfLwjjq/Z/wODVtuX/W5J+9fCNW8gz3DP/768x3N/ZPsY7To1m+rue3BTdYsk3YhTSudSahxmkUYQiSJ9jp9bx1oPFDbGbUfoPkAACAASURBVAgnUj2aCMMoOPbmdeVb15YvXZRjtxrSPdIr5gtEB9zBXqfX7Q9F43y/KxBPiiOnWvU6tVGvslv0uZnWLJs+P9tiMmpln4jVqJUatTLDYsjOMFSXOd493Hq0vtsTjFFJJFSKxoVdx1s1GuXDRl1OlmkhvNrC7FTb3jk2SGRbLP/68IMf33b9HG1yOhwMnu3pO3K2JRyL+cKRcCwWjsVjyaRaqcwwGe1mU4kj26LXl+XlrCgtufqHW5Sb88sv/e19mzf+6u13XzxwaPRNz+zYJYjiD//m8QyT8eofCGA26O907XjxyJGd9eOudT1CFCRJpJxi/r+7GUxao/US1xxC/ui7Lx49urN+2bWLt314XcXyYvSIn3LIErNLLMHvO9n+10PNgXCCUkoIJSxn1qu3rCy5f/uKiuIslXLO/MgopW5vuMfp63X5+wZ9g+5gv9vvCYTjCd4fFgijSF2JoYQQKmjUbIZJl2Mz26z6nExTYY61NN+Wn2W1GLXyipEYhsnOMNltxkyzwaTT7DnROhRIUIGnVAxEyb5T7Y4M0/3bV2rnSOM8mGe6h1xf+OnPLwoSRVn2d771ZGmOYw79madE4vHdtfV/2L335Ll2bygUjsVFSRIl6aLdWIbRqJQcy2lUSp1G8+hNN3z6tu15GVc7m/zm1Ss3VC0x6bS/3rFr9Pbndr9n1un+5wufvcr7B0g7nhcOvFX7ym/2uAa8I4W7oNGp9cbLOu0S9EcPvlNbe7Bl020rH/vyXdM9sIUGfZxmEVGUmjudf9lV19ofpCJPCGEYVqdWbFpZ+sR9G0sLMmfzjOHUa1sq7Aui6AlEWnuGDp7uev29xr/srjvW2NvW5xnyhIORRDQhSJIoSULqg0oClSSelwKRxIA72NbnqWt11rX2uf2hWFxQKjm1kuNY9koTBUMIwzAsw2RlGPOzzDwvtvW5eUEkhBBKg5G4yxdZsSTfZpKZVQBk4wXh1zt2PrdnnyC+389xcX7u8//8leVlJXOodpEXhD738O93773/37/z9Ns7Grt7vKFwLJmcaH1uSggviklBiCYSgUjkvTMNT730alv/gN1isRr0aqXMYM8wjFqpvHvDOn8kcqaja+S7SgnpdbuXFhUumuPVYrDAxSKJ157d96ef7/B7wpcsS2dZZu3W6qVrF83I0NKM41iP01935Nxl7p9MCG0NvV0t/fml2WbrAmp9Od2QJWaRSCzxxx0nj5zpjif41BRspUq5bc2iT96zvjDXOie6HIqCGI4mW7pdf9px6tnXTx5v6u91eqPxJMOQVNy4MEGcIcyFD8KQ0fPGKaWEJpLC4HCo/pyzrrXHF4hp1EqtWqVScvL+8o16jSPTpOG49n5vnBdSAxAliSUkx26ymnR4QYGZdK5/4B9/8RuX//351g6r5Sef/+yWmqo5lGybenqfeunVf332ud/t3BOOx2XfT31X94v7D9V1dKqVisrCgqsZ0tqKckGUDjaeHdkSjsfDsdiD12+5mrsFSKOhfs8ffvz2zr8cHdutaFylVfn3fupG06Uqf+aN3GJ7IpZsb+y7/C8Z6B5uONHOKbiyqvzpG9iCgiwxW/CCeK7b/fLu+h5ngFIpdbRdU+a447qaFUvylIrZXvPAEEIl2tnneWl33fM7Tp1q6nN7I7EELwji+eN0hiGEZViWYTiGZVmWY1gFw3IMyxEmdQkhtS6ElOrMxAtSNM57fJFzPe6mDmc4Gl9UlKVRyfk+sCxjNmoyrYaegWGXN8RLhBCa5MX+4cCiwszS/Axu7hzAwTzwtV8+s7v2zOgt33zkYx+74bopn5o8TZKC8NPX3vzUUz/ZXXtmbAcqeXfY3Nv/9vGTzb19a5eUy259q1WrN1Qt2V1b1zfsGdnYMehct2RxWW7O1Y8TYIb1tg/96r9eOfHeWVG8uGJwLE7BXnfHqse+fLejIGPhnCBTqZXV15QtW18u8oJ70D/u4n1jhQPRxuNtSpWiYnnRdI9wIUAfp9li2Bd+bU/9n3edcXpCVBIJw2g13Ofu33zbpmqbeQ6cOE/ywonG7l1Hzx2o7RzyRRhCLrROYgjDsgxr0LCODGOmxWDUawghVrPOpNdIkhSKJSLRJJ8UQ9F4n8vf5w5SyhJCqZRa3pthOAXL0Dy7YePKshvWLF66KEerllMLwQvi7qMtv3j5cHufn0hCamAf2b7sozevLs5bWOt/QRq19g9UfPKJkU8ZQm5cufzlb3zdoJ0bfdAHPN7//OOLv3xrR5wf5ywpQ4hGpbIaDUatVsFxVqNhUa5DrVT2uIYHPF5BFCPxeDAa9UciE9V852bYfv0PX7x++VLZJU+haKz0kc8MB4MjW4xaTf/zz8zR6eywYMVjyWefemPPq8cnmSDBcqwlw+AoyFxzXdXaG5Za7aYrLZKklEpjpjbNNizLXuZR0FC/9+T+s3tfOxH0hQPeiDRpBtMZNI995a5Nt67EbOyrNNvPdi8cQ57QnhPnfKE4w3IMw3EsLcu3ra4qyJgLfZF9wejhM12v7K5taBuKJkUiiZQQhmEpoQatsiDbZrcZi3MspfkZeVkWm0lPCLFnGIw6NaU0HEsEw/FEQvAFoud63C19w25vaNgb6hvyRxIiIYSKvEhIjzPQu6O2q9977w3L1iwtMl/edKvRlApuzdKiE2f7hjzhcEQklDCENrQ6m8qHkCVgxvz6nXdHf1qS4/jGww/OiSAhiOL+hqb/98wfjra0jp7pkaJSKCryc69bXrN2cfnS4qLCLLtWrdKpP9CBMZpIDHq8Hc6ho82tJ8+1H2o6O7rQK2XA4737yf/4/z76wJc+fLe8b4tRp/3O44/8/c9+GYrFUltCsfhrh4997IbrZNwbQFrwSeHFX+zc89qJiYIEyzKF5Tkbblq2fMPi/JJshdwW57wgxBOJqxjpTNBqNJdZnZGdZ7vtwY23Pbix42x//bFzR3c3TFL+FA3H//izHVqdes3W/5+9swxv40r7/jkDYskyM3Mc23Ech8lhaLCQttuUu4UtbrvbhWd3u+32fbbPbpmZA00abqgNs+3ETDEzyLIshoHzfpCjjGTZsR3ZsdP5Xf7guefM6MiXNTr3ueGf4rnJ/hrhfYkxAULAaKW69WaSgGIBwbDI10uyYEqiv3Kst39FCFls9Pni+ve3nuzoMtAMe6UMG5AEplQI0+NDls9ImZgYIpcIcRzDMGhv9gqvIJeIZGIRACgy1Cc1MZRhWaPJmlfccPBceXF1u85osddLA4QQzeSVt5rNFE0xMzNiFfIhrzMkIsG8ybE1Tar8ila7wl1tq7q62VXmhodnhGjo6Dx8sYBrmRIfmxoddWNmMxRYlt1y/NSLn33d2t3d9+y0pIR/brw7Iy5aLpGISLK/HUSJUBgbEhwbEjw/LdVstTapur449MsbO3a7DLNS9Kubt1EM8/K9dw9vtosy0tNjok+XljksR/ILeV+CZxxxYMuZ/ZtP97etDjE4e3nGHY8u9gnwwomxlaNrNdvaGrpa6lXNNR3qdq3JYDUbLGajlRTgYqlQLBPJFOKQ6ICw2IDQ6ACfAMUITSMmOTQyISh7TdbxPXk7vzhmMriv6epq73n/pR9eCnk0KpHv0DB8eF9ibADBhOjAN55fyyIEAUQIkATmrZB4DX25PJrYHYlD5yq2HrrU2qlDvS1eIU7gErFg3qSoBdMSkqKDlDKxWNTv8gL2CtNBDAB7nyqRgJw3NT45Prj4ctuR8+WXKptNVsTQNAKIomzFNW36XRaaZedOiVfIhvb3EQqI9MTQ+MiA/MpWezNaG8W2q7SqLp2/30g90Xh4HFyqrqnv6HQcykSitTOne0mHWR4wajAsm1Nx+Q+fftmu6eHaCRyPDQ56/JZl9y5e4C0bwsYHSeAkIUmRRrz+6IO/XbH04TffLaytd4QRAABWinrl+62qHu3/e3DjkO5sJyLAf3pyAteXyKuqKW9sTo7gSy15xjoIoYaqtqO7chnavSPh5SNb90D2wvVTBcNK9/U4NEUbtGZ1u7aquKn8Yl11SdMgy8QBAH4hyolZsUmZ0WHR/gofqVjq/jv9q//u8Q/yyV4zRaYYQkoChmEKpXT1vfOSJkV98M9tqhYNTbuppjAbrds/PfLUKxuEYsHgb87Dha+9HhNAAAQk4aeU+XvL/Lxl/t4yHy+pRCQY401dTFZq74nSXUcLLzd09sZhIYQQJUb537tq6rJZySmxwT5eUnKI/ZcghCRJKOWSkACv+Ah/P6VMazD3GGwsYgFCCECNztjZbfD1kgT5K4bUiR9CKBQQrR09l+s7zFYaIQQg5iMXBfrK+TQnnpGGYdn9uRd/yslzVKmF+fu+fO/dcslYz+M/VlB033/f5hY0AwDkYvETq5b/38P33TJ9qlgw/O9gPy/FbXNmJkeEF1TXdhucFLjyqqr1Zsu81InDENwQCQRfceQmrJRtftrExLDQYc+Th2d0YBh215fHi3OqkbvsprDogEf+sm728gzcQz3iGZbtm7I4SCgbXXC68sTuS4e3nju09VxpTo2qVdOfC+QWk95SX9mWd6zs4omKuvKWHrVBICTlStca0YlTY6MnhEAcUDQ9+B8Mw+wNMH0DlTOXpDE0W1/V5nZ6PV36oHDf8NjAsV+bOjbhfQmeYWKy2HJLGr79KaeyvuuKI4FJReSkhJC1C1KXzkgO9lMQxDC7uNoRELi/tywqxFckIDQ6o0pjQL2NnmCPidIZTEG+ivAg76HetkdnamzTqHqMDMNCACRiUiQkpqVGDXuePDyDwWKzfX/0RF5VtcOyavrU3yycP8a/vapaWp/+4NOS+kauUSwUvP/kY0+tWRns63P9LyEkyQkR4RvmzS6oqa1r7+CeKmtsSooImxg15F4rIb4+Xx4+ojP1xjqsFBUXGpKdnnr9s+XhGVHaGrq+fn2f1d3WPikgHvjDqsmzk6DnaoWH7UuU5tZ+9NL2c4eKakpbetQGlrmuRj5Ws62jqftyQcOlUxUGnXlCZvT13M0OQRCOZvpCsSA+NcKgNdVWtIA+M6VstKpNM3t5xrDLTn7l8L4Ez3BgGLa6SfXtvgsl1e00i+xqGDKJMGtC2F0rpiyYmigWCeCV7CU3l7OIYViGYVmWhVi/w+x3EIvIyGAfhUTU0WPQ6EwMgwBADEM3qbQ4gcWG+cgkImwoqzGLlWpu76lr1dgoBkIgwDEcA8tm86VXPCOLwWz5eP8h7lp548L5s1KSb+CUronWaHrkrfePFRZzjfEhwR8+/cSd8+d4sFc1hFAmFs9JTalsbuHKgVM0fa6s4vY5s7ykQ+tCgWNYt15/quRqmlOwj89tc2Z6asI8PCMBy7I/fHS4srCh7ylSSNz15LIFa7I86EiAofsSVgulbuvZ8u7hPV+e6OkyDLIH6yBhWWQ126qLm07/VCCSCr395deTd8T1JQAApICYPDupraGrsbq972BNl16ulCSk8S1ihwNfLzEmQAjRNGO02BgWIQQ885yAgMAwoYAQCgiPb3w2dWgOnikrqem0USwACEBMSGDTUsLvXjFlYkJIX31ulkU2iqZoxkYzVhutN1oNRqvFRhE4FuSnkEmFEiEpIIn+mtlJxILZk2P9feXf7M09U1hP0xQAACBwPKdKLhY+sn6mcihtnXy8pIF+CscjxkYz+n6qsnh4PIiFouo7nDbdF03OuFGTGSSbjp04fDGfa/GWSV9/9KEVUzMHvrDHYGzXaCiaYRAb5K0M8h5U/DA6KPDbF5975M33d5097zC2qruX//Wl/f/6R2RgwJAmv2RyxqubtzkO291VjfPwjCnaG9WnDxb0tWM4Nu+WzCW3TR/9KTlgWba2tOXsoaLCs5d13cYBRsq8JD6BCt9AL6WfXCQRCoSEQEQyNGOz0jYLpdeYNF267g5tZ4umvztoVLpNbx04d7Bw+pLUSbMSFD4e60Pz8J/XtTerq0ua+p7a9cWxhWuniqXCvqd4Bob3JcYEFM1U1nVs/zm/rUtPsSz0gDeBSBwP8fOanxU3ZWKEVOzhz0Z5XcfP5yu1+iu1kogJCfBavSB1YnyI0F1mc4/OVFLVWlDVWtOs7tGbbBTDMCzDshiAIhEZFqjITAqblR4b6O/lts0zhFAmFU5KDO3RmvQGc351J2IpgJDOROWVNk5LiZieHj34jGofL2mQn4IgcAABQkhrsFQ08q2ceEYchmG0BhPXkhJ5XTLPI01lc8uLn33N3bMUCwVvPvbI8qzJ/ck7qnq0B/IubTl+qrq1VWc0swgBgEiCIAli1bSsjYvmT01MGPhF/RSKr194Zt4LHQW1dQ5jWWPzv7f++OHTjw9wYV8mOP95GzpVQ7qch2f0OX+02GKy9bVHxgUt3zCTHJZaq6fY//2ZX7blmAwWt4UcAACfAK+UrJi0mXHhsYECkYAgcYLEMQza1WgBAixCiEUMzdA0Q1OMQWsquVBTeLaqqqix791oiqkqbqq/3HbucPH9L64KDPNAOiUAQCwVrn9wwXt/39q3s5Nea7pc3JA+/RrPKJ6+8L7EmKCqUbXzaNHP5yotDAYx7Pr1AyEEiGVEeFtHt95C0TPTo2USkUeCEwzD1rWozxXUtXcbAYvsQYmYMJ+7lk9OTwgT9nnSGUyWstr2s/m15XUdda3dqh4zxOxjkL3pEwDgcmNHbbO6uqk7NSEkNS44yE9BEkTf2eI4ljUxorlTU9XYYbAg+8VN7ZrD5ysnxIX4KQf7z4xhUCETYbB3MUQzyGChh/8X4eEZNFxtUAzCsSx0baPoD/bu5/ZWEpLk02tW3bc4u+9gFqFOTc++C3mvbv6B26iKy3t7fnpvz09T4mNfe/j+KQlxA4hbK6SSj5994taX/82t9j5RXFLZ3DKk4mk/L4VUJDRaenvn60ymgcfz8Nxwii9U9zVCCDNmJwdH+o/+fAAACCGD1nxw09nDP5zvexbDoEwpiYgLmrVi0sSpMSJJ/xuXEOAAAhwQJG4f5OUjC40OWHrnjLaGrvOHiwvPXu5s0VA2p69jykpXFzd9/NKOh/9nbUCYN+GJivPUaXGT5ySdPuAm/lN0vor3JYYB70uMCSrqOg6frzRRDEA08FzyoYkFOWXNJqvNbLFlZyUoZKLrT3YyWW1HcyrPFNQClgUAQIgpZMJZk2LWzk9zSW1CCLV36c4X1f98rvxiebONRgAghFCvHnZv7AUBAKw0uNygrm3V5pQ3PbVhjp9S1l+MQS4TzZwU09LRc+Bcpd5oRSxjsrKXKlsq6tonJ4VLBp1YSeAYJ/bTW+/BwzOiIIRszNWvSaVs7MpQIoTOlVfsOZfDNS7MSHtu/eq+gxmWPXyx4N9bt58sLr3mnfOqata//L9LMzO2/vWPAwzLjI97/rZ1z330mcNS2dSy70LuUBsxycRihy9hsbnZ7uXhGfuQQiJr/oShClp7iqbqjl2fHy+/WNf3lFgqnL1yUlb2hOjk6+qQFhzpt+6R7Ox1Uyry60/ty68uaXYR1miqbn/9uW+XbJg+55YMyRB7wfdFICQzZiae/6W4b7FHe5Pa7SU8A8P7EmMCi402mGygb3OB6wQBmqaLqztttjyphJw1KU4iuq72ySzLduuMRVVtPabezzmG42nxwbPSolwcCZZFJrP1pxMl248UdOmsNMW6vDsMAgS4a3hE2SiGZhVykaj/ntkQwpgwvw0rplyqatMZO+3ugE5vOXL+sq+XLDkmcJBvxGNFKTw8gwYBwHC+IKnh9mEcBWw0/e2R49ykICFJ3LNgfoDSq+/gj3869K9NW9u7+019dkFrNPl5ubkPFxzDHl259PXtOx2hCRah/2zb+fytawf5KnYkwqtPPLOV9yV4xiXp0+MjE4JvyEtX5Nd//M8dBq3JZXkCMThpVsKG3y1ReEtJoWdWkko/+fTFqROnxuUeK932wS8uAQqdxrj7ixPqTt3dTy+9/tfKmJVECgjPFo7/muF9ibFBr8pbLwRBCEXDaTkPAUAAWcxm5uoyBTEsU1Hf9c2eXAjhzPRYsbBf2bhrQjFsUWVre5ceod4lkYBEkyeETUpyUoBiEerWGr/anXMs57JKY2LsqVAAYDhOEiQGEQkYL7mUYVCP0YwwkmZoloUhfpLbF6fFhPi6LZlwgONYgI9sVlpUt8agMVgRy5gttjNF9TMmRSdFBwzyrTmNgsCR78TDM6Jw/z/RGI6GaY2mI/mF3BnOSE5aO3O6y+eLZphvjxz/3Xsf9b0DBEAiEkqEQhYhG0Vzc6WmJyU+s/aWa85BLBB884fnlv31JRvdu6To0PS8unnbX++6ffBvhOEmdo/t3rs8PP0xITNm9IMSLIuKzlVteuuAoccpORBi0C/Q6/bfLU6dFjcSHVRlXuLstVOmLkzZ9dnx8z87VY9QNvrYjlyT3nznU0uHJFrXF6lCvGj9tL3fnrzu+fIAwPsSY4arX3gQJxIj/dYvTCdwnB3iagPHoJWiN++/VNemuZJKBABiWYBVNnR9uzeHptkZ6TEK6TCTnWiayS1t6ujWsQwNIBQQ+LQJkWlxoS5lEj0608FzFUdyLrd16XrfGoQYhJFBXlOSwiNDfXwVUrFIgAAymKwdXbpLlU2tKt3U1Mh5mfGD6cgkEQoWTE24WN7cbVQBwDAsUmmMVQ2dU5LDfZSDyhuhaMaxThIJCK/rjpny8FwTHMPkYpHJ2ptyY7UNVhp29Nl55pyLPve/H7pPLHSKaiKETpeUvbr5B5drBQQxKSZ65bQpSRFhgUolw7I6k6m+o/OnC3kniksIDP/LXbfHhgxqkzV7Uur62TO2HD/lsLzy/Zan194iFw92GWHhxCLEgjEhEszDM1TSpt2ADP7yi3Wb3zmkUem5RqGInLpw4sqNs3yDlCP66lK5+PbHF0Unh+758oS6Q8s9deHnEgzDbnt0ocLnutJEZy+bxPsSnoL3JcYcECMig31Wz08deHve/bUAsAgcy62qb9cip8IL1kah4qoOAr/EsOy8KfEy8XBWzxqtuaZFrTfZAEIQwwmCmDM5LjbMjzsGIVTXoj54urxdrQMQAAQBQD4KSXpiyMzUqMzk8JAgb5LofW8IAaPZmhDt36E2xIT7B/jIB+Pk4DgWEewdE+Z7uaHT1lt8gdU2q5s7egbjS9AM26M32/X1IIRiIRngPXYz13luGjAMk4pFoKf3e5FimLZuTbDPkMUWR4G3d+7lHi7MSM9KiHMZY6Wot3ftrWl16tTu76X41/33rJ81QymTulSW37dowc6z53uMxgHaQPXl7uy5u85ecJQ6WCm6oKZuzsQJg7zcZLM6fhddhzg3D8+Nwj9IGRI12lXXzbWdn7y8w6R36nSE49iKjbMXrM8SXYfmw+ARiMjpiycmZ0Z/+LdtdRWt3FM5R0p8g7zWPDDveu4fER8sEJI269jd0xlH8L7E2AMhhmVpmhEPq7bBarExjEs5QO+6nUUgv7KDZi6RBD47I26oyU4ms62mUaU3WCHEEGIAAHKJID7SX6lw6sfSoTbkljY1q/SoN3ELioXkgqnxdy3LiA130x5eIRPPzRzypotQQKTGBpbXtFU3dyOAAMu0delau3RpideuAFP3GNtUWpph7H2kSByTe7pnLg9PX4QkERkQUNt2VWKirLFpDPoSJfUN5U3NjkMCxxdmpGF9Vv/f/HLsQO4lriXMz/fTZ59cNDndbX8qb7nswaWLhjqZ+NCQyAD/yuYWh+VEUckgfYnz5ZUG89XFULi/3wCDeXjGJjKldBgbi8MGIdTdodvyziEXR0LpJ7/10QXTF4+qcjyGY97+8kf/eeumtw4Wnaty2BmaPbT5XER80KRZCcPO2cYw6Bvo1cZ3hPcEfJr4zQ4EIiHpqGZGCFXUd285WHAir1prMA8pY1trMF9u7DRbbQghAKGIgAnhvj5ero0dLzd0nM6vMZnsjyEoEuATowPWZadGBvt65h0BAAAgcTwhMjAsUAkgBAgggNrVuna1bjDXdmsNHWo9TfdGNMRCQYCv3INz4+FxC4kT/s61yyeKSm7UZAbgbFkF9zDU12dakqu3b6Wo/92y3Upd3dLzkcs+ffbJZVmTPdvoNtzfzyUhKvdylY0aVBPni1U13MPEsLD+RvLwjFkk8lFNwWVo9tDWczWlzVyjX7Dy7meWjrIj4cA30Os3zy2bujCFa6Rs9Hev76/IdyMQPni8fD0mgfcrh/clbnKEpCB7atz8zBiIAAAQIdZK0YWVzV/uPHuusM48lOieVm+uqG03W2wAIQCgRCKMjwxwaQxFUXR1U1dVY5eNogFAEMPjI/zvWzM1JszPI22hHRAEFhPuF+Tv1Rt1QUhntHVrB1LidNCp1je3a2iaBgABCJRycXJUkAfnxsPjFolQkBIZwbUcyL14oyYzAM0qp426yMCAEF/XjYCTxaUuOhKPLF+yJHOSxycjFYnmpzmtIRo6VK3qQSlY7zvv1NPWbRMqHp4xjme/Oq/Jwc1nT+3L5zY4Ikj8lvvmpM28kaoLPgFeG19YmTrdKdNSpzFu/+iXljr3gjaDQSzlSyU9A+9L3OQQJDllQviGZZOnp0UISRwACBDLIFjV3L39l/wzBTUGs/XadwEAAGCxUeoeA0Uz4EqZQUSwj4BTzsgwbEe3oaW9x0azAAIAoACH8ZEB09NjhpevNQAQQrlU5OcthYCxl3ezCHRpjAaTle1HktMOQqi+VVPdrO7d2oSYXCpKiBhsM1kenmGD43h8SLCcU6pU39F5qbpmgEtuCE3OvkRMUGCQt2ud5emSMu5hQljInfPn9s2D8gip0VHcQ7VOp9ZdOwJZ2tB48GK+41AiFEyKjfb01Hh4biouFzbs/uIE15EghcTah+bPWpZ+o9QtHIjEgjueWByb4hRdbLzcfnRn3rDvKZbwNVSegfclbnIghDKxMDU+9M4VWWnxwQICgxADiEUIFVa2bz+cf/pStc44qGQnq43u0poo2q4UmM7eBQAAIABJREFUAQkcU0hFBGf1wLCoQ6Xv6jEhlgUIQAz6K6WRQT4EMVJlOQqJwEsmsKdLIoT0RktLRw/trHHDhUVIZ7DUt3VrTbT9HeMQ+ColkaE+IzRDHh4uyRHhgd5XCyR0RtOxguIbOJ++GC3WNo5SBAZhsI+3S9qSlaJKG5q4lvjQkMjAkSoPdalzsNG0lb5GQJVh2F8uOYnaBnp7uwSFeHjGBfTgMvquH5PefHy3U6QUw7GZS9OXbJg+OhO4JoHhPqsfmCt0rvy+dKK8pXaYoQleX8JT8L7EzQ/LIhyDU1Ii7l0zLT7MB11R3qVZ9mJF26b9uRfLGq22az+tdCZrm8bsqOqGEOI4xq16YhHbYzTrTWYAekUbvL3Eft6uBRUeRCIUeElE3N3QgUXoKIopr21vbu+5Mg4qZGRkiLe3cgQnycPjICUyPC060nFoo+ljRcWqHu0Al4wyerPZaLlacwkhlEtcPx1Gi7Vbr+eOiQsO9pKOVDO0cD8nX8JosTikrPujS6c7mJfPtUQFBiSGX5c0Lw/PDeFKad+IU1/ZVnGpnmuJTQlddteMYRc3exwIYVJG1D3PLecaDVrztg9/Gd4NTQbLtQfxDALel7j5QQBBCKUiweTksN9umDNzcqxAILSfoBm2tKbjq90XThdUGy3WgaMTCIGr6UMQSkSC6FAfJ2UJBCiKohwPPgjFIlIiHsGe7hA6iX/RNGu12foT5UAAaA3mo7nV5fWddvENiOHJkYGJkYFj51nJc3NDEsSq6VO5lsN5+WfLK/obP/roTCYDx5fAMaxvgpPBbOau5jEIFVIJNmIfIoVUQnDyKyw2ilvz7ZbDFwtyKi5zLXfMneUt4+ssecYfdeWtDN1vsN1TUDb62K48PUeWTiAiV94zxy94ZHUk7DR2qrg/DhGevmA4Nn1J6qwVTqVZpbm1OUdLh/G6up5B1VjyXBO+J+yvCKlImDUx0kYxNht9saIVIQQQyyCsvE61eX8eAHBaapRc0m8pUu9KoXehDgkc61sThkGsd0mBAELIStGWQUQ8ho1IKJBJhBhmsPd3tdGMyWTrzyOiaOZieXPh5RaD2WZP02IBmhAXkhjFF0vwjB63z531760/OpqcUgzzf9t2Ls3MGCPqBwg5fYAwCH0Url3OBCQp4Hz2WYS4oYyRwN/Ly5F5xbCsacC4RLde/+aO3d0Gg8MSFxy0ZuZYydPg4RkSNiul7tQGhIxs8+iyvLqy3FquJX1mQmJGZH/jPcsDb7zLPXx5412zUpIHGD9zaVpZXq2m82rd1Jn9hYnpkUPqy2SzUu2N6qFOlcctfFzi14VYQM5Ii16/KD0lJkBA4hBCAFgbxeRXtG0/fOlcYa3RYuvv2itORO8Rw7Is67RZAiGUiAWOMmuEUJdG3zm4Pq3DA4PwSuNtCAHAIOyv5QXDsDUNqoOnyxrbuyEEAEAcw6KCvFJig30HJ5XNw+MRpCLRSxvv4lrOlVW89O3mGzUfF0QkKSSvscckFQrFwquSLAihDk0PRY/groGQdApvDtDZxmy1/vat9wtqnVZFz6xfPQZ1PHh4BklpXvWI3p+yUpveOmCzXv0IS2Sie55bTpCj1EIqr6qa+6MxXCNcEDMhNG16PNdSXdxYfqluSC9aWVDPC9V5Ct6XGOsgl31C92NAf0MgAFyJWQihTCKcOznuiTtmpyeECHozlBCLUE5p69YDFy8U11qslNtXxCCE4OpkbBSj0Zu47gSOwQAfmY+XBEBo7xfVoTbUt3RTFDMkIYvBYzRbe/QWlkV2T0ckIhUKSV9JXYZhqxo6dx8tyitvNlsZxLIAAm+F+PZF6UlR/nyCE88oszAjLTM+1nGIEPr0wOGjBUUMc+MLASVCITdCQrNsHUdcz45IQLrkCzWpujpGrOrDbLVx+89KRUK5WNzPSOt/t+/68fQ5x/MGAjAvbeKTq1eO0Nx4eEaBcz8XuezceZbc4+XdnD1+DMey108ZZV2LIUGQ+NxbMoScDGqblb7wy9Dkes79Mrb6XoxreF9iHMAwrM5g0RrMWoOlz49ZZ7Qw/T9lEEAWG2210TrOVQCApOigNfNSIoKUAO/dg0QIldR0bj2Yf76kzmCy9l38CwW4TIL1xicQomhGozVTnDxOHMdCA5TBfgpH5jTNwqYObVl1m21kuiVYadZsox2OCgQAg8Cl+Jph2YZW9U+nSg9cqDaZbQCxAGICAosO9V4wLSHAh1ep4xltfOXyZ9et9pJerWnu1hv++NlXXLVpj9PZo918/OS/Nv3w5y++efGzr787cry0obHvMJlYLOHEHFiWbdNoXMaQBDE31Ul5urS+Mb+6FowMDZ0qpxmKxDKx+1XOpwd+fn/vfq4l0Nv72XWrR2hiPDyjQ2VBg6rV9WPoKWwWqvi8U9wjKNw3K3tQ0vI3kIiEoHmrM7mW6uLm7s7B7mioO3ounSofgXn9SuHrJcY6EMKqJtWHW0/baIbsE9mnKFoiFj5119zoUPeq0mazZdP+vON5VTRn0W9f6uuN1g61HrC9q3yEWCuNLpW3mCwUtYKdMSlK5izjIiQJH5nEZNbTDAIAsCyyWmmumIM9xyksSOmjEKm1JgQABKC6qWvbkUtPB2aPxKpdb7SotaYrc4BCIeElF13JegL2SZZVd+w8Wng8r0pnsCLEAgAghocGKFbPTQ3wlo9QR3wengHAMGz19KlbT5zedyHXYbxUXfvQG+9eeOe/I/GK+3MuPv/J580qtYWi7FsPEqHASyp96Z47H1i6iNvyVSRwynFCCPV2ZnPmjrmzn3z/E8ehWq9/e9eeVdOzRmLy7c7OjFQklIpcfQmz1fq3r7//aN9Bo3PV5sqpmYsy0kdiVjw8o4bVSl04WrL63nkjcfOO5u7mmquxRwhBUkZkUITfAJeMEVbfP/fM/kKjvvcBZTFZT+8vXH3/3MFce+FoiU7DF157DN6XGAd0aYyni5ogLkCMa24fRpACDG3UmwBw8iXglfIGhmEuN3VXtej6ZkEhxCKWdrIjRCNYVqvae7IoLFiZHOOkBi2TCKNC/VRaC222IYAsVltTm9pqixCLrsYZIYRJUYHTUiOPX6wzmq0IsT168+nCusSIoMUzkoL8Fdf/17gyU0TRTLfOxAIcALvqHJSKBb5KqT3HiWHZDrW2oKLleG51bllzj8GGWAYACDEsyEeyfFbyzPRoHB9VPVEeHgcKqeTNxx4qa2yqbWu3WxBCOZVVaY89velPzyeHh3nqn9Nksb66+Yf39+zXmkxcu9FiNVqsT7z38cmSsrcee9j3SoE1hDDY56rcCgKgSaXSGAwuSU3+Sq/HVi776KeDDsuR/KJ/bfrh9+vXSERC4FFqWtu4h0q5jDsZmmEuVtX83w87dpw5xx2GQbg8K/M/v32gvyAGD88YJGN2YtlF1xAfYtGl0xWzlk7yDfSwdjtCqLmmo6utx2EhSCJ1erynlOlUWq3ZerUIUywU+Ht57C0IxYL0WQlnDxY6LMd35S2/eyYpuMbKtq2x68yhQsadFFVQmPttWZ6B4TdlxwE4hgGGYikLS1tdfhjKytBWl811DHO4EgAAgBja7bWIodw4GAzNMHRJXWenRu9ySiETx4X7i4UCACFASG+yltR2mPqULkWH+s7JjPP3ltp7JQEIdTrr4bMVjW2eDNEyDFvf3N2h0gHU+zggMaCUiXGsdwWGALrcoPrmp9xjF2s1OhNiaQAghmN+SumKmUkrZiUrFRK+UILnBhIXEvzl809HOAuxFdc13PPaGz+cPOupV9ly4uT/bdvp4kg4oBnmuyPHn//kCxtHD2vBpDTumOrW9sbOrj6Xgj/cvk4pc+pb8Levv397116D2ZM9ncxW29GCIq5FLhJx3YOCmrrfvPb6rrPnuWMwDC7MSP/y+af5PrA844spc90nF9WUNhWev+z21PXAMGxdRStXss0vWBk7MWyAS4bEu7t/euCNdx0/7+7+yVN3tpM6LVbA2c3U95iaa66tW3f2UGFjdbvbU1PmjfXkrrEJ70uMEwZa9TqdgxD6KqUEjq6npJhhsb7q0TKxICLQu1dQAiGThapr7TaZXfs+CQXExNjgmemRcrEAQAgAxDDo7yuVyzy5W2mjmaKq1tqW7l53CGLBvtLwwKudsHEMwzBco7NQFGX3rCAE3grx8hmJq+ZNDAn07luizcMzysxKSf77PXcqJE6VxIW19Y++/f6Dr79jsfXbVG2Q5FZWPfvh5/S1Srq3Hj/1/dHjjsOFzr5EVUtrhbtCjsjAgD/evt7FiEEoFnqyuW27RuNS1zExKpKrizchIrxHb3RRlZmelPjGow/6Kz28icvDM9IEhftlznPTDtVmpX/48DC3QtojMBRTU+706U6dHieWeuzLurqtjdugqbqt7drXDIXACF+fAKd8h5rSa1SdtdR3Hth61mZx08EpZUpMQlqEJ+f3q4FfTo0LkEQilUilUpnc5UcikcqkUk4QAhA4vnxm0rzJ0T5eEplMLutzSd8fmUwulcmwa8U0FTJRYmygWCSAEAKAAMQ0ektTm8ZG0dw2TRDCIF/F2vlpExOChCRGEHhooPK2JRnRoT4D3HyoUDRTVt/R2KHpLYGAWGiAMiTg6tIBAhgT4rt8RpJIQGAEKRCQUaHKJ26bdcfSjPBgHwyDA7pnPDyjAY5hGxdlv3zvb1zcCb3Z/OXhI6mPPv3u7n2l9Y1t3d0DKyq4haLpf23+QW++Wu0gIIhJsdErp2ZmxseJOF1WLRS1/fRZh5S1j0I+KTbacZZh2QO5F91O/tGVS++YN9thmZaU8My6VZ710hs7VS1dTj3gZ09M5uriSUTCf953t6NprJAk18yY9t2Lv58YNUqt8Xl4PAiGwYf/tE4kcbOa13Tp3/zz9wad+xjj8DCbbQ2VrVzL5DlJHrz/SOPtJ/cLclLTqy1rYd0lLwEAEIvqKlr++dtP9O4k6kQSwR2PLcH77zfNMwB8vcQ4ICrU94nbptEMwnHX9S/DsAIBEcpZQ+M4TIsPkYjImZM0JgtlzzMaGBzDLFZq28/5rV0GxPa7hYlhWKCvPDJI0dKhNtsgAMBipfJKGyKCvWPCnfI0CAKLCvW5Z8UUiYjs0pgWT0uaEBMk8txuJcOyKrW+oVVtpexBCQAxPCxYGRHi5K4E+srnZ8Ufya00mamMpNBFM5KmpUQpFWK+CSzP2EFAEM+sWyUTi17+bkujyimVqLq17ekPPo0LCYoKDAzx9RlMuk5mQuzGhdn231vU3dWcSgMMwrUzp7/x6IOhfr6qHu2Ln3/95eEjjrOl9Y3VrW1TE3urJu7OnltQc7VZ+6G8Sxq9wVvuOgEfufzle+9W63RH8otSIsO/f/H3Hlfc+/lSQbf+quqcj0w2I9l113bVtKwtx06eLi2PDPC/f8nC369fo+D0yOLhGV8olNKp2Sknf7rU91R1SdPur47f+shCkdgzoYOm6nYrZ4de5iWJTAz2yJ1HB4lcHBThW5JT47Bo1Xqj3ix3JxtVWVS/6d2DWo2h7ymIwaz5KbETPJbc9WuD9yXGOgihIF/FHUszALrSgMn5PAAQgxCh3qQmCKFMKkpPDEtNGMKngmbYk5dq2rotA/gSAACRkMxMDq9qUDV1GRFD2Sj6TGFdQlRgWNCV3KcrkAQ+bWI0hFCjNc1Mi1VIPVn+SNPsmfza5vYeCCECACBEQiYu3D/A26lVFEni0WG+i2ckQQBmpEVPSgrHMcg7EjxjkPuXLIwMCHj4zXdd+p8CAKpb26tb3af29uXu7LkOX6JVrdZwVuEigeDptbeE+vkCAPyVXv/vgY1cX6Jd09OlvZo+sXbm9P/d8qPminR0u6bnb998/97vHu37iolhoZv+9MJ/tu2cmhgfG+LhVUizquvj/Ye4+UsPLlsU7u/aYSbM3++OebNphnn78UfSY6NdhO14eMYXOIHNWjqp6HxVj9q1apFl2ANbznr7K1bcNdvttUOl4bJT0lFguM+o6dN5BAyDAWFOe4gmg8Woc+NLVBU3vvPXLepOLXAndhUQ4r341unj672PKXhfYqwDIYQQYGAI/+IQQgjhkPIMzBYby7LI7YeMA4nj6Ynhp/Jrm7uMCACWZZu7TOeL6xOiApJjgno7s16ZA47j09NiIACeXb4zDNuu1h26cLlTY7DnVhE4FugtUUhEWJ8XkktED62dSRIYSeC8F8EzZsExbNHk9DNvvvbsh5/9nF+gNXogjYHAcRedSl/5VWfbJRNJQBAkcfXrICow4IGli97asduxjv/y0JGNC7OnJSX0faEApdd/Hrn/+ifsgo2m//Dpl1wPBwCwYd4cbtNnOxiET6255YElC2X9aNjx8IwjIIQTs2JnLZv00/en+p6lbPTXr+8z6MzLNsxUuNt9HxJ1lS3cw8AwT6Yijw7+wU45TiaDxaB1amPd2dp9dGfugS1nLH3KO+1gOJa9Ois2JYxfJAwbvl6CZwjgOBYepEyJCZSLev9zWIYpqWnNKa3vq8oJIcCgh+MACKH2Lt0v5yva1XqH30MzqL3HklvSWNfk2m0Gw6BULBCQBP+M4Bn7hPr5bv7LCx89/fjGRdnDuwO3XFsiFAo4O/RWitp26oyVogAANMP8eNqpVZRUJOLWTBM4vnzK5CAfb4fFbLW+u3ufR5ycQXK0oGinc3cmAMDzn3xxuaXV7XjekeC5aSBIfO3980KjA/obsPPzo1+8trupxlWTfqi0NTh9afo5r8vHBT7OfXKtJpvZeLW67PTBgg/+sW3Ptyf6cyQAAFPmJi9aP5XgKyWuA96X4BkaYhE5PS06LSEUYjiAkGXpVpX+9KW6vNImm40e6QU7TTP5Fc07j5do9SZOQ1tEUfTR3Ms/Himsb1Zz5fN4eMYXBI5vmDfnw6ceq/z8g/WzZnBl4waDldPaNSYoKJDTyIhmmH9v/fEvX357MPfS/3z1/d++3sS9MMTXJ8Dr6jICQjg9OXFe6kSHBQGw51yO2yLskaCho/Pl77Zw346dk8WlT7zzYYta7fYqHp6bBoW37MU37/PycV8lxbLo/C/FLz/2yan9bsoqBk9bo1NSpVQx/hxyidwpg5qmWYrz3DAbLeX5dQztvhobAJA0KeqhP611W1/BM3j4HCeeoUHg2ITY4KyUiOKqVq3RigBgWFBe17nl4EUhiU+IDSKHuPoZEjmljXtPljR3aAFrb/MKkb1gArE9JupIbjVi0bpF6bHhfvweA884BUIoFYkSwkJ//PufqlvbLlbVlNY3dPRotcZrq7RymxdJRML7lyw8V17psJis1jd+3P3Gj7tdrsIxbHnW5JjgQK5RJhY9sHThjjPn7KEMAIDebH78nQ9TIsNTo6OG++YGhcFsfum7LTmVVW7PHikoeur9Tz948lFu2ISH5+YjINTn3udu+fy1XSaDG80WhJBOY3zv7z9s+fDwkttnxKeEi8QCUjio71+ln1zuJS04W2kyODWIE4oG2zuh0bmyKyLAf5AXehyhyKk+iqEZhiOXsfjW6b/syKmvdB/MnJAZ89CLa5S+crdneQYP70uMdXrlE0Zgw394d4YQSsSCzAnhpTVtpwobTGYrQKzRQp0vbgjwlotFgoSofsOy1wPNsPWt6j0nSi5WtACWBQAgAGRiIUlgWoOVZRnE0Koe495TpQSOr1mQGhPu5ynlTh6eG0VcSHBcSDCYN8w6y/uXLDxVXPYdRzvCLVMS4h5ftZzoo7Q9P23iE6tWvLnjqu/RYzTe+sprP/7tT6nRI9Vx1UpRL3+/9bsjx5k+aZMOdp45ZzCb33vy0YTQkBGaBg/PDQdCmJWdounSfff2/gGGdbX1bHrnAABA4S0dpDTE7b9dNHPppEunKlzsIvFgfYkH3niXe3jk3y8P8kKPI3D2fxia4UrvAQDWPjD/01d3GPWu/lhiWuT9L6wOibxhXtDNBO9LjAMQQlT/EbrhASHAMWzYVQSJUYFrFqSX1HaaTFYAAGIZk4X5Ofeyr7fUSy7295b1rY+8HhBCrSrtR9vOnCusdzwmBCSRkRTqLRMfyas2mlgAEGIZo4Xdf76SJLG1C9MjQ8ZfGRkPjwcREMR/Hrn/p5w8R0emvkQG+G/60/Ohvr59T5EE8Y97NrSo1T+cOO0wVre0/v6TLz579neRgZ7fNaBo+sN9B97euZerrycWCl64bd0r32/ljvz5UsET73z49R+fdTtzHp6bA6GIXH7nTL9g5Vt/2nTNwTqNUae5dvQSAGA2Wc1Ga0u9q0T0AA68C3lV1YMcOdK4qElACKHz8iNjZlLKlNicY6UOC45jM5em3/P0CqUfH5HwDLwvMdaBEJTUtL27+RTDAtxDC3SaYaUi8pnfzI0LH6ZHThB4cnTgxpVTPt1xVqO3sQwFANBoTdt+Lmzt7Fk9Ly0pJlAk9EDFM8siG0VfKm/69sDFwormXpltCMUi0Zy0iNuWZCikQrlEuONYkYVCiKUBQD06056TZRYbvW5BenS4L8knO/H8ihnAkfCWybLTU1976L6Y4KD+LveSSv94+7qS+oayhia7BQHwy6WC5X/95/d/ej4tJsqDynRdWt1rP+x4d/c+G3013VkkEPzt7g1/vvO25PCwJ979qIeT6MUnO/H8GiBIYtqCiY/8Zd32T37RdLl2iR02lJWyWV3rkaz9FyiPWawWpznjBO7S2lUkEcxblZl/ppKy0RCD/sHKuSsmL7l9upcP70h4DN6XGAdo9ebc0mYMJ1nW9ZM/PDBcIMBog3HISrpcvGTieZmxLe2aw+crO3tYxDIsy6q0piM5VXqTdX5WXHZWgvT69HQQQm0q7YXihiO5ly+VNVttFAAAYjhA7JTE4NXzU9MTQ3EM3jJvopWij1+sUevMiGVYlunWWw6dq0AIrVuQnhgTeM0X4uG5KVFpdf/ZtpNrCfX1iQsJFpBkQmjIwoy0WSnJAcprdG6ZFBvzyr2/ufWVf3ON5U3Nt/z9lZfvvfvu7Hni65ahZBi2pKHx1c0/7DxznhuRAADcMXfWg0sXAQDWz57RpdM//cEn3LN8shPPrwEMw+atyvQLUu747GhlUYNH7okQAn26wI9HX8JmcVoX4QTWt1py0szEebdkntp/KWt+yvI7Z0UlhfAVlZ6F9yXGARiEADEsA5CHfAkE7E2YritogGEw0FexbkE6y6KD5yq69VaEGMTQejM6XVDfqtKarXRKbHCIn5dy6K0hWJbV6Ez1bZoLhfXH8qprW7sZmrFPXEhiE6KCb1s8afKEcLtAXnxUwIalkwGAP1+o0JkgYmnE0hoT9ktOFUngUrEgJNAL89zuKQ/PeGHLsZOVzU79439/69r7lyyAEIoFgkFqVOMYtmbmtM9+/9TDzhnSrerupz/49OdLBa8/+uB1Jhp9e+TYK5t+qG/v4MrSAQAmRIS99tB9AUovAICQJB9dudTfS3HX//6XO8ae7PTZ75+KGoGcKx6eMQJJEpNmJkYnhR7YcmbvtyddSgKGgcxLIpG5ashqu/pNhhyz6Lqd0roIkiAFritbgsA3PrsiZUpMxqwkkUTA94j3OLwvMQ5Adrk3DEPIMwtiiGEAoOvvnIphMDrc97bFkwQkvvNEmc5oZhkWsYzFypTXddZ8eywtNmTRtIQZk6JlYoGQJIQCkiAGegs0w5gtlMVGq7r1ucUNe06VNrb3cPu7iYVkVnLYPSsyUxNDxVcqrggci48K2LA0AwJ08EKNwWhECCHa1qWl9pwsIwl8+ewJ0WG+/D4Ez1ijW69X9egMFjOO4WKhINjbWyGVeOrmqh7tlhNOWldJ4aGrpmf5yIcc2ccx7P7FCwQ4/tevvmtSXW1Ib7Jat544veP0uRc3rL9j7uzooMDBizzQDKPq0R4rKvnHN9/3FfYWCQQrsjK//sMz3BsKCOLO+XNMVutzH32uM11VujhSUPS79z7+/Lkn+WQnnpsbLx/ZnU8sjUkO2/XlsdZGldkw/OQCgZAMiw4sOHuZa+xs1Vz3HEebrnanOUtkQqlX70ND1aoJjezdYhBJhDOXpI/25H418L7EOACDUCwS0CzEPSTwTrNAJCQ9VR0dFuy9av5EkZDcc6qsXa1jaAYAgBCwWpni6rYWlXb/2bLUuKC4sIDEyICwIKVDgtq+NeDwaaw2uk2lLahsLqpuq2vp7taaujQGmmUBgPZQLMTwmFCfxTOS0pPChX0630WF+q7JTiMI/KfT5TqjxX5rndGy51Q5RTOrs1PjI/ltS56xgsVmO3Qx/6vDR6pa2lRarYAglDJpSmTEPQvn3zIt6/rvzyJ0sqTUUeQAAMAwuDwrM8J/mCVSOIZtmD/Hz0vx0BvvtnU7fXlTDPOvTdu+P3pyRnLS9OSEWROSJ8fHDnCrDk3PmdLy06VlRXUNORWX9WZz3zH3Lcr+x8a73Homd82fozebn/3wM65xf07evf9569ORqQjn4RkFEEJW26BSjNJmxsVMDCnOqdaodNce7Y7IpGCL1Tp9aapGrT1zsMhhH4++hLpdyz0Uy0QOlQxVe7dvkJe7i/oFwzCuxCfPIOF9iXFAfGTA3x5ZwrKspxJ1GJYVkkREkAf28CCEJIFHhvquzk4N9JfvPFpYeLkNQgKxNEDIYqNaVbpWlba5XaOUN/jIJb7eUm+FRKkQERgUCkiJWKDVm81WukdvVvcYDUZrh1rX2WM0WSgIMcQ6h3ER6tTo29U6t14QSeJJMYFCAcGy6MC5Sr2FRrQNAVatNe0/U8aw6O5lk0ODvfngJs8Nx2ix/P2bTV8ePqLRX80oaO5Sl9Q3HszL/82Cea/cd/cwogdcbBS9/dRZbqWyWCDYuDBbKBj+16SAIJZmTj71+v/e+f/+27eLS117R117x4+nz8olYqlIdMvUzDA/P5FQmBAWIiLJbr2hrVtTXFvXrO6+3NLSqdEaLRa2/+CoRCT0U7j/C4iFwsdvWR6oVPZNdnrqg08+f+4pf+WyJ0mOAAAgAElEQVTQVg88PGME2xUtl2siEJOZ85Kv87UCI3zmr8vi+hKtdSqr2SYcdGfYGw7DsK11TkoXEplIpuiN7sakhA3+T2qHwHHelxgGvC8x1kEI+XpJls26rqdGf3dGCHlkbY1jWLC/15IZyTKpMOxCVUl1e7NKxzIsQggAFgDQrbV062x1mA4hlsCQQirEMSggCYmY1BksFiujNZghLgQAIZZFiAEIIcTYu7sBABDL2gXpVBrj4fMVMrFw0fQEP2+Zy+QJAo+PCli3IM1io4/lXdaxOGAZhOhuAziSW4VjcO2CtMgQHz7ZiecGYjCbH37zva2cLqtctEbjB3v3UzT9zhOPDLKewS35NbU7z5znWh6/ZXlGXMywb2gHw2BsSPC+V/729s69W06cqmvvcBlgpSirlurS6t7fe+B6XuiT/YfC/f2fW7/a7dn+kp32ns995qPPPnjyMaWMV7Hl4bk2gWE+Ch+po+SAZdiic9VZCybc2FkNHq3a4BJLCQzzGaTIBo8H4QtSxzoQwhHaSvf4ncVCMjsz4fHbZ9+2OH1KSnhIgEIkJOz+AAIAsQxLU4ihKYrp1lq6NOZWlb6mSdPZbdIaLAgBlraytA2xDAAQYjiEmFwsjAv3jQz2FgtJADEAAECoprn7y30XjuZcVve4b6QdG+l/x5KMRVMTfeRiDMMBAIihOzXGXceL9x4vqWtWs4Nuoc3D41lohvn84C8uq/y+fHX4yAd7B1KnGhirjfrjZ19ZORtyob4+z/azLh8Ggd7K//fgxi1/+cNjK5d5ZNWOYdDLuVDEaLG+9O0mlyZULtw1f87L993tYtx87OTDb77X1t19/bPi4bnpwQksKtGpB1rBmcobNZlh0NOl7+5wynGKnRh2oybza4b3JXg8BoQQx7GQQOXtizP+9vCSOxdnTIwLlEtJgFiAWACudqBDiGURy7IswzAsaw9fXLkJQBAgAJCQxKemhD3zmzm/vXVqSkyAgMQBgAAAlmE7u/Rf7c09k19rNLmpPCNwLCkmcMPSyYuy4qRigf0qxDJ6k3XvmYoDp0rbOoeZY8rDc50U1dV/+NMBrn4CAEAidN1Foxjm1c3bCmrrhvcqe87nnCkt51o2LlrgcU23rIS4Nx59cP8rf189fer13CfMz/eDJx8788ZrEyKcFgE6k/l/vvrORaKOiz3ZafOfX3Cx/3j67GPvfKjq0bq9ioeHxwFB4JGJwVxLaW7tsMswRp/6ylaNyklzI3YC70vcAPgcp7EOQohFiKIZezunQV4EEMAwzC7TNsoFAhiEIiEZGqhcPmdCVlpkc7umrKa9vlXT0N7drtYxiECIBb0ZVgAAhNkDDr1REibYR5oYEZAYHRQb6RfkKw8PVCIEZGLRd/ty8ytbaQbZL+/UGL/al2MwW1fOSVHIxFyZbQghjsO4SP91C9NxDO44XmKj7TJ2QKMz7TlVxiC0en5aZKgPgfO+NM/ogRA6X15Z13Y1L0giEj65euVz61Z7SSWvbtn+1o49RovFfkprNJ0sKpkUEz3UV9EajZ8f/Jnrn4f5+d6dPef65+8ChFAsFM6YkLT7n3+t7+j8dP+hE8WlreruDk2PyTpQexmRgFRKpYHe3hOjIpZnZa6ZMdVeY33hnf+uf/nfRwuKHOK7Npp+7Ycf/bwUj9+y3O2tHMlOL3z6Jbf4ZM+5nGdEfLITD881wHAsMiFILBM6WkJZTNaSnNo5Kyfd2IkNkvyTldxnXWRCkH8o38ztBsD7EmMdCGFzu2bviRKaYQcvMcswTGy4/6p5E0d0bgMAAfDzlvl5y2JCfRMjAjo0RpVGr9GbuntMKo2BRYihGauNZlgklQgwiJEk5iUXeysk/l7SEH+vsEBvX++ri4ApEyJtNppm2LK6TosNAMQyNF3b0v3j0SIWoVvmpHh7ua4YcByLi/BfNT/VaKFOF9Zp9ACxNMvQap15/+kylkVrstPiIofZ04aHZxhQDNOk6uIGJaYnJvx5w2329e6Ld6wvqqnbeyHXfoph2cvNrQw7hE89AAAhdK688mJVjcMCAZiXNnEAZWuPEBUY8OoDG602qqi+vryxqVtvKG1o6tBodEYTzTIUxYiFAgFJRgT4e8tkcSFB0UGBEyLCA72VJHH1O0gmFn/w5GOPvfPBkYKrxaBGi/VPn39tMFv+cPu6/l79rvlzKJp+7J0PucbNx07aKPrd3z0S7OMzEm+Zh+fmICTKPyDUp6GyzX7I0GxZbk3mvKS+6hNjjcaq9prSZq5l8YYZN2oyv3J4X2Ic0NSu+XZ/IcTJwWvVQYyYmqy9gb6EA5LAQ4O8Q4KUCAGAkI1iVBoDw7A0zZgtNpphFXIJjkORkFDKxSRB2MMTGCeYggAQi8jZmXE2mt11tCi/soViMIBYiFB9m277LwVyiWhBVrxC7to+kiCwhKjAu5dnYhAezavSmwFiacQyagN16FylgMBvFWcE+cl5GTue0YFlWYPZwrWkRUc5Ns7lYnFKVITDlwAAqLRag9niNRTFCYph9l3IVeuupigIBYJ7F2VLRaOxLBAKyKyE+KyEeACAyWqlaJphWXsEEsMghFBIkASOEQSB9RMtjQ0J+vKFZ5b95R9ljVeXCPZkJ4vN9rffbHB7lVgofHDpIi+p1KWz04+nz1IM/dmzT/KdnXh4+sM3yCs2JczhSwAALhc2ttR2xqdFuIy0UtQfP/v6aGER6EPqY0+7vblK65QudbSguL+RXJ756LM/f/mN/feHli5+dt0qt8O2vneYsl1dFHn7KzLnJl3z5jwjAe9LjAMwiFE2MwK2IfgSOInB6xej8wBXCrx7lw44joVf6UWLAAIIcLQm3JeCQwAQhEIBuWJOikhAsCwqqmm32RAAiKVtDW22T3edw3FsVnq0t5eEewsIIUHApNigO5dNJgns4IVqvZEBCLG0rVND7TheguP4yrkTIkJ8+EaxPKMAhFBAOD1y86prDGaLTCwCAOjN5qK6eu7ZH06eKW9s+u2KZYsmp8cEBQ6mU2FLl3rbyTPcT/6sCUlzU1M8Mf2hIREKQZ86kGsCIQz39xtGshNJEHfOn6M3m1/45EtuZyc+2YmHZ2AwDMucl3R8dx7L9D45dBrjz9ty4lLDXb4ZEUIqrbaRo1bpwK2xL2abbTAjuzi7IdzG1tyZXDxRfrmw8aoJgrSZcYSHNLh4hgr+0ksv3eg58IDiqtazhb11lhAjYkO950+JJ6+0Lm1q79l/qgxADKDBNiCCGB4V7D34TrI2ij5wuqxDYwIsAwAQCYXzMmNiQv2G+D4GMTEOGIT23corXOtaAPx95HKpsLNLq9GbGcb+14AmM3W5USURkeGBSpHQzXpLIRf5KaU0RTe091C0XbMCWimmsUProxBHBHu7vYqHx7PgGFbV0vbzpQKHroKqR2ulKD8vr26D4ZP9h7afOmN17obe2aM9mHvxaEFxSX0jACDMz8/FG3FAM4zOZH7l+60nikocRgFJfPH7p2NDRjbByeMISHJGclJJfQO35yxFM6dKSgkcn5XS72MtPjQYx7BjhcVcY0l9Q4tavXjyJCHfNp5nbDNUMQRPofSTN9V0tjeqHRZ1e0/cxDC/YKfaA5phdp/LqWpt63ODEWRGcuL8NNcMC32Pad83pzuar7ZrU/rJV94z2z/keoslMAwj+QfF0OHjEuMAmmUhLsAIAcsM8kEDMYKkmDERl/AIDi9DJhHOyogVi8hv9uQUVbfbGARYhmGYpo6e7b8U4BhcOz9N0EcSW0ASSTFBJI6zLHs0r1ZrohBjQ4hVa007jhVJpIJ12emj/I54foVACNNjooJ9vJuu7MyZbbY3d+z54tAvEEKt0WR1t5JAAJQ1NpU1Nm09cTotOnLjogW/XbGEO6Csoen1H3eeKaswmi0uGQVrZkyblTIug/7DS3ZSSCQv3LaWYhiX7k+bjp6IDQ56aeNdIztpHp7xCU7gdz+ztLqo0aDrFaGnbPR3bxz4n08fFo1J3brLhY3lF53a3E2YEtM3KYtn1OB9iXFAiL/iltkJFMMQ+CDjd4im2ZTY4GsPHIfIJMI5k+PMFgqB/KLLrZQ9XMOyNc3d248UYhDLzorzUUpdwhwkgSfFBN26cBLDoqM5VXoLBhDLMlRta8/p/LrJSeGRwXyBJs+IMyc15dGVS//nq+8dFhtNuzgA/aEzmU6Xlp8uLX9zx67HVi5flJEuFJAf/XTws/2HtZysHgdeEsnvVq0Yp+VAAyQ7vb59V6if74NLF7m9UCwUvnzv3TiGvb59l97cuzBiEdp8/OTqGVMnx8WO0hvg4RlXKLyls1dmHP7hPNsb8AddbT0n9+YvWDdlrCUOGXXmX7Zd4FZKiCSCBevH3Dx/VfC+xFgHIRQV4vvHBxYizvb8IK4CBI7ZMylusloAhACEcE5mHE0zEIDimg4rhQBCALHVzd1f7DmPYWD+lHgfZZ/0aAjiowPuWJJhtTEnC+rMFitCCCDU1tlz9HzFA+tm3oh3w/Or49l1q3++WHCiuHSAMVMT42mGuVRd6/ZsRVPLsx99FhcSrJRJ86trmX60FwUk4TbQMY5w29lJazL98dOvTBbrk2tW9nfhM2tXGczm/27f5bBUt7RdqLjM+xI8PG7BCTwre0L+6YqOpt7EIYZhj+/KjYgLTJocZbcQOL5xYfbsiaOqij05NoZ7aDFZt7x72KV908Jbp0Ym3Jybp+MF3pcYB+AYlIqHowmPbp4sJ1fEQnLxzGQBSdA/5ZbWd1EUDQBiaaZNpf1s93mRgMiemiAWuQZn7dGJpbMmqHWmoqo2q80GENulMeSWNPC+BM/oIBWJvn3x90++//GeczluByyanP7O44/4KRQ5lVUvfbs5r6ra7bDqa2Utq7S6R956v+Hbz653xjcUt8lOar3+D59+aaVsz9/mvlGsUib9xz137c/Jc1zFInSiqKS/0m0eHp7Q2IDJc5MOfH/WYVG19vz48ZE/f/igXcGJwPHlWZNv3AQBQujUTwUXjpRwjUERvit+M+tGTYnHDl97PSYYoPZ6UFXJ/QDhYIMSo1Z7ff3Y31Gvxrafl69S2tGlVfUYWQTtutpmK1vXpiZxLDxQSZKES2cnDIMCAldpDFWNaquNhhCQBEYSxK2Lx4c0D89NgJdUcuvsmQmhITVt7SRB4BgUkQJvuSwmKOi+xdmvP/pQZGCAVCRKCAv57Yql89NSSRw3WW0agwH1vz2AY5hcLLJSTq3etEZTt96wPCtz5N/TSAEh9JJK7lu8IO9ydUNHp+MvQLPshYrLAd7KjLgYtxcKSCLQ23vbyTMOC4Fjj/G+BM8Y5kbVXtvBMBgQ5nPxRLnFZHMYe9SGpqr25MwYoejGVyTnn67c9dlx7vRIIbHs7pkJnquU4Guvhwcfl+AZx4jFgmlpUVYbzTCXKhpUVgoAxNI0XdXY9eORQpZFS2cm9ZWxk0oESrkYwzEAAQAIIUANukEWD49HEBDExkXZc1NTGjpVXVodQshLJk0IDYkIcNVPnJ8+ccaExNq2jiP5hfsu5J4sLjXbbC5jFBLJE6uWp8dEN3aqPvrpILf90eZjJ/961+2B3soRf0sjyfCSneJCnNIe9CbzyM6Sh2ec4xvodf+fVn/9f/u6O7QOY/H56n3fnFr9wFxpHxGn0aSuvOXHj49q1Qauccr8CdMW3ngdLR7el+AZxyAEJCLBvKx4imZ2HSsuqm6lGQgQgghUNfds/TlfLCAXTE+US50yxIxmm0ZnZBgWIAAgxDAgJG6umhKecUJkYEBkYMA1hwlJMjkiLCk89DcL5xXXNby+fdee8075Ua8+cM8jy5cISZJFKCLA/9G339ddWTcbLOa8quqVU6eMyBsYRYaR7HS+vJJ7OOjeFTw8v16SM6LWPDhv89uHLCar3cKy6OTeS2KpYO1D2TdqVjUlTe/99QeD1mk7ICw2YMPvFksVN9LD4bEzLlt88PDYsSvciYWC1dlpdy7LSI0NEhC90UmWttW3dH+6+/y5/9/efcdHXeX7Hz/TJ2XSeyEhQEIoIfQuTVQUUexl3dXd36677npXXbf3u7tu0eter3fv6q4VddW1ACoivUMILQRCGqT3nsn09v39MWGI6XwJJIHX88Efk++c75kzQJJ5f7/nfE5OSVOLyeF0eTwep8vdYbHlFFaeKKyyOxzeFSX+el1C5KUWpQYuN4VCERoYeN3UyW/9+MmIIIPvuEqpfHjlCu/mCUqFYlbq+NjwC0XJPB6ptrmll+5GG19lp5UzMlVdilPZnM7fvfPv/924qVv7qqbmlzd90fVISuwo22cDuPIUSsXM6yYuXPWlOukup3vTWwfWPbepramjn5mWl4MkSTn7C1/+z/XdgkRUfOjjf7yXIDFCkCVwlZg/LeWu66enjQnTatSic/aSqG0y/v2j/e9tOZ5bWFNV31ZU1rBxV+4HW08UVzQ7nS4hhEKhjAgJnJVOXWqMGgqFItDvwm9QpULRdadnu9Pp6tyQsVNf29uNRt7JTt32rmq3WH617l8/fW1dUXWN90hWfuHPXl+XU3KhAr1SqVjSY8crAD3p/LQ3f2VhxoIJ3Y7v35Tz9vOfVxTXXbGRWM327R9kv/PfX7Q2fKlwdnB44NpvLguLCr5iI0H/rp7fMbg2+VZWGwL0180ar9er3/r0aF5pvdO7jZ3LXVrT+tnevJOFVYEBOpvdVd3YXtvY7nR3VrlSKsWY2JAV80flfl64NqmUyviIsLL6Bu+XTrf7ob88v+PPvxdCOF2uf+89UNXU3LXxmEFMoxpFep3s1Goy/eXfH7++dUdcWJjL465pbmkzmbueNTY6etm0qVd8sMCoFBQa8LUfrn7p1x8V51b4DkqSlHvobHVp4yM/vjU1M+lyj8HUbnnvxa3H9uS7nO5uT9143/zMRWmXewAYPLIErh6GAP3SWalWm1PalpN3rt7VuY2dVNdiqm+zKBRKIUmS5JE66/ErFCr1+ISQ+dOSQ4P9h3nowKBp1eo5aamHzhR6zk822JlzauI3vnPd1CkltXVdVycLIWLCQqaPGzscw7xc+trGziNJ9a1t9a1tvZ5124K5M/qo+ASgp6DQgId+cPP7f9ual31hoxtJkppq25594q2b7l8w9/op8SmRsutM9kWSJFObpeRM9eZ/Hey2j4QQwhAasPqri5evHfULwK4yZAlcPSRJqFTKZbNTXW6PUnEqv6zR5nAJIQlJktyu83M8vYVyFSqVIirMsOa6qQsy+ISB0UStUt25aMFH+w9VNDT6DhZW1RRW1XRrqdWo/+tb3wgO6LFv4+jXa2WnviyZOvnpu9ZqrqK5XsAVEJsU8ZUnb/70zb3Z2/O6zZz84r2DOQcKZy2dNO+GqdEJYX31IMOJ/YWHvsjNzTrr24HbJzox7LZHlsxePnkIXw5Dgv0lRoR+9pe4MkbR/hL9UyiERq1KSYgINvg3tpia2y1uj8e770SXNkqF8CTGBH99zZyls1PDQwKG/MoKcFnFhYc5na4BP0Z/65Ybn7pjzdX63zvUELg8M+PQmYKuc7q6UatUaxfOf/snT0WFMLUaI93w7i/RK3+DPn1Gst5fW5pf022ukandevZU5ensEiHE2PT4S3+tsoKaN5/9bOdHR6pKGnqu8E4YF/XNX65NzUzybpx3mbC/hDxcpxl5FArvlmpOV/c5gpfrBYVQKZXeLfFG9U7Zvm3sdFr1vGnJwQb90bzykwVVZbUt7WaHR6iFkIL0ytTEyMz0hKlpcROTY4ICdFfrJy1cxdQq1U/uu6uqqen9PQeajMaeDbRq9eq5s39+391K5VVbYMM72enQC8++sOHT93fvL66ubjJ2eJ9SKZXhBkNiVORXr1/68A0rgvyZxAjIpPfX3Xjv/LDo4A//vr21saPrUx6PVF/Z/O7/bNn01v4510/JmDc+PCbEEOqv99MO5herx+3paLN0tJlL8muO7jpTnFvRc2mEEEKjU89ZMeWhH9ysUl21P81GO8UVLu+FXr2z6cizb+70PlYoVeMTwm5cMFGlUnk8V+JfR6VU2Byujbtz65rMkuQWQgQHGX71rRUr5ozutU0ut7uxxXS2orG2qb3VZLXZXEqFIjzYLyk2fPyYyMhwg5IUgdHM5XZ/sO/gS59t3nsqz3dQpVSmJcR/e/VN9y5ZFBUyureoG7zq5ubjxefO1daZrTa7yxVmCEyNj5+dOj6S2xEYJSRJ6jCbB243fApzynatP3o6u8Ru7b5dppdfgC4yLjQ6MSwuOTI8JiQ8OigkwqD312l1aq1e43Z5HHanw+bsaLW0Nhmb6421ZY0N1S11lS1dt8brJjYpYsFNGYtumR54Rcq/qlUqfz/qzF40ssSI8M6mo8++ucP3pUql1ur04krdJVAIIQnJYbN6zq9iDA42/Oqboz5LSJIkCeHxSJ2EEEIohUKhVCiVCoIErgJuj6fdbG4ydry7a2+byRQcEDgvPTVjbHJMaMhVfEeiH26PR5IkpUJ5WSdCAENu5GcJSZLsVkdRTsWG13ZXnq3vp6VSpVRrVN4/SqXSO9XC+3vY45HcLo/L5XY5XS5Hf5Mv/AJ0y26fteKuOf4GvfpKTfkmS8jDHKeR4cu/9dxul9Vi6qPpFaA4/2d0887aUqpG/RsB+qJSKsMMhjCD4ddfuW+4xzIiqK7JBAVcAQqFQu+vy1gwIWPBhJ3rjx784mTl2fqeK6SFEB63x+H2OGyyln8oRHBY4MTpySvvmZuUGnupg8YVQZYYEfRatSFA32Gxi5Fwm0ghtGqh01y5ld8AAGC0WL521pQ543IPFR3bU1BeVOu0u4ak27CooEmzxs5aNnnybOorjibMcRoRThZWf7zjxP6cklaj7cqskeiLSqWICg1cND3l/lWzUhJGXx0nAABGnZE/x6knySOZTbbasqasbblHdp2xmuyyuxozIWbpbTOnzh/vF6DT6jTDVROFOU7ykCVGhPYOy6ni6m1ZhfUtJpdLGr5ySgqNRpkYHXT9nIlTJsT5++mGaRgAAFxDRmOW6MpmdZQX1BaeLC/JqzK2mu1Wh83icNidbrfH4/K43R6lUqFUKVUqpUqj0vtp9f5anZ8uJil8YmZyamZSRMyIKJNAlpCHLAEAADCcRnuW8HE53aZ2i7HNbGwxW002p8PtdLhcTpdSpdRoVGqtWqvTGEIDgkIDgkID/AJG1iVLsoQ8ZAkAAIDhdNVkiVGNLCEPJS8AAAAAyEGWAAAAACAHWQIAAACAHGQJAAAAAHKQJQAAAADIQZYAAAAAIAdZAgAAAIAcZAkAAAAAcpAlAAAAAMihHu4BAAAAXOtUKtVwD+Fap1RyhV0OhSRJwz0GAAAAAKMPCQwAAACAHGQJAAAAAHKQJQAAAADIwdprDI+9x8/986OsFqPlxvkTH1o9MzTIf7hHBAAAgItDlhgpPth28o+vbvc+DvDT/v67q5bMGj/Ic6125x9f3fHZ3jzvlxEhAVtf+vZlGeXQ+e+395TVtAoh3vn82ISkiFUL04d7RAAAALg4ZImRwul0+R5brI5P9uRlpMYN8mp9blFNVm6Z70ubw9V325GiptHofeB0ufPO1pElAHmqmpqf+2C993HmuLEP37BieMcDALimkCVGIkmIQ7llOYU1y2YPfGvC4XR9vDO3ud18+cbj8Uif7sl7dcNhSZLuvD7j4TVzLr3PMTGhZyubhBBajWpGesKldwhcm8rrG17Y8Kn38c2zZ5IlAABXEllihLLZXe98fmxhZrJWM8C/UUVd277jpZd1mxC3x5NbXFNV3yaEKK1uGZI+f/jwsve35LSbrIunp8yclDgkfQLXoK57BLFfEDB6NTe0P/+jt8+erpRxrkKhuOWBRQ89ecuQjwoYEFli5DpZWL376Lkb5qf13+y5dbtsdudlHYnHI7V3WIe2z9mTx8yePGZo+wQAYJSyWx1Ws13euZIkdbRbhnY8wCBRE3Yk0mvVQgi3R3ptw+H65o5+Wu46Unz0/DUMP93lSoaSJHVYHJepcwAA4OevCzDo5Z2rUCiCwwKHdjzAIHFfYiRas3TKhp2nHC53WXXLloMFD948U6XqJfU1tHS88/lxjyQJITLT4m12Z0FZw4CdO13u5jZzu8lmsTndHo8QQq9VBxv8okIDddre/z94JKmtY9gueDS0dBjNdrPV4XS5hRBatcrfTxti8AsN8lMpu/+1mCz2uuYOX2ONWqXXqoMD9WHB/gPOFgMAYLiERgb97rXHeh53Od0v//6jvZuOe7/81cvfmjwz5coODegPn65GooljozJS446eqXS43Duzi1fOS4uNDOrWRpKkgyfLCkobhBD+es29N2a++cmRAXtuajOv35GblVte3djearR6P3AHBejjooIyU+NvWzYlLTnK17i5zZx1qry9w1rbZPSVXTp9tva5N3f52qhVyrUrpibFhgkhOsy2T/bk1TYatRr1bcsmew9W1LUez6+qrGuzO1xajeqh1bO8xal2ZRcfy68SQkSEBKxeMjkiJKDnaFvaLVsOFuw6UlzX3NHcZrHanUIIP50mPMQ/ITpk9XWTbl40ydfY6XIfOFH6xYH8M6X1vsZ6nTo4wC82MigtOfKu66eNS4wY1D8AAAAABoEsMRIZ/HVrlk7JL603Wx155+oOnyq/ffnUbm0cTveWgwUWm0MIMSklZvrE+AGzRH5p/U9f+Ky2yeh0eboeN5ptxlJbUVnj8YKqP39/dVJcmPf4m58e+Wh7rsvtcbndviWdpdUtXZdfa9SqtOQob2xoN9k+35efX1qvUIgxsSGJ0aE7sov+7/0D9c0ddqdLkoRCIZbNnuDNEgdOln28I1cIkRwXtiBzbM8sUddk/PXft+QUVnsDj4/V7qyqb6+qb9eoVV2zxPtbcl75OMtotnVtbLO7bPaO+paOk0XVWo36ya8s6f+vCLhmFVRWrdu261jx2XN1dS63J9jff1JS4uq5s3yA7TMAACAASURBVFbPnR0c0EvU76ayoenlz7ccPJNfUlcvhEhPTFgxPePpu9YO5qWNFsu/du7dmXPyVFmF1eEQQkxLSZ6dOmFFZsb8SRMv8X0BAC4rssRIpFAoFk0fu2lvzOHTFW6P9Pon2dfNHBcW/KW9Jo7kVRw7UyWEUKuUa5ZOjgoz9NOhJElF5Y2//Nvmiro2IYRSoQgN9o8KC/TXa2x2V2OrqanN7PFIReWNv31564s/WRvgpxNC2B0u6yBWdauUis5XEUISkhBCksTps7WNLaZX1md1zS1da8z0X3CmsKzhyWc31J1fK+K9FxEdbhBCOF0eo8lmsti7zsg6ll/10gcHvcnKX6+JDjd4/7rsDpfJ4jCabUazrVsmAeCVV1bx1483frDvgNHypRILuaVl7+3eNzEx/j9uv/X+pdeFBPaeKBrbja9t2fZfH25obDf6DpbXN3xx9Phv3nr3Nw/dPyct9eZf/NZss+s0GttnH3Y912S1bTue85NX3yyqrul6vLy+4ZND2b98852VMzLfePr7ceFhQ/d2AXTX0WYxGS12q8NhdzqdbiGEQgi/AJ2/wS8sMkjTx/znrlqbjMZWs93q8J6u0aj8A/XBYYGG3iYddJ7SaDQZreYOq9vtEULodBr/QH1oVJCfv66fF2pvMbW3mKxmm8vlEUJodWq9ny4w2N8Q7K/WqC72jWNIkCVGqBCD3903ZB4+XSGEqKxre3V91g8fXu571mSx//3fB1xujxAiPSV66UA7ZDtdnne/OFFW3SKE0GpUK+el3bJ4UlpyZGiQv9FsKy5vXPfpkX0nSoUQOYXVH23P/eqts4UQNy+eNCY2VAhhd7j+97393q4mj4u5aeGFK4VqlTIjNa7nKx7KLW9sMem06qkTopJiQ1MSwr3HE6KDB3zvbR3W1zdm+4LE+MSIe27InDw+Jn1stBDCanfWNRkbWsw67YWfGq98nOUNElqN6smvLJk5KTE5rnPaVVObubapo67JODY+fMCXBq41W4+deOrlV/PK+yxDWVBZ/YOXXztWfPYPDz8UHRrS7VmzzfbzN95+a/tOm6OX6w5mm/3X6/6VGh9vttmFEHbnl9o4nM5Xvtj641fedLj63F6ztK6+1WQiSwCD11zfvuuTIyajNSgkYMXaOd412aUF1UW5FY21LS6XJzIm5JYHFwshJEmqPFd/bF9+8anKprrWjjaLucNqt3aWWgmJMIRHBadmjLn+jnkJKVF9vVx9VfPRvfkn9hfUVTZ3tJltVocQQu+nDYsKih0TufCmaQtvzOx2iqndcnDrycM7TzfVtTXXtzsdLiFEgMEvNNKQOjVp2e2zU6f2UubRarYf3Xtm/+YT1WWN7c0dDrtLCOEfqA8KDYiMCx0/OXH1g4sDgwe1wy+GFlli5Fo8I2X6xPgTBdVCiM/2nbl92dQJSZHepz7cftK3zPqxexYG9hvihRCVda2b9+d7V2nPmTzm+w8sjgjtLPgQFKCfOSkxIiTg9Nm61g6rEOKjHZ1ZYlpq3LTUOCFEh9nmyxIpCeEP3jxzwMHXNhqnjIt58qElKQnhOo1ar9MM/o3nl9Rnn67wPk6KDXvpF3cHG/S+ZdZ+Os3Y+PBuweDYmc5PQrMmJd6+fKqvsSFAbwjQkyKAXp2tqf3xq2/6gkRSdNSjN99446zpIQEBp8vKNxw8/PrWHUIIq8OxbvuuuPDwn913l16r7drDPzdvfWPLdqe786bf3dct/Nr1yycnJbaZLXtyT+/Myf0kKzunpLTXV8+vrHpl8zZvkPDTan90zx3z09PSEuKFEMeKz2UXFWcXFtW1tKmVXGsELkJrk3HH+uyWBmNAkN+0+amBQX6b3zv42Tv7TO0W76d2Q0iAN0s47M51z3925liJ985AN21NHW1NHSUF1ZUlDY/+4s6ouNCebcqKav75h/VlRTUu55fu/NusjpryppryJrPJ2jNL/P23H5zMKvYOxsfcYTV3WKtLG3MOFT7+u/sm9Vhf/v5L23ZuyPZFHS+LyWYx2eoqm/OOlqSkx89ZNmWwf00YOmSJkUujVv3wa8see+ajtg6r2eLYllWYHB+mUavKa1o+25MnSUIhxPI5E+ZOTRqwq3WfHe0sgqRR3XF9hi9I+CTFha1dnvHaxsNCiMZWU35pvfcmgGzR4YZ1f3hQ3rnbDxe1dViFEGqV8sGbZ4QN4jKD6/zPwQA/Xc/iTgB6crnd/9q5J7e0TAihVilXz539yhPfCw/uLPOQEhuzZv7cNfPn/Mf//bOyscnpcr+zc8/Ns2fOS7+w401BZdXrW3Z4g0Sgn/65bz7y6C03+Z7NHDf2+2tv/eRQ9k9eW5df0ct9j+Lq2tK6eiGEv0735g+fuGvxAt9TyTHRd3b5EsBFOD+D2Gy01lU2bfkga8+nR7/0/Pk5xh6P1FDT4vFIAUF+/oF6vZ/WNyWprbmjpcFos9glj3Q6++ymt/c98qM13V6nqa7thZ++W1PeKIQQCuEfoA8OCzSEBqjVKiFEa5PRarZrv3wlsb25479/+q8zxzuvLxhC/MOjQ/wD9S6nu63J2FTX5vFILQ3GP37/9d+//ljShFjfids+PLz53c5rmoHB/mGRQd5bEDaLw2q2mTusJqPV42GzzuFBlhjRkuLCls4at3H3aY8kbT9cvGpRelJs2N7jJdUN7UKIqLDAu2/oHvd7tf9EifdBVFjgzPSEXtvMSI9/baMQ3h8uzR2XmCW0lzBtMe9cnfdBREjA5PExgzklMSaksq5NCLH/RMnuI2cXTh+rUXMtE+iP1eF4e+du72/fiYkJP7//Hl+Q8Ll17uzSuvpfvPGOxW4vq6v/JCvblyUkSTpSWHy2pnOdwwPLlnQNEj5r5s/Zdzqv1yxhslotdrsQIjo0eEJ8bM8GAC7Rh//cUVPWGBQWMH5SYlxyZHhUsBBCf34ug1qtmr8yQ6fXJqREh0UFGYIDohM65xNWlzacOFj4ybq97c0dQoije890yxJWi/3v//lhZ5AQIi0jacXaOWMnxsUkRnjzQ+W5urYmk0p94eqe3ebY8OZuX5DImDvhpvsWpEyMD40Mstsclefq9206se3jLLfL47A5N72z7xs/uV2n13pf68N/bveeFREb8vDTa5InxEbGhQohjG3mtiZjS4OxoaZ1XB8fb3C5kSVGNL1WvWJu6r7jJc3tlvLalo925H733kVbDxXYnW4hxNyMpCmD+KidX1rfauxcUpmeEm0I6H0rnPSUzq4kSZiGdWc630qJYINfSKDfYE65ccHEVz7OEkJY7c7fvLRl1uTEb9w+Nz3lkuIQcHXbdiznbHWtEEKhUCzNmJo5bmzPNiqV6vrp017ZvO1MRaVHkjZnH3vmkYe8Tznd7kP5hRa7QwgR5O+/dsG8vl5Iox7gF01ju7Gpy7ptAEOlpqxx8arpa762JCImRKNVd1tFrdao7vx/K1RqVc89rOLHRkUnhFeXNOzceEQI0VTXVnG2bkyXjxzH9+bnHTnrfRwSbvjOr++OTghTdpkXkDguJnHcl/qsr2w+trfA+zgtI+mJPz4QENT5K16n146fnDhmXExDTcvx/QVCiLN5Vc317XFJkUKIqnP1bec/GCxdPWv2kgslHINCAoJCAsaM52LEcCJLjGgKhWLGxITZU8Z8caBAksTGXadjww155+qFEH46zaqF6f567YCdeOcLdXYoFEfP9L7I0rt22avXrfGuGKOps65reLD/YCY4CSEeu2fh6eLaI3kVbo9kNNt2ZhfvzC5OT4letXDivIzk6LDAvhIUcM3afPSYd0KARq2aPylNrer9Vt6E+LixsdFnKiqFEDklpW0ms7egk8vtzq+s8rZJiY1OjulzaWZfUmJjEiLCq5qaTVbbYy++9KdvfC1z3NjEyIi+RgLgYs1YNPF7v7u3r2cVCoW279WMao1q7MQ4sbHzy9qKRl+WcNidB7fleqdKKRSKrz61OnbMwNs3lRfXNda0CCG0Os1N9y/wBQkfrV5z4z3zT2UXOx1uY6vZ2Gr2Zgl3lzKMhhBWV484ZImRzk+v+eYd8/YdKzHbHGar44V/7fMeXzAtOTMt/mJ723qocOuhwv7bKJWKQX6Cv9y0GlVfW3H39OOvr3hjY/bmA/mO8yvA8kvq80vqE6JzpqXG3b5s6sxJiZdtpMDoU1TVOT1JpVQmRPT5OUCv1SZHX8gJR4qKV87IFEK4PZ6apmbvwWB//0C/Qd1C7GpK8phFUya9t3ufEKKouua+Z56dPj5lRWbGjbNmzJwwLkBP/gcu1WDKufZDren99LrK5rqKJu/j8OjghTdOG0xvuVlF3kmV4dHBY8b1PqsiIMgvwODf1txhs9htFrv3YFR8mEarcjrcQojN7x0YNylhQm+FnjBcWKU6CoyND79teWdpAu8iY0OA7leP3jD4z9kXJdBfOzZ+9FVgTIoN/eHDy176+d2rFqXrdRf+Zqrq2z/fn//T/9nkqw0FQAjhPF+JVSEUgf1+cA/yv3BxweHspfarUqlUKRQXO4Awg+GZh78yO7WzpLXD5TpcUPTnf3+89rfPLP/RL9Zt33mxHQK4MkztFsv5GQT9lIvtpqqks/5kcFhgcHj3GjBeWp1Gq9cIIZwOl6/QU1hU8NQ5E7yP6yqbn//R2//4w8fNDe2yx4+hxX2J0eGxuxfuPXauqr5dCKFWKe+7afrgJ+10rWv00OpZI3/vZ4Wic1c7k8XRYbEbBqp46+Ov12ZOjM+cGF/XZNy0L//omcqi8oZWo1WSRFOb+Ym/rH/rDw+OSxz4PiyAK2NsbEz2i//1zLsfvL9n/7naWrPN7vZ4WjpM2YXF2c++8NyHG/7y/x5enpmhHWjFBQB5PG5PY23r8QOFx/acKSuq6WizCCH8AnQRMSHxyVGOPvartVkd9vNPRQ+66rr1/H0GSZIqztb32qahutlpdwohFAqFossVikd/eedvH/1HbUWT5JFaGo071mfvWJ89bV7qdbdMT0lPCI8J0ekvovQ8hhY/oEcHnU79s29cX1rd4pEkP51mwM3puup6k6H+/OqlkSzU4N9itAgh2kzW9g7r4LOET0xE0DfWzr33xsyThTXvbz2x/0SpEMLmcO06epYsAQw5h8vlcPe539yAfnTPHXdftzCroGj3yVPbj+dUNHbOnThVWv7Yi39/4+knrps6eYhGCuACj9tzZM+ZjW/sPnemqutxq9leea6+8lzvH/e70egu+pNk4cny/3z0H/230ftp9f4XVoSGhBu+/cu7Nr+7/9D2U76DJ7OKTh0pjkuKzJg3Ydma2WMGV/gRQ44sMTqolMp5GcnzMpJlnBsZGpgQFVzV0C6EOJRb1tZhDTFc9MzmKyk+OtibJZrbzM1tloTo7lvtDlKgv27h9LGzpiTe+vgrTW1mIURB6aB+MgLXgtiwzp2nPJKnpqV1Rt8tKxoafY99KytUSmVseFhRdY0Qot1sMVltskeiVqkmxMdNiI+7b8kim8P59o7dL2z4tLCqWghRWtfwt082kSWAy6GmovG1P21oazEN90B6YQjx92124ZWaMSYl/d4Vd8zd8v7Bk1nF3nsmHrdUVdJQXdp4bG/+r176VkSMzA8MuBRkiWvCyvlpr2/MFkJYbc4vDhTcdX2G+uK2X1ColAq3RxJC2OxOu8N1mZZqeE0ZH3v6bK0kiVajdfvhomlpcZfSm06j9o1WxQa6wHnpSWPEgSwhhMvtKa6uFmJWr83qWlrL6jtnOfvrdNPOl45VK5UT4mP35J4WQpTV1+dXVE1OutTVkBq1WqNWf+fWVbctmHvfM8/uO31GCHG4oOgSuwXQq3XPb/IGCYVCkZoxZumtMydOH+stnVRZUl9f2Xxw68kDW072PFGhEL7pRyajZZAvp1B2njRryaQf/tdXL3a0CoVCo1VPnTN+6pzxVaX1h7bmnswqqilrMndYJUmqr2p55vHXfv/ad/xH9tXSqxJrr68Jty2dEhUWKIRwuT3vbj6+93hJXy2bWs2l1S3dDiqVisjzW2XnFNZ8sud0u8kmhKhrMp4oqGoY6ksay2aPjwjpfLnP9p7ZsOuU2drffhdmqyPvXF1fbbJOlbe0d/6kG8MVC+C8OxfN16hUQgiX251VUNRu7v0Dwbnausrzk44WTk73HVer1QsnpfvrdEIIk9X25rYdfb1Qr8u1+xcXHjZ3Yqr3cXmXuyIAhkp9VfPp8xtEhEYYHvvN3ctvn+MNEkKIxJToWUsmTZnd+4Rqvb9O59c5Aamxpm2QrxgS1vmb3WKymbtUq5chYWz03Y+u/MFfHvr2L+/0bY9dXdpw6si5S+kW8nBf4poQFxW8Zsnk1zZmezxSZX3bz17cNCM94Yb5actmTwgO1Ash8s7WnSmtO3K68nh+lSFAt/6vX+96ulqlnJgS7d1CrrHV9Owbu/7nX/sUCoXH4xFCfP32uV+/fe4Qjnb6xPjrZqR8tCNXCNFusj7zyvbP9p65acHEu1ZOE0K0tFuO5FUcPlUhhPjVozcIIQrLGr73x49CDH7zMpKnjI8ZGx82fWKCEKKhpeP9LSfe+fy4r0rsrMmUhQU6TUyIXzpt6rbjOUKIHSdO7sw5uXbh/G5t7E7nK19sq2xoFEJoVKr7lizyPaVUKJZkTJmUlHi06KwQ4vPsY9/86//+88nvdevhmfc+eGObnIpMjvMV5RMiBruyE8DgVZytd7s83sczFqfHXMxiwqDQgMAgv+b6diHEubzeN63qKS450rvpdWNNS2NNa0Dapd5ACI0MmrN8SnxK1FN3Pe89cu5M1dzzdS9xxZAlrglqlfKulZlF5Y37c0o9HsnhdGfllmfllv/ny1t7NpZ6HNFp1Q+smlFU1ljT2C6EcLk9rvM3AVRKhdTzhEujUiq/sXbuuaqmvHP1Tpfb5fYcz686nl/1zKvbuzZLPH+TwSNJNoerrrljw65TG3ad6q1L4a/XPLBqxtypSUM8VmAkae7o2H2y928BH51GMyt1gkat0mm1X1u5/OCZArPN1mzs+Mmr63QaTea4lIjgII1K1WG1NrS2/99nn7+7a4/3W3xeetqSaVO7djU2JvrrN1x/4myJ2+PxSNIrX2w7VVZ+93ULZ44fZ7RYswuLPsnKPlVa3tdIvjhyvLalJXNcSpgh0E+niwoJ9h5vajdmFxZ9lpXt/bLXDbkBXCJHlw1qNdreJwA7nb3XVIiMCY1LjiovrhNC2KyON5779CtP3Dzg3OlZSybv/vSYy+lubeo4eago+dImMF8YTGyo77FazXSbYUCWGCl8W72qVcqYcIOMHqLCDQVlDUIIraaX7+eosMAfP7IibdepjbtP9zMrKT4q+Ib5aT2PT0uN+/k3r39n07GiisbmNoskSWqVMiIkICUhfEZ6greNSqnw1Z8NHWjCoub8Dx2lQqHsUZk+JiLoz0/c+vamY5/vO9Pc3vvUi9iIIO+DxOiQzLT4gtJ6m6OPn3qhAfevmvHwmjn9DwkY7bILi5f96Bf9twkzBB7+n+fGx8UqFYpVs2esmT/n3V17hRBF1TUP/On5WRPGjYuL1Ws1DW3tBZVVOedKvWcFB/g/ftvqpKjIbr09fMOK0+UV//x8i9PtFkIcLijqtrwhJiw0IshwuqyX3V0+P3L0xY2b4sLDkqIiQw2BE+I6P1icq609cbakurnF+7oPLh/pZayB0Sgq4cIdv9zDZ1sbjaGRQb4jbrfn+P78g70tlhBCaPWapbfOPLQt1/vlro1HktPi5q+cqtNre23vFZ8cGZ8cWV5c53K6P3/vQHBY4Nzrp/r1UaqxuqwhOj5crVEJIYytpub69rETe9+fd8f6bN/ji7q7gqFClhgpbl8+ddWiiUIIIRQBfv19N/blT/9xi9PlFkIo+tg0KjYy6Ft3zb975bRth4u2HSqqqGv1LiTQadQJ0cHT0uJnpMfPz0judecKjVo1PyN5xsQEl9vjndokhEKpVKhVSs356BITHvTSL+72PqtSDXBt4ImvXPfdexcKIZRKpb63inKRoYGP37/4rpXTPt2Tl1tUc6ak3mSxCyEiQgISY0JvWph2/dzO6dTR4Yb/+9mdDS2mjbtP5xTWVNa1eqs2+ek0Y+PDFmSOXbNksi94ANc4m8NpPL80IsxgeO2px1UK5ds7dwsh2s3mHTm5O3Jyu50SHmR4+8dPrZyR2XWzGi8/nfb5R78+J238D//5RmO7sduz89PT/vz/Hv7s8JFes4RXTXNLTbN3jdaxns/++J4771q88GLeH4BBSUmPDwk3tDV3CCFqyhr+9psP7v3OyglTxjTWth7ZfWb7h1n1NS2u8zOEe8qYN2HRqsz9m3OEEDar47U/bzi07eTy22dPmjnOEOwvhNj1yZGCE2XmDtvTzz3kPSUyLnTJ6pnr/rpJCNHW1PGPZz7e8sGhFbfPyVyY5q2/1FTXlnf03JljJaeyzwYG+z/xzANxyZFCiBMHCl/504bo+LD06WOnzBkXkxCRlBorhCjJr9q+Pnv3J0e9/ev9tVPnXETFfAwVssRIodWoer2fMHh6nUavG2CvFpVSGREaeP9NM+6/qZ8KkH3SadX97PWgVF5ECtJrNXrtAKNVq5SJ0SGP3TPwJwm9TjMmNvTx+xcP8tWBq0Z0aMiSjIuYHxwZHDQh/sLUAr1W+/rT/3HDrMw3tu7Mr6hsN1usdrskhFqlDNT7RYUEL546+fHbbpmW0udEI51G87WVKxZPmbzxUPbBM/neRDFj/LhVs2esnJEphFh/4FCvJ353zS1uj3QgL7+xvb3DYu2wdq7FDNDrDH5+KbEx31696qEVSwf/1gAMnkqlvO+7N77x3Kc2i12SxKnDxacOF3dtoNao4sdGVpf2XvxAqVQ+/rv7muvai09XuJxuu82Zc7Ao52B/VdcUCsUtDy6uOFd/eMcpq9nudnlK8qtL8tf32lijVbvdncs53C6Pw+b0bnmx9cOsXtsHhQY8/PSarrdWcMWQJQBgFJsQH7f72T9cSg9qleqhFctWzZp5sqS0prml1WTySJJOo4kMDk5NiEuNj9NrB75GkBIb8+Qda568Y03Pp3xloEIDv1QtPi0h/m/fe7Sysam4uqa+ra2+tbMaTHhQUHRIcEZKckxoaPe+gGuPQiH8AnQKhZAkofPTagaqya5UXtgxOiQ8sJ+Wi2+e3tbU8elbe3tWVTKEBKy8c+6sJZP+9P3Xja1mlVoZGOTfs4dHf3nnF+8f3LvpuMXU+w4zviJLPl/7wepxkxI+f2d/bWVTXwPzD9RPXzQxLOr8TOZx0UkTYqtKLywW7yYuOXLt15ctvHFaXx3islJIQ75yFgAAIYQQlY1N9/z+z1kFRUKIhZPT9z//p+EeETDKSJLkdLicDpcQQqFQ6Py0/c8idrs9dqvD++lOo1Vr+52w4HZ7Ks7WfvLmnrxjJe3NJqVSMWlmyuwlk6+7dYZOr1WplFazzeORhBB6f12vr+tyuh1256fr9hScLC/Jr7JZHEKI0IigselxC2/MnLVkkr7HhAWPx+OwOXMOFu3bfOJsXmVbU4f3eMqkhLgxEZNmpsxfmaHVqdWaztQkeSS73Vlf1bz/i5zTR841VDWbjFYhhL9BP25SwvSFaStun6PVa5Q9JmHiyiBLAAAul/UHsh594W+N7UaFQjx1x+3PfeuR4R4RAGAokeEAADLVNLecq63r69ni6ppnP/jYu4IiLizs5jkzr+DQAABXAuslAAAy/ePzLc9/tHFyUuKNs2bMTh2/cHJ6SGCgEGLHiZMfHzj05rZdZlvnLOpVs2f6trIGAFw1yBIAAJkcLleH1ZpVUJRV0Gf9Fo1KNTttwi8euCdA30u9aQDAqEaWAADIND89bVrK2DPlFd696noaExVx75LFj9+2OjGSPaQA4CrE2msAgExuj8fmcBRV1Xy4/+CunNyCyupWk0kIERkcNCctdfHUSQ8sWxIbFqpWXdLmOQCAEYssAQAAAEAO6jgBAAAAkIMsAQAAAEAOsgQAAAAAOcgSAAAAAOQgSwAAAACQgywBAAAAQA6yBAAAAAA5yBIAAAAA5CBLAAAAAJCDLAEAAABADrLE6PPxjpMrHv2b98/Joup+Wpqtjr+8saP/3q5kGyHEkLTxvf0Vj/5twN6Aq8/fP9sccscD3j/78/L7adlusTz24kv99zZUbYQQQ9XmwT8/338D39sPueOBAXsDrjIWk+2Rpb/x/nn1Txv6afnnJ94YsLcXf/HekLQRQjyy9DdXoM2J/QW+t3/gi5zBDAyXlXq4B4CL5nC5TRa797HbI/XTUpIkm8PVf29Xso0QYkja+N4+cG1yOF3tZrP3sdvt7q+pJFntA32/DFUbIYaqjcVm67+B7+0D1yaLqfN7xG5z9tPMZnUM2JXdNjRtuo7qsrZxuTy+Bi5Xvz8AcUVwXwIAAACAHGQJAAAAAHKQJQAAAADIQZYAAAAAIAdZAgAAAIAcZAkAAAAAcpAlAAAAAMhBlgAAAAAgB1kCAAAAgBxkCQAAAABykCUAAAAAyEGWAAAAACAHWQIAAACAHGQJAAAAAHKQJQAAAADIQZYAAAAAIAdZAgAAAIAcZAkAAAAAcpAlAAAAAMhBlgAAAAAgB1kCAAAAgBxkCQAAAABykCUAAAAAyEGWAAAAACAHWQIAAACAHGQJAAAAAHKQJQAAAADIQZYAAAAAIAdZAgAAAIAcZAkAAAAAcpAlAAAAAMhBlgAAAAAgB1kCAAAAgBxkCQAAAABykCUAAAAAyEGWAAAAACAHWQIAAACAHGQJAAAAAHKQJQAAAADIQZYAAAAAIAdZAgAAAIAcZAkAAAAAcpAlAAAAAMhBlgAAAAAgB1kCAAAAgBxkCQAAAABykCUAAAAAyEGWAAAAACAHWQIAAACAHGQJAAAAAHKQJQAAAADIQZYAAAAAIAdZAgAAAIAcZAkAAAAAcpAlAAAAAMhBlgAAAAAgB1kCAAAAyyEx0wAABQdJREFUgBxkCQAAAABykCUAAAAAyEGWAAAAACAHWQIAAACAHGQJAAAAAHKQJQAAAADIQZYAAAAAIAdZAgAAAIAcZAkAAAAAcpAlAAAAAMhBlgAAAAAgB1kCAAAAgBxkCQAAAABykCUAAAAAyEGWAAAAACAHWQIAAACAHGQJAAAAAHKQJQAAAADIQZYAAAAAIAdZAgAAAIAcZAkAAAAAcpAlAAAAAMhBlgAAAAAgB1kCAAAAgBxkCQAAAABykCUAAAAAyEGWAAAAACAHWQIAAACAHGQJAAAAAHKQJQAAAADIQZYAAAAAIAdZAgAAAIAcZAkAAAAAcpAlAAAAAMhBlgAAAAAgB1kCAAAAgBxkCQAAAABykCUAAAAAyEGWAAAAACAHWQIAAACAHGQJAAAAAHKQJQAAAADIQZYAAAAAIAdZAgAAAIAcZAkAAAAAcpAlAAAAAMhBlgAAAAAgB1kCAAAAgBxkCQAAAABykCUAAAAAyEGWAAAAACAHWQIAAACAHGQJAAAAAHKQJQAAAADIQZYAAAAAIAdZAgAAAIAcZAkAAAAAcpAlAAAAAMhBlgAAAAAgB1kCAAAAgBxkCQAAAABykCUAAAAAyEGWAAAAACAHWQIAAACAHGQJAAAAAHKQJQAAAADIQZYAAAAAIAdZAgAAAIAcZAkAAAAAcpAlAAAAAMhBlgAAAAAgB1kCAAAAgBxkCQAAAABykCUAAAAAyEGWAAAAACAHWQIAAACAHGQJAAAAAHKQJQAAAADIQZYAAAAAIAdZAgAAAIAcCkmShnsMuOC9Lcf/+vbu4R7F1ebwW08N9xCAwXph/adPvPTKcI/iqiJt2TjcQwAGy2KyPbL0N8M9iqvKY7+5e8nqmcM9iqsZ9yUAAAAAyEGWAAAAACCHergHgD5NGBNp8NcN9yhGq+MFVcM9BOBSTUsZGxIYMNyjGJUKKqvqW9uGexTAJQmLCopJjBjuUYxKHW3mynP1wz2KawVZYuR68itLZ6YnDvcoRqu5Dz0/3EMALtV/f/sbS6dNHe5RjEoPP/fCm9t2DvcogEsyd8XUh39w63CPYlQ6sjvvuaffGu5RXCuY4wQAAABADrIEAAAAADnIEgAAAADkIEsAAAAAkIO96gZWcO5cYWnplXmt7DON24/UXpnXunb87GsZwz0EYLA+PZrz6q59wz2Kq8qGHz4+3EMABsthdX742z3DPYqryry7J6XMjBvCDqdNnJickDCEHY523JcAAAAAIAdZAgAAAIAc7C8xshj8NWOi2ZoKuHaFGwKnJMYP9ygADA+FUhGVEjrco7iq6AO1wz2EqxzrJQbWbb3EjMmTh3EwAAAAuJKO5+X5HrNeohvuS1y0xNjY4R4CAAAArpCuWQLdsF4CAAAAgBxkCQAAAABykCUAAAAAyEGWAAAAACAHWQIAAACAHGQJAAAAAHKQJQAAAADIQZYAAAAAIAdZAgAAAIAcZAkAAAAAcpAlAAAAAMhBlgAAAAAgB1kCAAAAgBxkCQAAAABykCUAAAAAyEGWAAAAACAHWQIAAACAHOrhHsDo8/nu3cM9BAAAAGD4kSUumtPlGu4hAAAAAMOPOU4AAAAA5CBLAAAAAJCDOU4DCwoMTIiJGe5RAAAAYJgF+PsP9xBGFoUkScM9BgAAAACjD3OcAAAAAMhBlgAAAAAgB1kCAAAAgBxkCQAAAABykCUAAAAAyEGWAAAAACDH/wc71oTZhPjTegAAAABJRU5ErkJggg==;" vertex="1" parent="1">
          <mxGeometry x="210.5" y="-413" width="688.5" height="496.84" as="geometry" />
        </mxCell>
        <mxCell id="JiVCPCvDYgoVMj1UgqHU-6" value="Text" style="text;strokeColor=none;align=center;fillColor=none;html=1;verticalAlign=middle;whiteSpace=wrap;rounded=0;" vertex="1" parent="1">
          <mxGeometry x="540" y="-260" width="60" height="30" as="geometry" />
        </mxCell>
        <mxCell id="JiVCPCvDYgoVMj1UgqHU-7" value="&lt;font style=&quot;font-size: 36px;&quot;&gt;&lt;b style=&quot;&quot;&gt;&lt;i style=&quot;&quot;&gt;3 Pillars of Observability&lt;/i&gt;&lt;/b&gt;&lt;/font&gt;" style="text;strokeColor=none;align=center;fillColor=none;html=1;verticalAlign=middle;whiteSpace=wrap;rounded=0;" vertex="1" parent="1">
          <mxGeometry x="333.75" y="-540" width="472.5" height="30" as="geometry" />
        </mxCell>
        <mxCell id="JiVCPCvDYgoVMj1UgqHU-9" value="&lt;font style=&quot;font-size: 24px;&quot;&gt;Monitoring metrics, tracing, and logging are often described as the three pillars of observability.&amp;nbsp;&lt;/font&gt;" style="text;strokeColor=none;align=center;fillColor=none;html=1;verticalAlign=middle;whiteSpace=wrap;rounded=0;" vertex="1" parent="1">
          <mxGeometry x="295.5" y="-490" width="535" height="60" as="geometry" />
        </mxCell>
        <mxCell id="JiVCPCvDYgoVMj1UgqHU-10" value="&lt;font style=&quot;font-size: 24px;&quot;&gt;&lt;b&gt;&lt;i&gt;&lt;u&gt;Observability Benefits.&lt;/u&gt;&lt;/i&gt;&lt;/b&gt;&lt;/font&gt;" style="text;strokeColor=none;align=center;fillColor=none;html=1;verticalAlign=middle;whiteSpace=wrap;rounded=0;" vertex="1" parent="1">
          <mxGeometry x="180" y="90" width="450" height="40" as="geometry" />
        </mxCell>
        <mxCell id="JiVCPCvDYgoVMj1UgqHU-11" value="&lt;p style=&quot;box-sizing: border-box; border: 0px; font-variant-numeric: inherit; font-variant-east-asian: inherit; font-variant-alternates: inherit; font-stretch: inherit; font-size: 17px; line-height: 1.94118; font-family: &amp;quot;Ember Display&amp;quot;; font-optical-sizing: inherit; font-kerning: inherit; font-feature-settings: inherit; font-variation-settings: inherit; margin: 0px 0px 3.4rem; padding: 0px; vertical-align: baseline; color: rgb(49, 53, 55); text-align: start; background-color: rgb(255, 255, 255);&quot;&gt;Observability provides a holistic view of your workload, providing you with rich context-based information. This factual-based view of your environment provides opportunities to improve many areas of your workload&lt;/p&gt;" style="text;strokeColor=none;align=center;fillColor=none;html=1;verticalAlign=middle;whiteSpace=wrap;rounded=0;" vertex="1" parent="1">
          <mxGeometry x="284.75" y="170" width="540" height="80" as="geometry" />
        </mxCell>
        <mxCell id="JiVCPCvDYgoVMj1UgqHU-12" value="" style="endArrow=none;html=1;rounded=0;" edge="1" parent="1">
          <mxGeometry width="50" height="50" relative="1" as="geometry">
            <mxPoint x="320.5" y="280" as="sourcePoint" />
            <mxPoint x="750.5" y="280" as="targetPoint" />
            <Array as="points">
              <mxPoint x="470.5" y="280" />
            </Array>
          </mxGeometry>
        </mxCell>
        <mxCell id="UEzPUAAOIrF-is8g5C7q-208" value="" style="rounded=0;whiteSpace=wrap;html=1;labelBackgroundColor=#ffffff;fillColor=#ffffff;gradientColor=none;container=1;pointerEvents=0;collapsible=0;recursiveResize=0;" parent="1" vertex="1">
          <mxGeometry x="230.5" y="310" width="630" height="300" as="geometry" />
        </mxCell>
        <mxCell id="UEzPUAAOIrF-is8g5C7q-206" value="AWS Cloud" style="points=[[0,0],[0.25,0],[0.5,0],[0.75,0],[1,0],[1,0.25],[1,0.5],[1,0.75],[1,1],[0.75,1],[0.5,1],[0.25,1],[0,1],[0,0.75],[0,0.5],[0,0.25]];outlineConnect=0;gradientColor=none;html=1;whiteSpace=wrap;fontSize=12;fontStyle=0;shape=mxgraph.aws4.group;grIcon=mxgraph.aws4.group_aws_cloud_alt;strokeColor=#232F3E;fillColor=#ffffff;verticalAlign=top;align=left;spacingLeft=30;fontColor=#232F3E;dashed=0;labelBackgroundColor=#ffffff;container=1;pointerEvents=0;collapsible=0;recursiveResize=0;" parent="UEzPUAAOIrF-is8g5C7q-208" vertex="1">
          <mxGeometry x="20" width="610" height="300" as="geometry" />
        </mxCell>
        <mxCell id="JiVCPCvDYgoVMj1UgqHU-29" value="&lt;font style=&quot;font-size: 18px;&quot;&gt;Benefits of Observability&lt;/font&gt;" style="swimlane;whiteSpace=wrap;html=1;" vertex="1" parent="UEzPUAAOIrF-is8g5C7q-208">
          <mxGeometry x="75" y="40" width="480" height="210" as="geometry" />
        </mxCell>
        <mxCell id="JiVCPCvDYgoVMj1UgqHU-31" value="&lt;font style=&quot;font-size: 18px;&quot;&gt;&lt;b&gt;1-&lt;/b&gt;&amp;nbsp; Customer Experience&lt;/font&gt;" style="text;strokeColor=none;align=left;fillColor=none;html=1;verticalAlign=middle;whiteSpace=wrap;rounded=0;" vertex="1" parent="JiVCPCvDYgoVMj1UgqHU-29">
          <mxGeometry x="14.5" y="40" width="255.5" height="30" as="geometry" />
        </mxCell>
        <mxCell id="JiVCPCvDYgoVMj1UgqHU-34" value="&lt;font style=&quot;font-size: 18px;&quot;&gt;&lt;b&gt;4-&lt;/b&gt;&amp;nbsp; Trouble Shooting and Remediation&lt;/font&gt;" style="text;strokeColor=none;align=left;fillColor=none;html=1;verticalAlign=middle;whiteSpace=wrap;rounded=0;" vertex="1" parent="JiVCPCvDYgoVMj1UgqHU-29">
          <mxGeometry x="14.5" y="130" width="405.5" height="30" as="geometry" />
        </mxCell>
        <mxCell id="JiVCPCvDYgoVMj1UgqHU-33" value="&lt;font style=&quot;font-size: 18px;&quot;&gt;&lt;b&gt;3-&lt;/b&gt;&amp;nbsp; Trends&lt;/font&gt;" style="text;strokeColor=none;align=left;fillColor=none;html=1;verticalAlign=middle;whiteSpace=wrap;rounded=0;" vertex="1" parent="JiVCPCvDYgoVMj1UgqHU-29">
          <mxGeometry x="14.5" y="100" width="255.5" height="30" as="geometry" />
        </mxCell>
        <mxCell id="JiVCPCvDYgoVMj1UgqHU-32" value="&lt;font style=&quot;font-size: 18px;&quot;&gt;&lt;b&gt;2-&lt;/b&gt;&amp;nbsp; Performance and Cost&lt;/font&gt;" style="text;strokeColor=none;align=left;fillColor=none;html=1;verticalAlign=middle;whiteSpace=wrap;rounded=0;" vertex="1" parent="JiVCPCvDYgoVMj1UgqHU-29">
          <mxGeometry x="14.5" y="70" width="255.5" height="30" as="geometry" />
        </mxCell>
        <mxCell id="JiVCPCvDYgoVMj1UgqHU-35" value="&lt;font style=&quot;font-size: 18px;&quot;&gt;&lt;b&gt;5-&lt;/b&gt;&amp;nbsp; &amp;nbsp;Learning and improvement&lt;/font&gt;" style="text;strokeColor=none;align=left;fillColor=none;html=1;verticalAlign=middle;whiteSpace=wrap;rounded=0;" vertex="1" parent="JiVCPCvDYgoVMj1UgqHU-29">
          <mxGeometry x="14.5" y="160" width="255.5" height="30" as="geometry" />
        </mxCell>
        <mxCell id="JiVCPCvDYgoVMj1UgqHU-36" value="&lt;h1 style=&quot;box-sizing: border-box; border: 0px; font-variant-numeric: inherit; font-variant-east-asian: inherit; font-variant-alternates: inherit; font-stretch: inherit; line-height: inherit; font-optical-sizing: inherit; font-kerning: inherit; font-feature-settings: inherit; font-variation-settings: inherit; margin: 0px; padding: 0px; vertical-align: baseline; overflow-wrap: break-word; color: rgb(255, 255, 255); text-align: start; background-color: rgb(48, 48, 48);&quot; class=&quot;fr-view&quot;&gt;&lt;font face=&quot;Georgia&quot; style=&quot;font-size: 36px;&quot;&gt;Observability Strategies&lt;/font&gt;&lt;/h1&gt;" style="text;strokeColor=none;align=center;fillColor=none;html=1;verticalAlign=middle;whiteSpace=wrap;rounded=0;" vertex="1" parent="1">
          <mxGeometry x="190" y="640" width="524.5" height="30" as="geometry" />
        </mxCell>
        <mxCell id="JiVCPCvDYgoVMj1UgqHU-37" value="&lt;font style=&quot;font-size: 14px;&quot;&gt;To have an effective observability strategy, you must have an effective monitoring solution.&amp;nbsp;&lt;/font&gt;" style="text;strokeColor=none;align=center;fillColor=none;html=1;verticalAlign=middle;whiteSpace=wrap;rounded=0;" vertex="1" parent="1">
          <mxGeometry x="200" y="700" width="620" height="30" as="geometry" />
        </mxCell>
      </root>
    </mxGraphModel>
  </diagram>
</mxfile>
